<svg id="Grupo_1200266" data-name="Grupo 1200266" xmlns="http://www.w3.org/2000/svg" width="76.345" height="76.345" viewBox="0 0 76.345 76.345">
  <g id="Grupo_1187152" data-name="Grupo 1187152" transform="translate(0)">
    <g id="Grupo_1185946" data-name="Grupo 1185946" transform="translate(0)">
      <g id="Grupo_1184280" data-name="Grupo 1184280" transform="translate(0)">
        <g id="Grupo_1182168" data-name="Grupo 1182168" transform="translate(0)">
          <g id="Grupo_1178877" data-name="Grupo 1178877" transform="translate(0)">
            <g id="Grupo_1111311" data-name="Grupo 1111311" transform="translate(0)">
              <g id="Grupo_1098742" data-name="Grupo 1098742" transform="translate(0 0)">
                <g id="Rect치ngulo_400898" data-name="Rect치ngulo 400898" transform="translate(0)" fill="#fff" stroke="#fa840e" stroke-width="1" opacity="0.859">
                  <rect width="76.344" height="76.345" rx="38.172" stroke="none"/>
                  <rect x="0.5" y="0.5" width="75.344" height="75.345" rx="37.672" fill="none"/>
                </g>
                <g id="Rect치ngulo_400907" data-name="Rect치ngulo 400907" transform="translate(0)" fill="none" stroke="#fa840e" stroke-width="1">
                  <rect width="76.344" height="76.345" rx="38.172" stroke="none"/>
                  <rect x="0.5" y="0.5" width="75.344" height="75.345" rx="37.672" fill="none"/>
                </g>
              </g>
            </g>
          </g>
        </g>
      </g>
    </g>
  </g>
  <g id="Page-1" transform="translate(12.353 12.286)">
    <g id="_053---Seeding-Protection-Pests" data-name="053---Seeding-Protection-Pests" transform="translate(0 0.008)">
      <path id="Path" d="M35.258,5.509V19.032a35.057,35.057,0,0,1-.37,6.1,14.413,14.413,0,0,0-10.44,13.406A48.286,48.286,0,0,1,18.49,41.5a.911.911,0,0,1-.721,0C1,34.466,1,25.82,1,19.032V5.509a.91.91,0,0,1,.9-.9A37.542,37.542,0,0,0,17.741,1.1a.9.9,0,0,1,.775,0,37.542,37.542,0,0,0,15.84,3.507.91.91,0,0,1,.9.9Z" transform="translate(-0.098 -0.107)" fill="#a4c400" fill-rule="evenodd"/>
      <path id="Path-2" data-name="Path" d="M36.08,4.607A37.542,37.542,0,0,1,20.24,1.1a.9.9,0,0,0-.775,0c-.285.134-.609.283-.965.439A37.989,37.989,0,0,0,33.375,4.607a.91.91,0,0,1,.9.9V19.032a35.057,35.057,0,0,1-.37,6.1,14.413,14.413,0,0,0-10.44,13.406A46.927,46.927,0,0,1,18.5,41.065c.328.144.652.289.992.433a.911.911,0,0,0,.721,0,48.287,48.287,0,0,0,5.959-2.957A14.413,14.413,0,0,1,36.612,25.135a35.057,35.057,0,0,0,.37-6.1V5.509A.91.91,0,0,0,36.08,4.607Z" transform="translate(-1.821 -0.107)" fill="#90ac00" fill-rule="evenodd"/>
      <path id="Path-3" data-name="Path" d="M24.015,34.328a4.508,4.508,0,1,1-9.015,0,6.7,6.7,0,0,1,4.508-6.311A6.7,6.7,0,0,1,24.015,34.328Z" transform="translate(-1.477 -2.766)" fill="sienna" fill-rule="evenodd"/>
      <path id="Path-4" data-name="Path" d="M16.967,16.867c2.464,2.465,1.912,7.012,1.912,7.012s-4.547.552-7.012-1.912S9,14,9,14,14.5,14.4,16.967,16.867Z" transform="translate(-0.886 -1.386)" fill="#60a917" fill-rule="evenodd"/>
      <path id="Path-5" data-name="Path" d="M21.948,11.867c-2.464,2.465-1.912,7.012-1.912,7.012s4.547.552,7.012-1.912S29.915,9,29.915,9,24.416,9.4,21.948,11.867Z" transform="translate(-1.968 -0.894)" fill="#60a917" fill-rule="evenodd"/>
      <path id="Path-6" data-name="Path" d="M51.621,51.77a14.414,14.414,0,1,1,4.23-10.2A14.425,14.425,0,0,1,51.621,51.77Z" transform="translate(-2.658 -2.68)" fill="#ffdf00" fill-rule="evenodd"/>
      <path id="Path-7" data-name="Path" d="M53.048,31.37A14.378,14.378,0,0,0,41.5,27.223a14.424,14.424,0,0,1,0,28.713A14.424,14.424,0,0,0,53.048,31.37Z" transform="translate(-4.086 -2.681)" fill="#fec108" fill-rule="evenodd"/>
      <path id="Path-8" data-name="Path" d="M48.534,43.448l-.433.424L45.92,46.062l-1.5,1.5a4.976,4.976,0,0,1-.685.568,5.159,5.159,0,0,1-7.176-7.167,6.73,6.73,0,0,1,.568-.685l1.506-1.5,2.182-2.191.433-.424a1.467,1.467,0,0,1,2.074.009l.153.162c-.415,1.028.559,2.01,1.713,3.173s2.146,2.137,3.182,1.713l.153.153a1.483,1.483,0,0,1,.009,2.074Z" transform="translate(-3.512 -3.527)" fill="#f44335" fill-rule="evenodd"/>
      <path id="Path-9" data-name="Path" d="M49.882,40.65a2.109,2.109,0,0,1-.667.469c-1.037.424-2.019-.55-3.182-1.713s-2.128-2.146-1.713-3.173a1.9,1.9,0,0,1,.469-.685,3.619,3.619,0,0,1,5.094,5.1Z" transform="translate(-4.354 -3.425)" fill="#607d8b" fill-rule="evenodd"/>
      <path id="Path-10" data-name="Path" d="M49.226,49.374l-2.185-2.185" transform="translate(-4.632 -4.654)" fill="#f44335" fill-rule="evenodd"/>
      <path id="Path-11" data-name="Path" d="M4.9,12.508a.9.9,0,0,1-.9-.9V8.9A.9.9,0,0,1,4.9,8h2.7a.9.9,0,1,1,0,1.8H5.8v1.8A.9.9,0,0,1,4.9,12.508Z" transform="translate(-0.394 -0.795)" fill="#fff" fill-rule="evenodd"/>
      <g id="Grupo_1201244" data-name="Grupo 1201244">
        <path id="Shape" d="M19.72,25.431v-2.6c.016-.327.025-.778,0-1.3V19.732h.25c1.653,0,4.606-.3,6.536-2.23,2.671-2.666,3.111-8.3,3.131-8.534a.9.9,0,0,0-.262-.7.888.888,0,0,0-.7-.261c-.238.017-5.867.457-8.538,3.128a8.4,8.4,0,0,0-2.146,5.049,6.143,6.143,0,0,0-.48-.541c-2.673-2.671-8.3-3.111-8.54-3.131A.9.9,0,0,0,8,13.475c.018.238.458,5.868,3.129,8.538,1.93,1.93,4.884,2.23,6.536,2.23h.25v1.192a7.533,7.533,0,0,0-4.508,6.926,5.409,5.409,0,0,0,10.818,0A7.533,7.533,0,0,0,19.72,25.431Zm1.686-13.025c1.57-1.57,4.651-2.225,6.3-2.471-.247,1.646-.9,4.727-2.472,6.3s-4.217,1.727-5.511,1.7v-.748A7.251,7.251,0,0,1,21.405,12.406Zm-9,8.333c-1.57-1.57-2.225-4.65-2.472-6.3,1.646.246,4.727.9,6.3,2.471a7.251,7.251,0,0,1,1.686,4.774v.748c-1.291.03-3.945-.13-5.511-1.7Zm6.413,15.224a3.606,3.606,0,0,1-3.606-3.606,5.711,5.711,0,0,1,3.606-5.348,5.71,5.71,0,0,1,3.606,5.348A3.606,3.606,0,0,1,18.818,35.963Z" transform="translate(-0.787 -0.795)"/>
        <path id="Shape-2" data-name="Shape" d="M49.6,28.063a15.317,15.317,0,0,0-13.742-4.2,43.852,43.852,0,0,0,.2-4.927V5.41a1.821,1.821,0,0,0-1.79-1.8A37.171,37.171,0,0,1,18.8.181a1.8,1.8,0,0,0-1.541,0A37.164,37.164,0,0,1,1.787,3.607,1.82,1.82,0,0,0,0,5.41V18.933C0,25.7,0,34.967,17.309,42.224a1.819,1.819,0,0,0,.729.153,1.759,1.759,0,0,0,.7-.146,52.145,52.145,0,0,0,4.752-2.267,15.206,15.206,0,0,0,4.432,9.767l.005.007h.006A15.326,15.326,0,0,0,49.606,28.066ZM18.019,40.57C1.8,33.768,1.8,25.542,1.8,18.933L1.817,5.41A38.992,38.992,0,0,0,18.031,1.817,38.98,38.98,0,0,0,34.258,5.41V18.933a37.052,37.052,0,0,1-.286,5.427A15.228,15.228,0,0,0,23.488,37.894,46.888,46.888,0,0,1,18.019,40.57ZM29.2,29.338a13.51,13.51,0,0,1,18.454-.6l-2.4,2.4a4.575,4.575,0,0,0-2.39-.8A4.063,4.063,0,0,0,39.794,31.5c-.015.015-.026.031-.041.047a2.365,2.365,0,0,0-1.542-.152V30.53l1.921-1.922a.9.9,0,0,0-1.276-1.274l-2.185,2.186a.9.9,0,0,0-.264.637V32.7l-1.285,1.284-1.548-1.547A.9.9,0,1,0,32.3,33.71l1.548,1.547-.865.865c-.124.124-.233.279-.348.42H30.021a.9.9,0,0,0-.637.264L27.2,38.991a.9.9,0,1,0,1.275,1.275l1.922-1.921h1.213a6,6,0,0,0,.839,5.6l-3.85,3.85A13.5,13.5,0,0,1,29.2,29.338ZM44.387,39.29l-.427.427-.005.005L41.773,41.9l-1.5,1.5a4.2,4.2,0,0,1-5.255.52l6.671-6.671A4.338,4.338,0,0,0,44.4,38.71c.033,0,.067-.009.1-.011a.56.56,0,0,1-.116.591ZM33.794,37.955a4.231,4.231,0,0,1,.464-.56l1.5-1.5,2.182-2.183.005-.005.427-.427a.557.557,0,0,1,.587-.114,4.184,4.184,0,0,0,1.451,2.815L33.74,42.651a4.189,4.189,0,0,1,.054-4.7Zm7.9-3.257c-.766-.819-.992-1.217-.893-1.533l.01-.027a1.043,1.043,0,0,1,.261-.366,2.254,2.254,0,0,1,1.617-.648h.11a2.742,2.742,0,0,1,1.149.321Zm3.2,1.893c-.451.451-.761.472-1.928-.621l2.254-2.254A2.444,2.444,0,0,1,44.9,36.6Zm3.434,11.865a13.531,13.531,0,0,1-18.454.6l3.844-3.839a6.05,6.05,0,0,0,3.606,1.2,5.95,5.95,0,0,0,2-.361v1.2L37.4,49.189a.9.9,0,0,0,1.277,1.277l2.185-2.185a.9.9,0,0,0,.264-.637V45.058c.15-.123.291-.248.421-.377l.864-.864,1.548,1.548a.9.9,0,1,0,1.275-1.275l-1.548-1.548,1.285-1.284h2.541A.9.9,0,0,0,48.148,41l2.186-2.186a.9.9,0,0,0-1.275-1.275l-1.922,1.922h-.862a2.374,2.374,0,0,0-.153-1.543c.016-.016.032-.025.049-.041A4.3,4.3,0,0,0,46.54,32.4l2.4-2.4a13.5,13.5,0,0,1-.608,18.456Z" transform="translate(0 -0.008)"/>
      </g>
    </g>
  </g>
</svg>
