<svg id="Grupo_1201053" data-name="Grupo 1201053" xmlns="http://www.w3.org/2000/svg" width="76.345" height="76.345" viewBox="0 0 76.345 76.345">
  <g id="Grupo_1187152" data-name="Grupo 1187152" transform="translate(0)">
    <g id="Grupo_1185946" data-name="Grupo 1185946" transform="translate(0)">
      <g id="Grupo_1184280" data-name="Grupo 1184280" transform="translate(0)">
        <g id="Grupo_1182168" data-name="Grupo 1182168" transform="translate(0)">
          <g id="Grupo_1178877" data-name="Grupo 1178877" transform="translate(0)">
            <g id="Grupo_1111311" data-name="Grupo 1111311" transform="translate(0)">
              <g id="Grupo_1098742" data-name="Grupo 1098742" transform="translate(0 0)">
                <g id="Rectángulo_400898" data-name="Rectángulo 400898" transform="translate(0)" fill="#fff" stroke="#fa840e" stroke-width="1" opacity="0.859">
                  <rect width="76.344" height="76.345" rx="38.172" stroke="none"/>
                  <rect x="0.5" y="0.5" width="75.344" height="75.345" rx="37.672" fill="none"/>
                </g>
                <g id="Rectángulo_400907" data-name="Rectángulo 400907" transform="translate(0)" fill="none" stroke="#fa840e" stroke-width="1">
                  <rect width="76.344" height="76.345" rx="38.172" stroke="none"/>
                  <rect x="0.5" y="0.5" width="75.344" height="75.345" rx="37.672" fill="none"/>
                </g>
              </g>
            </g>
          </g>
        </g>
      </g>
    </g>
  </g>
  <g id="faucet_9418640" transform="translate(6.304 3.305)">
    <path id="Trazado_1292382" data-name="Trazado 1292382" d="M94.659,19.374v.544H90.415v-.447A7.756,7.756,0,0,0,86,12.464a7.489,7.489,0,0,0-3.135-.718,7.639,7.639,0,0,0-7.705,7.629V34.9H70.911V19.5a11.958,11.958,0,0,1,11.805-12,11.806,11.806,0,0,1,3.768.59h0A11.892,11.892,0,0,1,94.659,19.374Z" transform="translate(-56.681 -0.001)" fill="#017297"/>
    <path id="Trazado_1292383" data-name="Trazado 1292383" d="M221.744,24.355V24.9H217.5v-.447a7.756,7.756,0,0,0-4.419-7.008,3.238,3.238,0,0,0,.489-4.371A11.892,11.892,0,0,1,221.744,24.355Z" transform="translate(-183.766 -4.982)" fill="#025f80"/>
    <path id="Trazado_1292384" data-name="Trazado 1292384" d="M110.911,66.424v-11.3a7.629,7.629,0,1,1,15.259,0" transform="translate(-92.437 -35.754)" fill="none" stroke="#000" stroke-linecap="round" stroke-linejoin="round" stroke-miterlimit="10" stroke-width="1.5"/>
    <path id="Trazado_1292385" data-name="Trazado 1292385" d="M92.761,12.39a11.843,11.843,0,0,1,21.43,6.984" transform="translate(-76.213 0)" fill="none" stroke="#000" stroke-linecap="round" stroke-linejoin="round" stroke-miterlimit="10" stroke-width="1.5"/>
    <path id="Trazado_1292386" data-name="Trazado 1292386" d="M70.911,99.635V88.47a12.013,12.013,0,0,1,.619-3.818" transform="translate(-56.681 -68.966)" fill="none" stroke="#000" stroke-linecap="round" stroke-linejoin="round" stroke-miterlimit="10" stroke-width="1.5"/>
    <g id="Grupo_1201245" data-name="Grupo 1201245" transform="translate(31.631 34.499)">
      <circle id="Elipse_11520" data-name="Elipse 11520" cx="12.044" cy="12.044" r="12.044" transform="translate(0 0)" fill="#c8effe"/>
      <path id="Trazado_1292387" data-name="Trazado 1292387" d="M345.7,274.007a12.051,12.051,0,0,1-13.8,11.918,12.045,12.045,0,0,0,0-23.834,12.051,12.051,0,0,1,13.8,11.917Z" transform="translate(-321.608 -261.962)" fill="#99e6fc"/>
      <path id="Trazado_1292388" data-name="Trazado 1292388" d="M427.928,295.15a12.1,12.1,0,0,0-2.287-2.888" transform="translate(-405.403 -289.047)" fill="none" stroke="#000" stroke-linecap="round" stroke-linejoin="round" stroke-miterlimit="10" stroke-width="1.5"/>
      <path id="Trazado_1292389" data-name="Trazado 1292389" d="M310.511,262.649h0a12.089,12.089,0,0,1,9.154.457" transform="translate(-302.489 -261.962)" fill="none" stroke="#000" stroke-linecap="round" stroke-linejoin="round" stroke-miterlimit="10" stroke-width="1.5"/>
    </g>
    <g id="Grupo_1201246" data-name="Grupo 1201246" transform="translate(23.586 34.499)">
      <circle id="Elipse_11521" data-name="Elipse 11521" cx="12.044" cy="12.044" r="12.044" transform="translate(0 0)" fill="#c8effe"/>
      <path id="Trazado_1292390" data-name="Trazado 1292390" d="M269.882,274.007a12.051,12.051,0,0,1-13.8,11.918,12.045,12.045,0,0,0,0-23.834,12.051,12.051,0,0,1,13.8,11.917Z" transform="translate(-245.793 -261.962)" fill="#99e6fc"/>
      <path id="Trazado_1292391" data-name="Trazado 1292391" d="M293.991,263.973a11.989,11.989,0,0,1,1.753.474h0a12.084,12.084,0,0,1,6.457,5.416" transform="translate(-279.678 -263.759)" fill="none" stroke="#000" stroke-linecap="round" stroke-linejoin="round" stroke-miterlimit="10" stroke-width="1.5"/>
      <path id="Trazado_1292392" data-name="Trazado 1292392" d="M173.841,269.219a12.052,12.052,0,0,1,8.66-5.966" transform="translate(-172.276 -263.116)" fill="none" stroke="#000" stroke-linecap="round" stroke-linejoin="round" stroke-miterlimit="10" stroke-width="1.5"/>
    </g>
    <rect id="Rectángulo_412351" data-name="Rectángulo 412351" width="4.088" height="16.597" transform="translate(33.812 26.05)" fill="#62dbfb"/>
    <rect id="Rectángulo_412352" data-name="Rectángulo 412352" width="2.044" height="16.597" transform="translate(35.855 26.05)" fill="#01d0fb"/>
    <g id="Grupo_1201248" data-name="Grupo 1201248" transform="translate(42.453 26.473)">
      <line id="Línea_804" data-name="Línea 804" x1="3.135" y2="3.135" transform="translate(2.998 2.768)" fill="none" stroke="#000" stroke-linecap="round" stroke-linejoin="round" stroke-miterlimit="10" stroke-width="1.5"/>
      <g id="Grupo_1201247" data-name="Grupo 1201247">
        <line id="Línea_805" data-name="Línea 805" x1="1.597" y2="4.136" fill="none" stroke="#000" stroke-linecap="round" stroke-linejoin="round" stroke-miterlimit="10" stroke-width="1.5"/>
      </g>
    </g>
    <g id="Grupo_1201250" data-name="Grupo 1201250" transform="translate(23.469 26.473)">
      <line id="Línea_806" data-name="Línea 806" x2="3.135" y2="3.135" transform="translate(0 2.768)" fill="none" stroke="#000" stroke-linecap="round" stroke-linejoin="round" stroke-miterlimit="10" stroke-width="1.5"/>
      <g id="Grupo_1201249" data-name="Grupo 1201249" transform="translate(4.537)">
        <line id="Línea_807" data-name="Línea 807" x2="1.597" y2="4.136" fill="none" stroke="#000" stroke-linecap="round" stroke-linejoin="round" stroke-miterlimit="10" stroke-width="1.5"/>
      </g>
    </g>
    <path id="Trazado_1292393" data-name="Trazado 1292393" d="M79.458,346.415l-.709,3.115-1.727,7.591a4.831,4.831,0,0,1-4.71,3.759H39.048a4.831,4.831,0,0,1-4.71-3.759l-1.727-7.591-.709-3.115,23.778-2.583Z" transform="translate(-21.811 -300.646)" fill="#fead8a"/>
    <path id="Trazado_1292394" data-name="Trazado 1292394" d="M79.458,346.415l-.709,3.115H32.611l-.709-3.115,23.778-2.583Z" transform="translate(-21.811 -300.646)" fill="#fd9468"/>
    <path id="Trazado_1292395" data-name="Trazado 1292395" d="M243.061,346.4l-2.436,10.707a4.831,4.831,0,0,1-4.71,3.759H227.2a4.831,4.831,0,0,0,4.71-3.759l2.436-10.707-19.419-2.109,4.359-.473Z" transform="translate(-185.415 -300.636)" fill="#fd9468"/>
    <path id="Trazado_1292396" data-name="Trazado 1292396" d="M56.865,225.864h-6.1a1.353,1.353,0,0,0-1.353,1.353v11.825h8.808V227.217A1.353,1.353,0,0,0,56.865,225.864Z" transform="translate(-37.461 -195.195)" fill="#f9f3f1"/>
    <path id="Trazado_1292397" data-name="Trazado 1292397" d="M94.932,227.219v11.825h-3.1V227.219a1.353,1.353,0,0,0-1.353-1.353h3.1A1.353,1.353,0,0,1,94.932,227.219Z" transform="translate(-74.175 -195.196)" fill="#f3eae6"/>
    <path id="Trazado_1292398" data-name="Trazado 1292398" d="M56.865,225.864h-6.1a1.353,1.353,0,0,0-1.353,1.353V235.8h8.808v-8.581A1.353,1.353,0,0,0,56.865,225.864Z" transform="translate(-37.461 -195.195)" fill="none" stroke="#000" stroke-linecap="round" stroke-linejoin="round" stroke-miterlimit="10" stroke-width="1.5"/>
    <path id="Trazado_1292399" data-name="Trazado 1292399" d="M248.444,124.039h-7.08l1.418-4.632h4.244Z" transform="translate(-209.048 -100.033)" fill="#f3eae6"/>
    <path id="Trazado_1292400" data-name="Trazado 1292400" d="M248.444,124.039h-7.08l1.418-4.632h4.244Z" transform="translate(-209.048 -100.033)" fill="none" stroke="#000" stroke-linecap="round" stroke-linejoin="round" stroke-miterlimit="10" stroke-width="1.5"/>
    <path id="Trazado_1292401" data-name="Trazado 1292401" d="M248.444,163.065v3.183a.905.905,0,0,1-.905.905h-5.269a.905.905,0,0,1-.905-.905v-3.183Z" transform="translate(-209.048 -139.059)" fill="#f9f3f1"/>
    <path id="Trazado_1292402" data-name="Trazado 1292402" d="M276.166,163.062v3.183a.905.905,0,0,1-.905.905h-2.884a.905.905,0,0,0,.906-.905v-3.183Z" transform="translate(-236.771 -139.056)" fill="#f3eae6"/>
    <path id="Trazado_1292403" data-name="Trazado 1292403" d="M248.444,163.065v3.183a.905.905,0,0,1-.905.905h-5.269a.905.905,0,0,1-.905-.905v-3.183Z" transform="translate(-209.048 -139.059)" fill="none" stroke="#000" stroke-linecap="round" stroke-linejoin="round" stroke-miterlimit="10" stroke-width="1.5"/>
    <rect id="Rectángulo_412353" data-name="Rectángulo 412353" width="4.088" height="12.509" transform="translate(33.812 28.094)" fill="none" stroke="#000" stroke-linecap="round" stroke-linejoin="round" stroke-miterlimit="10" stroke-width="1.5"/>
    <path id="Trazado_1292404" data-name="Trazado 1292404" d="M59.6,324.651H8.134a.632.632,0,0,1-.632-.632v-3.9a.632.632,0,0,1,.632-.632H59.6a.632.632,0,0,1,.632.632v3.9A.632.632,0,0,1,59.6,324.651Z" transform="translate(0 -278.883)" fill="#fead8a"/>
    <path id="Trazado_1292405" data-name="Trazado 1292405" d="M443.5,320.118v3.9a.631.631,0,0,1-.631.631H436.26a.631.631,0,0,0,.631-.631v-3.9a.631.631,0,0,0-.631-.631h6.609A.631.631,0,0,1,443.5,320.118Z" transform="translate(-383.265 -278.884)" fill="#fd9468"/>
    <path id="Trazado_1292406" data-name="Trazado 1292406" d="M59.6,324.651H8.134a.632.632,0,0,1-.632-.632v-3.9a.632.632,0,0,1,.632-.632H59.6a.632.632,0,0,1,.632.632v3.9A.632.632,0,0,1,59.6,324.651Z" transform="translate(0 -278.883)" fill="none" stroke="#000" stroke-linecap="round" stroke-linejoin="round" stroke-miterlimit="10" stroke-width="1.5"/>
    <path id="Trazado_1292407" data-name="Trazado 1292407" d="M31.9,368.172l2.436,10.706a4.831,4.831,0,0,0,4.71,3.759h7.511" transform="translate(-21.81 -322.403)" fill="none" stroke="#000" stroke-linecap="round" stroke-linejoin="round" stroke-miterlimit="10" stroke-width="1.5"/>
    <path id="Trazado_1292408" data-name="Trazado 1292408" d="M205.041,382.637H227.08a4.831,4.831,0,0,0,4.71-3.759l2.436-10.706" transform="translate(-176.579 -322.403)" fill="none" stroke="#000" stroke-linecap="round" stroke-linejoin="round" stroke-miterlimit="10" stroke-width="1.5"/>
  </g>
</svg>
