<svg xmlns="http://www.w3.org/2000/svg" xmlns:xlink="http://www.w3.org/1999/xlink" width="190" height="133.045" viewBox="0 0 190 133.045">
  <defs>
    <clipPath id="clip-path">
      <path id="path11562" d="M93.271-682.665H0v93.272H93.271Z" transform="translate(0 682.665)"/>
    </clipPath>
  </defs>
  <g id="Grupo_1202490" data-name="Grupo 1202490" transform="translate(-180 -815)">
    <rect id="Rectángulo_402627" data-name="Rectángulo 402627" width="190" height="133.045" transform="translate(180 815)" fill="#e9ece8"/>
    <g id="Grupo_1200287" data-name="Grupo 1200287" transform="translate(228.363 834.965)">
      <g id="g11556" transform="translate(0)">
        <g id="g11558">
          <g id="g11560" clip-path="url(#clip-path)">
            <g id="g11566" transform="translate(2.482 91.906)">
              <path id="path11568" d="M88.307,0H0" fill="none" stroke="#000" stroke-linecap="round" stroke-miterlimit="10" stroke-width="1.2"/>
            </g>
            <g id="g11570" transform="translate(49.196 75.832)">
              <path id="path11572" d="M-44.677,0l6.1,16.074" transform="translate(44.677)" fill="none" stroke="#000" stroke-miterlimit="10" stroke-width="1.2"/>
            </g>
            <g id="g11574" transform="translate(38.819 69.524)">
              <path id="path11576" d="M-112.505-64.473l-6.884-10.2h23.2l-6.884,10.2a5.687,5.687,0,0,1-9.428,0" transform="translate(119.389 74.676)" fill="#f6a96c"/>
            </g>
            <g id="g11578" transform="translate(47.646 69.524)">
              <path id="path11580" d="M-89-64.473l6.884-10.2h5.542l-6.884,10.2a5.69,5.69,0,0,1-7.485,1.789A5.649,5.649,0,0,0-89-64.473" transform="translate(90.948 74.676)" fill="#ea9b58"/>
            </g>
            <g id="g11582" transform="translate(38.819 69.524)">
              <path id="path11584" d="M-112.505-64.473l-6.884-10.2h23.2l-6.884,10.2A5.687,5.687,0,0,1-112.505-64.473Z" transform="translate(119.389 74.676)" fill="none" stroke="#000" stroke-linecap="round" stroke-miterlimit="10" stroke-width="1.2"/>
            </g>
            <g id="g11586" transform="translate(39.023 75.832)">
              <path id="path11588" d="M-44.677,0l6.1,16.074" transform="translate(44.677)" fill="none" stroke="#000" stroke-miterlimit="10" stroke-width="1.2"/>
            </g>
            <g id="g11590" transform="translate(28.646 69.524)">
              <path id="path11592" d="M-112.5-64.473l-6.884-10.2h23.2l-6.884,10.2a5.687,5.687,0,0,1-9.428,0" transform="translate(119.388 74.676)" fill="#f6a96c"/>
            </g>
            <g id="g11594" transform="translate(37.458 69.524)">
              <path id="path11596" d="M-89.223-64.473l6.884-10.2h5.57l-6.884,10.2a5.69,5.69,0,0,1-7.5,1.781,5.65,5.65,0,0,0,1.929-1.781" transform="translate(91.152 74.676)" fill="#ea9b58"/>
            </g>
            <g id="g11598" transform="translate(28.646 69.524)">
              <path id="path11600" d="M-112.5-64.473l-6.884-10.2h23.2l-6.884,10.2A5.687,5.687,0,0,1-112.5-64.473Z" transform="translate(119.388 74.676)" fill="none" stroke="#000" stroke-linecap="round" stroke-miterlimit="10" stroke-width="1.2"/>
            </g>
            <g id="g11602" transform="translate(54.283 1.366)">
              <path id="path11604" d="M-137.023-42.137a5.67,5.67,0,0,1,.548-3.577,5.7,5.7,0,0,1,7.673-2.459,5.681,5.681,0,0,1,1.626,1.252,5.7,5.7,0,0,1,6.377-.8,5.7,5.7,0,0,1,2.459,7.673,5.7,5.7,0,0,1-7.673,2.459,5.688,5.688,0,0,1-1.626-1.252,5.708,5.708,0,0,1-2.418,1.262A5.67,5.67,0,0,1-130.605-34a5.7,5.7,0,0,1-7.673,2.459,5.7,5.7,0,0,1-2.459-7.673,5.682,5.682,0,0,1,3.714-2.926" transform="translate(141.369 48.806)" fill="#fd9a01"/>
            </g>
            <g id="g11606" transform="translate(69.427 1.825)">
              <path id="path11608" d="M-43.694-52.471a5.7,5.7,0,0,0-2.241-7.553,5.686,5.686,0,0,1,5.426-.119,5.7,5.7,0,0,1,2.459,7.673,5.7,5.7,0,0,1-7.673,2.459c-.072-.037-.14-.081-.21-.12a5.671,5.671,0,0,0,2.239-2.339" transform="translate(45.936 60.775)" fill="#fb8801"/>
            </g>
            <g id="g11610" transform="translate(54.283 1.366)">
              <path id="path11612" d="M-137.023-42.137a5.67,5.67,0,0,1,.548-3.577,5.7,5.7,0,0,1,7.673-2.459,5.681,5.681,0,0,1,1.626,1.252,5.7,5.7,0,0,1,6.377-.8,5.7,5.7,0,0,1,2.459,7.673,5.7,5.7,0,0,1-7.673,2.459,5.688,5.688,0,0,1-1.626-1.252,5.708,5.708,0,0,1-2.418,1.262A5.67,5.67,0,0,1-130.605-34a5.7,5.7,0,0,1-7.673,2.459,5.7,5.7,0,0,1-2.459-7.673A5.682,5.682,0,0,1-137.023-42.137Z" transform="translate(141.369 48.806)" fill="none" stroke="#000" stroke-linecap="round" stroke-linejoin="round" stroke-miterlimit="10" stroke-width="1.2"/>
            </g>
            <g id="g11614" transform="translate(77.169 17.231)">
              <path id="path11616" d="M-64.917-60.667l8.35-3.978a.911.911,0,0,0,0-1.645l-8.35-3.978Z" transform="translate(64.917 70.268)" fill="#fd9a01"/>
            </g>
            <g id="g11618" transform="translate(77.169 17.231)">
              <path id="path11620" d="M-64.917-60.667l8.35-3.978a.911.911,0,0,0,0-1.645l-8.35-3.978Z" transform="translate(64.917 70.268)" fill="none" stroke="#000" stroke-linecap="round" stroke-linejoin="round" stroke-miterlimit="10" stroke-width="1.2"/>
            </g>
            <g id="g11622" transform="translate(10.718 8.685)">
              <path id="path11624" d="M-339.521-249.438a34.07,34.07,0,0,0,6.226-.571,30.023,30.023,0,0,0,24.4-29.582v-.006a9.261,9.261,0,0,1,8.616-9.3,9.181,9.181,0,0,1,9.7,9.141v22.593a34.071,34.071,0,0,1-33.91,34.176,33.883,33.883,0,0,1-33.659-30.3.912.912,0,0,1,1.379-.87,33.715,33.715,0,0,0,17.256,4.72" transform="translate(358.16 288.912)" fill="#fed2a4"/>
            </g>
            <g id="g11626" transform="translate(41.599 8.685)">
              <path id="path11628" d="M-10.038-200.626V-223.22a9.192,9.192,0,0,0-6.345-8.711,8.946,8.946,0,0,1,2.266-.43,9.181,9.181,0,0,1,9.7,9.141v22.593a34.071,34.071,0,0,1-33.911,34.176c-.937,0-1.865-.042-2.783-.118a34.11,34.11,0,0,0,31.076-34.058" transform="translate(41.115 232.376)" fill="#ffbd86"/>
            </g>
            <g id="g11630" transform="translate(10.718 8.685)">
              <path id="path11632" d="M-466.985-297.371a33.653,33.653,0,0,1-3.313-11.435.912.912,0,0,1,1.379-.87,33.714,33.714,0,0,0,17.256,4.72,34.071,34.071,0,0,0,6.226-.571,30.023,30.023,0,0,0,24.4-29.582v-.006a9.261,9.261,0,0,1,8.617-9.3,9.181,9.181,0,0,1,9.7,9.14v22.593A34.071,34.071,0,0,1-436.639-278.5a33.824,33.824,0,0,1-26.959-13.4" transform="translate(470.303 344.43)" fill="none" stroke="#000" stroke-linecap="round" stroke-linejoin="round" stroke-miterlimit="10" stroke-width="1.2"/>
            </g>
            <g id="g11634" transform="translate(20.039 38.438)">
              <path id="path11636" d="M-2.27,0A5.47,5.47,0,0,1,2.886,7.281a22.086,22.086,0,0,1-20.848,14.8A22.078,22.078,0,0,1-40.018.942.909.909,0,0,1-39.107,0Z" transform="translate(40.019)" fill="#fd9a01"/>
            </g>
            <g id="g11638" transform="translate(37.901 38.438)">
              <path id="path11640" d="M-46.951-46.012a5.47,5.47,0,0,0-5.156-7.281h8.38a5.47,5.47,0,0,1,5.156,7.281,22.086,22.086,0,0,1-20.848,14.8,22.183,22.183,0,0,1-4.2-.4,22.11,22.11,0,0,0,16.663-14.4" transform="translate(63.614 53.293)" fill="#fb8801"/>
            </g>
            <g id="g11642" transform="translate(20.039 38.438)">
              <path id="path11644" d="M-105.657,0h12.428a5.47,5.47,0,0,1,5.156,7.281,22.086,22.086,0,0,1-20.848,14.8A22.078,22.078,0,0,1-130.977.942.909.909,0,0,1-130.066,0h18.034" transform="translate(130.978)" fill="none" stroke="#000" stroke-linecap="round" stroke-miterlimit="10" stroke-width="1.2"/>
            </g>
            <g id="g11646" transform="translate(70.924 17.188)">
              <path id="path11648" d="M-20-8.634a1.366,1.366,0,0,0,1.366,1.366,1.366,1.366,0,0,0,1.366-1.366A1.366,1.366,0,0,0-18.634-10,1.366,1.366,0,0,0-20-8.634" transform="translate(20 10)"/>
            </g>
            <g id="g11650" transform="translate(78.217 59.35)">
              <path id="path11652" d="M-26.063,0c2.481,6.887,4.125,18.894,4.125,32.556h-8.249c0-13.662,1.643-25.669,4.125-32.556" transform="translate(30.188)" fill="#a2e62e"/>
            </g>
            <g id="g11654" transform="translate(80.943 59.35)">
              <path id="path11656" d="M-28.79,0c2.481,6.887,4.125,18.894,4.125,32.556h-2.8c0-10.89-1.045-20.726-2.725-27.758A45.5,45.5,0,0,1-28.79,0" transform="translate(30.189)" fill="#97d729"/>
            </g>
            <g id="g11658" transform="translate(78.217 59.35)">
              <path id="path11660" d="M-26.063,0c2.481,6.887,4.125,18.894,4.125,32.556h-8.249C-30.188,18.894-28.545,6.887-26.063,0Z" transform="translate(30.188)" fill="none" stroke="#000" stroke-linecap="round" stroke-linejoin="round" stroke-miterlimit="10" stroke-width="1.2"/>
            </g>
            <g id="g11662" transform="translate(71.219 69.073)">
              <path id="path11664" d="M-26.063,0c2.481,4.83,4.125,13.251,4.125,22.833h-8.249c0-9.582,1.643-18,4.125-22.833" transform="translate(30.188)" fill="#a2e62e"/>
            </g>
            <g id="g11666" transform="translate(73.957 69.073)">
              <path id="path11668" d="M-28.8,0c2.481,4.83,4.125,13.251,4.125,22.833h-2.774a62.927,62.927,0,0,0-2.737-19.5A25.135,25.135,0,0,1-28.8,0" transform="translate(30.188)" fill="#97d729"/>
            </g>
            <g id="g11670" transform="translate(71.219 69.073)">
              <path id="path11672" d="M-26.063,0c2.481,4.83,4.125,13.251,4.125,22.833h-8.249C-30.188,13.251-28.545,4.83-26.063,0Z" transform="translate(30.188)" fill="none" stroke="#000" stroke-linecap="round" stroke-linejoin="round" stroke-miterlimit="10" stroke-width="1.2"/>
            </g>
            <g id="g11674" transform="translate(64.253 59.351)">
              <path id="path11676" d="M-26.062,0c2.481,6.887,4.124,18.894,4.124,32.555h-8.249c0-13.661,1.643-25.668,4.125-32.555h0" transform="translate(30.187 0.002)" fill="#a2e62e"/>
            </g>
            <g id="g11678" transform="translate(66.947 59.351)">
              <path id="path11680" d="M-28.758,0h0c2.481,6.887,4.124,18.894,4.124,32.555H-27.5c0-10.822-1.032-20.6-2.694-27.625A45.846,45.846,0,0,1-28.758,0" transform="translate(30.189 0.002)" fill="#97d729"/>
            </g>
            <g id="g11682" transform="translate(64.253 59.351)">
              <path id="path11684" d="M-55.384-117.656c.69-7.7,1.935-14.209,3.524-18.619h0c2.481,6.887,4.124,18.894,4.124,32.555h-8.249c0-2.587.059-5.115.171-7.56" transform="translate(55.984 136.275)" fill="none" stroke="#000" stroke-linecap="round" stroke-linejoin="round" stroke-miterlimit="10" stroke-width="1.2"/>
            </g>
            <g id="g11686" transform="translate(19.99 59.35)">
              <path id="path11688" d="M-26.063,0c2.481,6.887,4.125,18.894,4.125,32.556h-8.249c0-13.662,1.643-25.669,4.125-32.556" transform="translate(30.188)" fill="#a2e62e"/>
            </g>
            <g id="g11690" transform="translate(22.747 59.35)">
              <path id="path11692" d="M-28.822,0C-26.341,6.887-24.7,18.894-24.7,32.556h-2.735c0-10.959-1.058-20.85-2.757-27.891A45.19,45.19,0,0,1-28.822,0" transform="translate(30.189)" fill="#97d729"/>
            </g>
            <g id="g11694" transform="translate(19.99 59.35)">
              <path id="path11696" d="M-26.063,0c2.481,6.887,4.125,18.894,4.125,32.556h-8.249C-30.188,18.894-28.545,6.887-26.063,0Z" transform="translate(30.188)" fill="none" stroke="#000" stroke-linecap="round" stroke-linejoin="round" stroke-miterlimit="10" stroke-width="1.2"/>
            </g>
            <g id="g11698" transform="translate(12.992 69.073)">
              <path id="path11700" d="M-26.065,0c2.481,4.83,4.125,13.251,4.125,22.833h-8.249c0-9.582,1.643-18,4.125-22.833" transform="translate(30.189)" fill="#a2e62e"/>
            </g>
            <g id="g11702" transform="translate(15.721 69.073)">
              <path id="path11704" d="M-28.794,0c2.481,4.83,4.125,13.251,4.125,22.833h-2.79a62.975,62.975,0,0,0-2.729-19.48A25.183,25.183,0,0,1-28.794,0" transform="translate(30.189)" fill="#97d729"/>
            </g>
            <g id="g11706" transform="translate(12.992 69.073)">
              <path id="path11708" d="M-26.065,0c2.481,4.83,4.125,13.251,4.125,22.833h-8.249C-30.189,13.251-28.546,4.83-26.065,0Z" transform="translate(30.189)" fill="none" stroke="#000" stroke-linecap="round" stroke-linejoin="round" stroke-miterlimit="10" stroke-width="1.2"/>
            </g>
            <g id="g11710" transform="translate(6.026 59.351)">
              <path id="path11712" d="M-26.062,0c2.481,6.887,4.124,18.894,4.124,32.555h-8.249c0-13.661,1.643-25.668,4.124-32.555Z" transform="translate(30.187)" fill="#a2e62e"/>
            </g>
            <g id="g11714" transform="translate(8.777 59.351)">
              <path id="path11716" d="M-28.817,0h0c2.481,6.887,4.124,18.894,4.124,32.555h-2.747c0-10.946-1.055-20.827-2.751-27.866A45.208,45.208,0,0,1-28.817,0" transform="translate(30.191)" fill="#97d729"/>
            </g>
            <g id="g11718" transform="translate(6.026 59.351)">
              <path id="path11720" d="M-26.062,0c2.481,6.887,4.124,18.894,4.124,32.555h-8.249c0-13.661,1.643-25.668,4.124-32.555Z" transform="translate(30.187)" fill="none" stroke="#000" stroke-linecap="round" stroke-linejoin="round" stroke-miterlimit="10" stroke-width="1.2"/>
            </g>
            <g id="g11722" transform="translate(21.314 44.632)">
              <path id="path11724" d="M12.388,0H0" transform="translate(0)" fill="none" stroke="#000" stroke-linecap="round" stroke-miterlimit="10" stroke-width="1.2"/>
            </g>
            <g id="g11726" transform="translate(23.864 50.644)">
              <path id="path11728" d="M10.748,0H0" transform="translate(0)" fill="none" stroke="#000" stroke-linecap="round" stroke-miterlimit="10" stroke-width="1.2"/>
            </g>
          </g>
        </g>
      </g>
    </g>
  </g>
</svg>
