<svg xmlns="http://www.w3.org/2000/svg" width="60.313" height="63.642" viewBox="0 0 60.313 63.642">
  <g id="chicken_3061655" transform="translate(0)">
    <g id="Grupo_1200221" data-name="Grupo 1200221" transform="translate(6.333 23.628)">
      <path id="Trazado_1241270" data-name="Trazado 1241270" d="M129.963,217.819c-1.506-.327-2.243-.893-4.8-.893-3.591,0-3.591,1.119-7.181,1.119a11.851,11.851,0,0,1-1.931-.14,20.523,20.523,0,0,1-14.711-19.681v-6.908a1.221,1.221,0,0,1,1.8-1.078,29.078,29.078,0,0,0,13.953,3.566h12.913l1.387.951a1.787,1.787,0,0,0,2.021,0l.376-.258a1.787,1.787,0,0,1,2.022,0l.375.257a1.787,1.787,0,0,0,2.022,0l.375-.257a1.787,1.787,0,0,1,2.022,0l.374.257a1.787,1.787,0,0,0,2.022,0l1.386-.951v4.419A20.523,20.523,0,0,1,129.963,217.819Z" transform="translate(-101.342 -190.088)" fill="#e7a561"/>
    </g>
    <g id="Grupo_1200222" data-name="Grupo 1200222" transform="translate(34.998 9.101)">
      <path id="Trazado_1241271" data-name="Trazado 1241271" d="M101.342,91.462l1.387.951a1.787,1.787,0,0,0,2.021,0l.376-.258a1.787,1.787,0,0,1,2.022,0l.375.257a1.787,1.787,0,0,0,2.022,0l.375-.257a1.787,1.787,0,0,1,2.022,0l.374.257a1.787,1.787,0,0,0,2.022,0l1.386-.951V79.257a6.037,6.037,0,0,0-6.037-6.037,8.345,8.345,0,0,0-8.345,8.345v9.9Z" transform="translate(-101.342 -73.22)" fill="#e7a561"/>
    </g>
    <g id="Grupo_1200223" data-name="Grupo 1200223" transform="translate(6.333 23.628)">
      <path id="Trazado_1241272" data-name="Trazado 1241272" d="M175.133,190.236a29.108,29.108,0,0,0,3.173,1.494v4.006a20.523,20.523,0,0,0,14.711,19.681,11.853,11.853,0,0,0,1.931.14c3.591,0,3.591-1.119,7.181-1.119,2.555,0,3.292.566,4.8.893q.254-.079.506-.164a20.43,20.43,0,0,1-5.478,2.65c-1.506-.327-2.243-.893-4.8-.893-3.591,0-3.591,1.119-7.181,1.119a11.845,11.845,0,0,1-1.931-.14,20.523,20.523,0,0,1-14.711-19.681v-6.908A1.221,1.221,0,0,1,175.133,190.236Z" transform="translate(-173.334 -190.087)" fill="#e49542"/>
    </g>
    <g id="Grupo_1200224" data-name="Grupo 1200224" transform="translate(34.998 9.164)">
      <path id="Trazado_1241273" data-name="Trazado 1241273" d="M108.654,73.728a8.318,8.318,0,0,0-2.341,5.8v8.215a3.193,3.193,0,0,0,1.387,2.633,1.787,1.787,0,0,0,2.021,0l.376-.258a1.787,1.787,0,0,1,2.022,0l.374.257a1.787,1.787,0,0,0,2.022,0l.375-.257a1.784,1.784,0,0,1,.832-.3v2.1l-1.386.951a1.787,1.787,0,0,1-2.022,0l-.374-.257a1.787,1.787,0,0,0-2.022,0l-.375.257a1.787,1.787,0,0,1-2.022,0l-.375-.257a1.787,1.787,0,0,0-2.022,0l-.376.258a1.787,1.787,0,0,1-2.021,0l-1.387-.951v-9.9a8.347,8.347,0,0,1,7.313-8.282Z" transform="translate(-101.341 -73.728)" fill="#e49542"/>
    </g>
    <g id="Grupo_1200225" data-name="Grupo 1200225" transform="translate(49.38 16.664)">
      <path id="Trazado_1241274" data-name="Trazado 1241274" d="M68.63,138.664H64.361v-4.6h.755a3.842,3.842,0,0,1,3.842,3.842v.427A.328.328,0,0,1,68.63,138.664Z" transform="translate(-64.361 -134.067)" fill="#ffe07d"/>
    </g>
    <g id="Grupo_1200226" data-name="Grupo 1200226" transform="translate(14.314 31.454)">
      <path id="Trazado_1241275" data-name="Trazado 1241275" d="M208.117,268.865h1.645a7.9,7.9,0,0,0,0-15.81h-13.8a1.827,1.827,0,0,0-1.827,1.827A13.982,13.982,0,0,0,208.117,268.865Z" transform="translate(-194.135 -253.055)" fill="#efc89d"/>
    </g>
    <g id="Grupo_1200227" data-name="Grupo 1200227" transform="translate(49.38 21.261)">
      <path id="Trazado_1241276" data-name="Trazado 1241276" d="M70.336,178.055A2.053,2.053,0,0,1,68.283,176v-4.955l3.5,3.5A2.052,2.052,0,0,1,70.336,178.055Z" transform="translate(-68.283 -171.047)" fill="#e28086"/>
    </g>
    <g id="Grupo_1200228" data-name="Grupo 1200228" transform="translate(35.147 0.932)">
      <path id="Trazado_1241277" data-name="Trazado 1241277" d="M88.375,18.347a6.031,6.031,0,0,0-5.015-2.676,8.325,8.325,0,0,0-2.989.551l-.956-.256A5.734,5.734,0,0,1,75.36,8.943L75.613,8a.673.673,0,0,1,.825-.476L83.12,9.316a3.674,3.674,0,0,1,1.813,1.123,2.619,2.619,0,0,0,2.826.772,3.691,3.691,0,1,1,.617,7.136Z" transform="translate(-75.164 -7.502)" fill="#e28086"/>
    </g>
    <g id="Grupo_1200229" data-name="Grupo 1200229" transform="translate(1.719 50.465)">
      <path id="Trazado_1241278" data-name="Trazado 1241278" d="M27.265,407.249a.956.956,0,0,1,1.02-1.189c2.325.235,2.764,1.057,5.843,1.057,3.591,0,3.591-1.119,7.182-1.119s3.591,1.119,7.181,1.119S52.082,406,55.673,406s3.59,1.119,7.181,1.119S66.444,406,70.035,406s3.591,1.119,7.181,1.119c3.078,0,3.517-.822,5.842-1.057a.956.956,0,0,1,1.02,1.189l-1.2,4.712a8.348,8.348,0,0,1-8.088,6.281H36.557a8.347,8.347,0,0,1-8.088-6.281Z" transform="translate(-27.235 -405.998)" fill="#b78b7a"/>
    </g>
    <g id="Grupo_1200230" data-name="Grupo 1200230" transform="translate(1.719 50.522)">
      <path id="Trazado_1241279" data-name="Trazado 1241279" d="M54.966,406.46c1.949.2,2.573.807,4.539,1l.618,2.417a8.348,8.348,0,0,0,8.088,6.281h38.228a8.362,8.362,0,0,0,1.034-.064,8.342,8.342,0,0,1-6.006,2.55H63.238a8.348,8.348,0,0,1-8.088-6.281l-1.2-4.712A.956.956,0,0,1,54.966,406.46Z" transform="translate(-53.916 -406.455)" fill="#aa7a63"/>
    </g>
    <path id="Trazado_1241280" data-name="Trazado 1241280" d="M203.195,247.419h-.617a.932.932,0,0,1,0-1.865h.617a8.837,8.837,0,0,1,0,17.674H201.55a14.931,14.931,0,0,1-14.915-14.915,2.763,2.763,0,0,1,2.759-2.76h8.833a.932.932,0,0,1,0,1.865h-1.3a4.855,4.855,0,0,0,4.735,5.867.932.932,0,0,1,0,1.864,6.714,6.714,0,0,1-6.626-7.731h-1.9a8.6,8.6,0,0,0,8.528,9.618h1.531a.932.932,0,0,1,0,1.864h-1.531a10.462,10.462,0,0,1-10.4-11.482h-1.866a.9.9,0,0,0-.895.9,13.065,13.065,0,0,0,13.05,13.05h1.645a6.973,6.973,0,0,0,0-13.945Z" transform="translate(-173.254 -215.032)"/>
    <path id="Trazado_1241281" data-name="Trazado 1241281" d="M14.315,56.915a6.792,6.792,0,0,0,1.162-.089c-.036-.132-.257-1-1.248-4.878A1.889,1.889,0,0,1,16.245,49.6c2.492.251,2.819,1.052,5.749,1.052,3.138,0,3.324-.924,6.275-1.094a21.364,21.364,0,0,1-9.485-17.795V24.856a2.153,2.153,0,0,1,3.179-1.9,28.227,28.227,0,0,0,13.506,3.452h11.98V24.8a.932.932,0,1,1,1.864,0v2.051l.982.674a.86.86,0,0,0,.967,0l.376-.258a2.736,2.736,0,0,1,3.076,0l.375.257a.86.86,0,0,0,.967,0l.375-.257a2.736,2.736,0,0,1,3.077,0l.374.257a.86.86,0,0,0,.967,0l.981-.673V15.139a5.11,5.11,0,0,0-5.1-5.1,7.421,7.421,0,0,0-7.413,7.413V20.7a.932.932,0,1,1-1.864,0V17.448A9.273,9.273,0,0,1,51.38,9.87a6.667,6.667,0,0,1-3.553-7.737l.252-.942A1.607,1.607,0,0,1,50.046.056l6.683,1.791A4.6,4.6,0,0,1,59,3.254a1.693,1.693,0,0,0,1.822.507A4.593,4.593,0,0,1,63.7,3.72a4.626,4.626,0,0,1-.46,8.949,6.936,6.936,0,0,1,.452,2.47v.6a4.78,4.78,0,0,1,4.6,4.771v.427a1.262,1.262,0,0,1-1.26,1.26H65.014l1.912,1.912A2.985,2.985,0,0,1,63.7,28.984v2.78a21.314,21.314,0,0,1-3.863,12.283A.932.932,0,1,1,58.3,42.978a19.459,19.459,0,0,0,3.526-11.214V29.113a2.737,2.737,0,0,1-3-.049l-.374-.257a.86.86,0,0,0-.967,0l-.375.257a2.735,2.735,0,0,1-3.077,0l-.375-.257a.86.86,0,0,0-.967,0l-.376.258a2.736,2.736,0,0,1-3.076,0l-1.149-.788H35.469a30.1,30.1,0,0,1-14.4-3.681.266.266,0,0,0-.275.007.286.286,0,0,0-.145.253v6.908A19.689,19.689,0,0,0,34.63,50.534a11.013,11.013,0,0,0,1.728.12c3.354,0,3.455-1.119,7.181-1.119a14.065,14.065,0,0,1,4.76.859,19.688,19.688,0,0,0,7.221-4.231.932.932,0,0,1,1.264,1.371,21.553,21.553,0,0,1-4.078,2.955c1.57-.3,2.364-.954,5.2-.954,3.738,0,3.809,1.119,7.181,1.119,2.946,0,3.237-.8,5.748-1.052a1.889,1.889,0,0,1,2.017,2.347L72,55.266c.236-.018.49-.029.764-.029a.932.932,0,0,1,0,1.864,6.567,6.567,0,0,0-1.28.111,9.274,9.274,0,0,1-8.832,6.43H24.425a9.276,9.276,0,0,1-8.263-5.053,8.2,8.2,0,0,1-1.846.19.932.932,0,0,1,0-1.865ZM63.7,26.217a1.122,1.122,0,0,0,1.12,1.12,1.12,1.12,0,0,0,.792-1.912L63.7,23.513Zm0-5.887h2.727A2.914,2.914,0,0,0,63.7,17.6ZM65.032,8.674A2.78,2.78,0,0,0,63.15,5.5a2.743,2.743,0,0,0-1.72.023A3.552,3.552,0,0,1,57.6,4.486a2.746,2.746,0,0,0-1.354-.839L49.813,1.924l-.185.692a4.8,4.8,0,0,0,3.4,5.881l.674.181a9.24,9.24,0,0,1,3.029-.508,6.961,6.961,0,0,1,5.522,2.723,2.753,2.753,0,0,0,2.782-2.218Zm-49,42.812c1.654,6.472,1.084,4.239,1.207,4.723a7.332,7.332,0,0,1,3.3-.692c3.3,0,3.434,1.4,6.222,1.4s2.925-1.4,6.222-1.4a.932.932,0,1,1,0,1.864c-2.8,0-2.9,1.4-6.222,1.4s-3.415-1.4-6.222-1.4a5.54,5.54,0,0,0-2.608.563,7.412,7.412,0,0,0,6.495,3.834H62.652a7.411,7.411,0,0,0,6.392-3.655,7.516,7.516,0,0,1-2.5.377c-3.3,0-3.434-1.4-6.222-1.4S57.4,58.5,54.1,58.5a.932.932,0,0,1,0-1.864c2.8,0,2.9-1.4,6.222-1.4s3.415,1.4,6.222,1.4a7.176,7.176,0,0,0,3.416-.911l1.083-4.237a.021.021,0,0,0-.006-.023c-.007-.008-.009-.008-.017-.008-2.162.218-2.71,1.062-5.936,1.062-3.732,0-3.814-1.119-7.181-1.119s-3.455,1.119-7.181,1.119S46.912,51.4,43.54,51.4c-3.354,0-3.455,1.119-7.181,1.119S32.544,51.4,29.177,51.4s-3.455,1.119-7.182,1.119c-3.237,0-3.762-.842-5.937-1.062-.006,0-.01,0-.017.008a.021.021,0,0,0-.006.023Z" transform="translate(-13.383 -0.001)"/>
  </g>
</svg>
