<svg id="Layer_x0020_1" xmlns="http://www.w3.org/2000/svg" width="85" height="85" viewBox="0 0 85 85">
  <path id="Trazado_1241328" data-name="Trazado 1241328" d="M3.141,26.358s21.79,2.686,35.464.015l3.05-4-1.328-9.3-3.984-2.656a1.608,1.608,0,0,1-2.656,0c-1.328-1.66-2.656-6.64-2.656-6.64L28.375,2.453,24.39,5.109l-1.328,5.312H20.406L17.75,3.781,13.766,2.453,11.11,6.438,9.782,10.422H5.8L3.141,14.406,1.813,19.718l1.328,6.64Z" transform="translate(20.764 28.092)" fill="#ffeddf" fill-rule="evenodd"/>
  <g id="Grupo_1200366" data-name="Grupo 1200366" transform="translate(12.974 10.624)">
    <path id="Trazado_1241329" data-name="Trazado 1241329" d="M10.013,21.066a7.183,7.183,0,0,1-7.177-7.177,16.134,16.134,0,0,1,2.284-7.41c1.227-2.014,2.9-3.513,4.892-3.513s3.664,1.5,4.891,3.514a16.138,16.138,0,0,1,2.284,7.41,7.191,7.191,0,0,1-7.175,7.177ZM6.818,17.084a4.517,4.517,0,0,0,7.714-3.2,13.183,13.183,0,0,0-1.89-6.03c-.781-1.282-1.713-2.237-2.629-2.237s-1.849.955-2.63,2.237a13.18,13.18,0,0,0-1.89,6.03,4.507,4.507,0,0,0,1.326,3.2Z" transform="translate(19.507 23.324)" fill="#212121"/>
    <path id="Trazado_1241330" data-name="Trazado 1241330" d="M8.879,21.066A7.183,7.183,0,0,1,1.7,13.888a16.133,16.133,0,0,1,2.285-7.41c1.227-2.014,2.9-3.513,4.892-3.513s3.664,1.5,4.891,3.514a16.138,16.138,0,0,1,2.284,7.41,7.191,7.191,0,0,1-7.175,7.177Zm-3.2-3.982a4.517,4.517,0,0,0,7.714-3.2,13.183,13.183,0,0,0-1.89-6.03c-.781-1.282-1.713-2.237-2.629-2.237s-1.849.955-2.63,2.237a13.18,13.18,0,0,0-1.89,6.03,4.507,4.507,0,0,0,1.326,3.2Z" transform="translate(6.512 23.324)" fill="#212121"/>
    <path id="Trazado_1241331" data-name="Trazado 1241331" d="M11.148,21.066a7.183,7.183,0,0,1-7.177-7.177,16.133,16.133,0,0,1,2.285-7.41c1.227-2.014,2.9-3.513,4.892-3.513s3.664,1.5,4.891,3.514a16.138,16.138,0,0,1,2.284,7.41,7.191,7.191,0,0,1-7.175,7.177Zm-3.2-3.982a4.517,4.517,0,0,0,7.714-3.2,13.183,13.183,0,0,0-1.89-6.03C13,6.576,12.064,5.621,11.148,5.621S9.3,6.576,8.518,7.858a13.18,13.18,0,0,0-1.89,6.03,4.507,4.507,0,0,0,1.326,3.2Z" transform="translate(32.501 23.324)" fill="#212121"/>
    <path id="Trazado_1241332" data-name="Trazado 1241332" d="M10.046,18.919A6.778,6.778,0,0,1,8.3,18.679l-.7-.192-.215-.69a13.609,13.609,0,0,0-1.531-3.33,5.253,5.253,0,0,0-1.669-1.733l-.769-.427.095-.87a15.242,15.242,0,0,1,2.25-6.209c1.1-1.667,2.562-2.865,4.287-2.865,1.817,0,3.339,1.332,4.461,3.137a14.88,14.88,0,0,1,2.121,6.618l.018.616-.464.411a7.2,7.2,0,0,0-1.338,1.7,13.9,13.9,0,0,0-1.182,2.609L13,18.214a6.515,6.515,0,0,1-2.957.706Zm-.389-2.672q.178.016.389.016a3.93,3.93,0,0,0,.908-.105,4.045,4.045,0,0,0,.4-.116A16.157,16.157,0,0,1,12.561,13.5a10.629,10.629,0,0,1,1.379-1.862A12.434,12.434,0,0,0,12.255,6.9c-.673-1.082-1.457-1.881-2.209-1.881-.7,0-1.434.7-2.077,1.672a12.494,12.494,0,0,0-1.707,4.265,8.851,8.851,0,0,1,1.811,2.059,15.777,15.777,0,0,1,1.585,3.233Z" transform="translate(26.117 16.434)" fill="#212121"/>
    <path id="Trazado_1241333" data-name="Trazado 1241333" d="M8.951,18.919a6.52,6.52,0,0,1-2.959-.706l-.659-.757a13.9,13.9,0,0,0-1.182-2.609,7.2,7.2,0,0,0-1.338-1.7l-.464-.411.018-.616A14.875,14.875,0,0,1,4.489,5.5c1.122-1.8,2.644-3.136,4.462-3.136,1.725,0,3.183,1.2,4.286,2.865a15.245,15.245,0,0,1,2.25,6.209l.095.87-.769.427a5.253,5.253,0,0,0-1.669,1.733,13.606,13.606,0,0,0-1.531,3.33l-.215.69-.7.192a6.774,6.774,0,0,1-1.749.24Zm-.909-2.761a3.934,3.934,0,0,0,.909.105q.21,0,.387-.016a15.769,15.769,0,0,1,1.585-3.233,8.848,8.848,0,0,1,1.811-2.059,12.5,12.5,0,0,0-1.707-4.265c-.644-.973-1.376-1.672-2.076-1.672-.753,0-1.538.8-2.211,1.881a12.429,12.429,0,0,0-1.685,4.737A10.632,10.632,0,0,1,6.435,13.5a16.157,16.157,0,0,1,1.208,2.543,4.049,4.049,0,0,0,.4.116Z" transform="translate(13.926 16.434)" fill="#212121"/>
    <path id="Trazado_1241334" data-name="Trazado 1241334" d="M34.52,5.658l-.012-.038h0l0,0,1.341-.428.311-1.126a3.887,3.887,0,0,0,.515.105,4,4,0,0,0,.53.032,3.943,3.943,0,0,0,.87-.093,3.9,3.9,0,0,0,.821-.284l.659-.13.08.006,1.711.119L40.8,5.44a13.958,13.958,0,0,0-.474,1.794,8.064,8.064,0,0,0-.157,1.479,4.52,4.52,0,1,0,9.039,0,6.926,6.926,0,0,0-.067-.932c-.049-.359-.122-.74-.216-1.131l-.485-2.012,2.026.4a29.1,29.1,0,0,1,6.652,1.983c1.913.916,2.971,2.063,2.971,3.414,0,2.3-3.564,4.167-9.327,5.334a106.924,106.924,0,0,1-20.2,1.7,106.924,106.924,0,0,1-20.2-1.7C4.606,14.6,1.042,12.73,1.042,10.433c0-1.351,1.057-2.5,2.968-3.412a29.066,29.066,0,0,1,6.644-1.982l2.024-.4L12.2,6.647c-.093.386-.166.768-.216,1.135a6.928,6.928,0,0,0-.067.931,4.52,4.52,0,1,0,9.039,0,8.062,8.062,0,0,0-.157-1.478,13.962,13.962,0,0,0-.474-1.794l-.543-1.624,1.71-.119.081-.006.659.13a3.9,3.9,0,0,0,.821.284,3.948,3.948,0,0,0,.871.093,3.989,3.989,0,0,0,.529-.032,3.9,3.9,0,0,0,.514-.1L27.3,3.417l-.723,2.316a13.487,13.487,0,0,0-.4,1.637,7.828,7.828,0,0,0-.135,1.344,4.52,4.52,0,1,0,9.039,0,7.816,7.816,0,0,0-.136-1.343,13.524,13.524,0,0,0-.406-1.647l1.271-.4,0-.016-1.275.4,0-.006h0l-.015-.049h0Zm3.188,1.176-.158.011.011.058q.038.21.067.415Q37.662,7.081,37.707,6.835Zm1.911,6.952a7.166,7.166,0,0,1-1.993-3.811,7.166,7.166,0,0,1-1.992,3.806,7.262,7.262,0,0,1-1.217.98c2.075-.057,4.075-.161,5.974-.3a7.225,7.225,0,0,1-.772-.67ZM51.866,8.713a7.136,7.136,0,0,1-1.548,4.445c4.4-.9,7.116-1.874,7.116-2.725,0-.224-.518-.579-1.456-1.027a21.587,21.587,0,0,0-4.141-1.357c.02.236.029.459.029.665ZM20.728,14.455c1.9.144,3.9.248,5.971.305a7.2,7.2,0,0,1-3.2-4.785A7.166,7.166,0,0,1,21.5,13.781a7.266,7.266,0,0,1-.777.674ZM3.7,10.433c0,.85,2.711,1.827,7.1,2.722A7.144,7.144,0,0,1,9.256,8.713c0-.206.01-.427.029-.663A21.555,21.555,0,0,0,5.151,9.407c-.936.448-1.453.8-1.453,1.026Zm19.716-3.6q.046.248.081.487.029-.2.066-.408l.012-.068Z" transform="translate(-1.042 28.499)" fill="#212121"/>
    <path id="Trazado_1241335" data-name="Trazado 1241335" d="M58.6,5.647c-.429.537-.867,1.061-1.311,1.591-1.661,1.987-3.4,4.063-3.827,5.812a19.194,19.194,0,0,1-8.4,11.383A27.611,27.611,0,0,1,29.85,28.6a27.611,27.611,0,0,1-15.206-4.168,19.194,19.194,0,0,1-8.4-11.383C5.813,11.3,4.076,9.225,2.415,7.238c-.443-.53-.882-1.054-1.311-1.591L3.18,4c.391.489.827,1.011,1.269,1.539C6.3,7.751,8.236,10.065,8.815,12.428a16.548,16.548,0,0,0,7.272,9.785A24.994,24.994,0,0,0,29.85,25.945a24.994,24.994,0,0,0,13.763-3.732,16.548,16.548,0,0,0,7.272-9.785c.579-2.363,2.515-4.677,4.367-6.891.442-.528.878-1.05,1.269-1.539L58.6,5.647Z" transform="translate(-0.326 35.146)" fill="#212121"/>
    <path id="Trazado_1241336" data-name="Trazado 1241336" d="M1.042,40.689V30.377a29.524,29.524,0,0,1,59.048,0V40.689H57.434V30.377a26.868,26.868,0,0,0-53.735,0V40.689H1.042Z" transform="translate(-1.042 -0.853)" fill="#212121"/>
  </g>
  <path id="Trazado_1241337" data-name="Trazado 1241337" d="M0,0H85V85H0Z" fill="none" fill-rule="evenodd"/>
  <path id="Trazado_1241338" data-name="Trazado 1241338" d="M24.657,6.756a106.924,106.924,0,0,1-20.2-1.7c-1.042-.211-2.012-.445-2.9-.7A11.956,11.956,0,0,1,3.622,8.361a16.548,16.548,0,0,0,7.272,9.785,24.994,24.994,0,0,0,13.763,3.732,24.994,24.994,0,0,0,13.763-3.732,16.548,16.548,0,0,0,7.272-9.785,11.956,11.956,0,0,1,2.064-4.009c-.89.255-1.86.489-2.9.7a106.925,106.925,0,0,1-20.2,1.7Z" transform="translate(17.841 49.837)" fill="#ffd3b3" fill-rule="evenodd"/>
  <path id="Trazado_1241339" data-name="Trazado 1241339" d="M6.548,4.454A7.135,7.135,0,0,1,5,8.9a23.592,23.592,0,0,0,6.48-1.973c.151-.184.3-.364.439-.541l.1.077a.517.517,0,0,0,.1-.289c0-.224-.518-.579-1.456-1.027A21.587,21.587,0,0,0,6.52,3.789c.019.232.029.455.029.665Z" transform="translate(57.25 43.383)" fill="#b38e85" fill-rule="evenodd"/>
  <path id="Trazado_1241340" data-name="Trazado 1241340" d="M6.823,4.454A7.135,7.135,0,0,0,8.371,8.9a23.592,23.592,0,0,1-6.48-1.973c-.151-.184-.3-.364-.439-.541l-.1.077a.517.517,0,0,1-.1-.289c0-.224.518-.579,1.456-1.027a21.587,21.587,0,0,1,4.14-1.357c-.019.232-.029.455-.029.665Z" transform="translate(14.373 43.384)" fill="#b38e85" fill-rule="evenodd"/>
</svg>
