<svg id="Grupo_1200588" data-name="Grupo 1200588" xmlns="http://www.w3.org/2000/svg" width="82.001" height="82" viewBox="0 0 82.001 82">
  <g id="Grupo_1187152" data-name="Grupo 1187152" transform="translate(0)">
    <g id="Grupo_1185946" data-name="Grupo 1185946" transform="translate(0)">
      <g id="Grupo_1184280" data-name="Grupo 1184280" transform="translate(0)">
        <g id="Grupo_1182168" data-name="Grupo 1182168" transform="translate(0)">
          <g id="Grupo_1178877" data-name="Grupo 1178877" transform="translate(0)">
            <g id="Grupo_1111311" data-name="Grupo 1111311" transform="translate(0)">
              <g id="Grupo_1098742" data-name="Grupo 1098742" transform="translate(0)">
                <g id="Rect치ngulo_400898" data-name="Rect치ngulo 400898" transform="translate(0)" fill="#fff" stroke="#31532b" stroke-width="1" opacity="0.859">
                  <rect width="82.001" height="82.001" rx="41" stroke="none"/>
                  <rect x="0.5" y="0.5" width="81.001" height="81.001" rx="40.5" fill="none"/>
                </g>
                <g id="Rect치ngulo_400907" data-name="Rect치ngulo 400907" transform="translate(0)" fill="none" stroke="#31532b" stroke-width="1">
                  <rect width="82.001" height="82.001" rx="41" stroke="none"/>
                  <rect x="0.5" y="0.5" width="81.001" height="81.001" rx="40.5" fill="none"/>
                </g>
              </g>
            </g>
          </g>
        </g>
      </g>
    </g>
  </g>
  <g id="chicken_3397468" transform="translate(14.05 13.79)">
    <g id="Grupo_1200296" data-name="Grupo 1200296" transform="translate(1.053 0.863)">
      <g id="Grupo_1200288" data-name="Grupo 1200288" transform="translate(0 43.162)">
        <path id="Trazado_1241282" data-name="Trazado 1241282" d="M53.795,60.632H2a10.734,10.734,0,0,1,9.945-8.615A13.787,13.787,0,0,0,22.718,57.18h3.263a21.528,21.528,0,0,0,14-5.18h3.28A10.742,10.742,0,0,1,53.795,60.632Z" transform="translate(-2 -52)" fill="#cf9e76"/>
      </g>
      <g id="Grupo_1200289" data-name="Grupo 1200289" transform="translate(31.284 8.632)">
        <path id="Trazado_1241283" data-name="Trazado 1241283" d="M57.154,25.812a1.318,1.318,0,0,0-.259.026l-2.46.406,1.226-.613a5.608,5.608,0,0,0,3.09-5,1.732,1.732,0,0,0-1.726-1.726H55.117l.181-1.355a2.093,2.093,0,0,0-2.1-2.1,2.062,2.062,0,0,0-.932.224l-2.149,1.07v-.811a3.934,3.934,0,0,0-7.208-2.184l-.121.173a2.1,2.1,0,0,0-.9-.2,2.122,2.122,0,0,0-2.132,2.132v.216A44.749,44.749,0,0,1,38.24,27.642a20.505,20.505,0,0,1,10.35,4.049c.44.328.855.673,1.26,1.027h2.426a7.278,7.278,0,0,0,5.162-2.141,4.482,4.482,0,0,0,1.312-3.168,1.6,1.6,0,0,0-1.6-1.6Z" transform="translate(-38.24 -12)" fill="#fcd770"/>
      </g>
      <g id="Grupo_1200290" data-name="Grupo 1200290" transform="translate(6.906 30.991)">
        <path id="Trazado_1241284" data-name="Trazado 1241284" d="M27.075,55.251H23.812A13.8,13.8,0,0,1,10,41.439V39.385a3.629,3.629,0,0,0,4.532-1.295l.129-.19a10.036,10.036,0,0,1,.518,3.2v.337l.233-.095a8.153,8.153,0,0,0,3.876-3.237,3.645,3.645,0,0,0,5.179.9A15.534,15.534,0,0,0,39.35,50.072h1.727a21.528,21.528,0,0,1-14,5.18Z" transform="translate(-10 -37.9)" fill="#fcd770"/>
      </g>
      <g id="Grupo_1200291" data-name="Grupo 1200291" transform="translate(20.718 24.171)">
        <path id="Trazado_1241285" data-name="Trazado 1241285" d="M49.929,45.444l2.831,3.548H41.538A15.534,15.534,0,0,1,26,33.453V31.726l2.011-.673A20.6,20.6,0,0,1,34.52,30a20.04,20.04,0,0,1,2.046.1,20.505,20.505,0,0,1,10.35,4.049c.44.328.855.673,1.26,1.027a20.515,20.515,0,0,1,6.181,9.9l.129.458H51.241a9.486,9.486,0,0,1-1.312-.095Z" transform="translate(-26 -30)" fill="#ff826e"/>
      </g>
      <g id="Grupo_1200292" data-name="Grupo 1200292" transform="translate(4.748 6.906)">
        <path id="Trazado_1241286" data-name="Trazado 1241286" d="M18.947,34.292a8.153,8.153,0,0,1-3.876,3.237l-.233.095v-.337a10.036,10.036,0,0,0-.518-3.2l-.129.19a3.629,3.629,0,0,1-4.532,1.295A3.443,3.443,0,0,1,8.6,34.836l-1.1-1.1a7.369,7.369,0,0,0,2.158-5.214V15.18a5.16,5.16,0,0,1,2.521-4.437A5.068,5.068,0,0,1,14.838,10h3.453a5.068,5.068,0,0,1,2.659.742A5.16,5.16,0,0,1,23.47,15.18V30.718a15.6,15.6,0,0,0,.656,4.472,3.645,3.645,0,0,1-5.179-.9Z" transform="translate(-7.5 -10)" fill="#ffeaa7"/>
      </g>
      <g id="Grupo_1200293" data-name="Grupo 1200293" transform="translate(6.906)">
        <path id="Trazado_1241287" data-name="Trazado 1241287" d="M23.812,5.082a1.384,1.384,0,0,1-.19.691L21.3,9.64l-.009.009a5.068,5.068,0,0,0-2.659-.742H15.179a5.068,5.068,0,0,0-2.659.742l-.009-.009L10.19,5.772A1.384,1.384,0,0,1,10,5.082a1.352,1.352,0,0,1,1.355-1.355,5.238,5.238,0,0,1,2.339.552l.622.311.319-.95a2.391,2.391,0,0,1,4.541,0l.319.95.622-.311a5.238,5.238,0,0,1,2.339-.552A1.352,1.352,0,0,1,23.812,5.082Z" transform="translate(-10 -2)" fill="#ff826e"/>
      </g>
      <g id="Grupo_1200294" data-name="Grupo 1200294" transform="translate(10.359 18.646)">
        <path id="Trazado_1241288" data-name="Trazado 1241288" d="M19.179,23.945a1.7,1.7,0,0,0,1.027-.337,16.671,16.671,0,0,1,.7,4.791v.725a1.732,1.732,0,0,1-1.727,1.726,1.739,1.739,0,0,1-1.726-1.726V27.4A1.727,1.727,0,0,1,14,27.4a10.656,10.656,0,0,1,.544-3.367l.147-.432a1.737,1.737,0,0,0,1.036.345Z" transform="translate(-14 -23.6)" fill="#ff826e"/>
      </g>
      <g id="Grupo_1200295" data-name="Grupo 1200295" transform="translate(10.359 15.538)">
        <path id="Trazado_1241289" data-name="Trazado 1241289" d="M19.179,20a1.732,1.732,0,0,1,1.727,1.726,1.688,1.688,0,0,1-.509,1.217,1.8,1.8,0,0,1-.19.173,1.7,1.7,0,0,1-1.027.337H15.726A1.726,1.726,0,0,1,14,21.726,1.739,1.739,0,0,1,15.726,20Z" transform="translate(-14 -20)" fill="#fc6e51"/>
      </g>
    </g>
    <g id="Grupo_1200297" data-name="Grupo 1200297">
      <path id="Trazado_1241290" data-name="Trazado 1241290" d="M15.59,29.359a2.576,2.576,0,0,0,.963-.19,2.583,2.583,0,0,0,5.079-.673v-.723a17.684,17.684,0,0,0-.6-4.54A2.575,2.575,0,0,0,19.043,19H15.59A2.593,2.593,0,0,0,13,21.59a2.562,2.562,0,0,0,.572,1.6A11.483,11.483,0,0,0,13,26.769,2.593,2.593,0,0,0,15.59,29.359Zm4.316-.863a.863.863,0,1,1-1.726,0v-2.59H16.453v.863a.863.863,0,1,1-1.726,0,9.743,9.743,0,0,1,.371-2.64,2.571,2.571,0,0,0,.492.05h3.453a2.6,2.6,0,0,0,.437-.044,15.967,15.967,0,0,1,.426,3.637ZM15.59,20.726h3.453a.863.863,0,1,1,0,1.726H15.59a.863.863,0,1,1,0-1.726Z" transform="translate(-2.451 -3.462)"/>
      <circle id="Elipse_11498" data-name="Elipse 11498" cx="0.863" cy="0.863" r="0.863" transform="translate(15.728 12.085)"/>
      <circle id="Elipse_11499" data-name="Elipse 11499" cx="0.863" cy="0.863" r="0.863" transform="translate(12.275 12.085)"/>
      <path id="Trazado_1241291" data-name="Trazado 1241291" d="M41.284,41.811l1.807.6.546-1.637-1.808-.6A11.046,11.046,0,0,1,34.7,32.726l-1.66.474a12.768,12.768,0,0,0,8.246,8.611Z" transform="translate(-5.191 -5.339)"/>
      <path id="Trazado_1241292" data-name="Trazado 1241292" d="M50.26,41.776l.546-1.637a17.588,17.588,0,0,1-8.19-5.71l-.042-.054-1.305,1.133A19.3,19.3,0,0,0,50.26,41.776Z" transform="translate(-6.317 -5.564)"/>
      <path id="Trazado_1241293" data-name="Trazado 1241293" d="M38.609,46.654l.946.315.546-1.637-.946-.315a13.965,13.965,0,0,1-6.584-4.635l-1.357,1.067A15.675,15.675,0,0,0,38.609,46.654Z" transform="translate(-4.942 -6.385)"/>
      <path id="Trazado_1241294" data-name="Trazado 1241294" d="M21.6,50.445l-1.436.957a8.9,8.9,0,0,0,5.254,3.7l.433.109.42-1.674-.434-.109A7.176,7.176,0,0,1,21.6,50.445Z" transform="translate(-3.431 -7.762)"/>
      <path id="Trazado_1241295" data-name="Trazado 1241295" d="M17.2,48.706a5,5,0,0,1-1.474-3.557V45H14v.148a6.707,6.707,0,0,0,1.979,4.778Z" transform="translate(-2.588 -7.017)"/>
      <path id="Trazado_1241296" data-name="Trazado 1241296" d="M23.566,48.77l.364.182.772-1.544-.364-.182A4.7,4.7,0,0,1,21.726,43H20A6.418,6.418,0,0,0,23.566,48.77Z" transform="translate(-3.408 -6.744)"/>
      <path id="Trazado_1241297" data-name="Trazado 1241297" d="M54.474,53.489a11.6,11.6,0,0,0-5.321-7.6h1.954l-2.762-3.453h3.829l-.432-1.554a21.338,21.338,0,0,0-4.934-8.805h.343a8.108,8.108,0,0,0,5.773-2.392A5.313,5.313,0,0,0,54.491,25.9a2.48,2.48,0,0,0-1.769-2.351,6.407,6.407,0,0,0,1.769-4.422,2.593,2.593,0,0,0-2.59-2.59h-.887c.013-.164.024-.328.024-.495A2.958,2.958,0,0,0,46.757,13.4l-.934.467a4.791,4.791,0,0,0-8.489-2.447,3.036,3.036,0,0,0-.563-.059,3,3,0,0,0-3,3v.214a43.975,43.975,0,0,1-1.329,10.659c-.455-.029-.912-.058-1.373-.058a21.414,21.414,0,0,0-6.784,1.1l-.874.292V13.949a6.031,6.031,0,0,0-2.227-4.681L23.1,6.082a2.216,2.216,0,0,0-1.9-3.355,6.132,6.132,0,0,0-2.458.517l-.005-.015a3.258,3.258,0,0,0-6.183,0l-.005.016a6.132,6.132,0,0,0-2.458-.517,2.215,2.215,0,0,0-1.9,3.355L10.1,9.267a6.032,6.032,0,0,0-2.228,4.681V27.3a6.465,6.465,0,0,1-1.905,4.6l-.611.61,1.7,1.7a4.516,4.516,0,0,0,.812.632v1.55a14.576,14.576,0,0,0,2.371,7.972,11.588,11.588,0,0,0-9.26,9.124L.78,54.521h53.9ZM51.7,28.464A6.4,6.4,0,0,1,47.15,30.35H45.005c-.064-.054-.13-.106-.194-.161l2.431-2.026a5.739,5.739,0,0,0,1.737-2.494l2.934-.489a.739.739,0,0,1,.852.722A3.6,3.6,0,0,1,51.7,28.464Zm.2-10.2a.865.865,0,0,1,.863.863,4.7,4.7,0,0,1-2.611,4.226l-.843.421c0-.01,0-.021,0-.031a5.726,5.726,0,0,0-.679-2.716l.582-.582a6.187,6.187,0,0,0,1.411-2.181H51.9Zm-4.373-3.323a1.232,1.232,0,0,1,1.783,1.1,4.47,4.47,0,0,1-1.317,3.181l-.409.409V18.469a3.638,3.638,0,0,0-1.4-2.855ZM35.5,14.57v-.214a1.271,1.271,0,0,1,2.408-.568l.273.546,1.544-.773-.274-.546a3.028,3.028,0,0,0-.545-.758,3.06,3.06,0,0,1,5.226,2.175v.4c-.069,0-.134-.021-.2-.021a3.687,3.687,0,0,0-1.636.386l-1.137.568.773,1.544,1.137-.568a1.93,1.93,0,0,1,2.793,1.726V19.7l-.1.135A15.566,15.566,0,0,1,40.293,24.4l.773,1.544a17.314,17.314,0,0,0,5.718-4.612,4.028,4.028,0,0,1-.647,5.507l-2.73,2.275A21.531,21.531,0,0,0,37.223,26.1a19.033,19.033,0,0,0,3.439-7.662l-1.693-.339a17.3,17.3,0,0,1-3.441,7.384l-.123.155c-.407-.085-.817-.161-1.231-.223A45.692,45.692,0,0,0,35.5,14.57ZM24.834,27.91a19.725,19.725,0,0,1,25.057,12.8H47.8a7.926,7.926,0,0,1-5.642-2.337l-1.221,1.221A9.635,9.635,0,0,0,46,42.266l1.517,1.9H38.09A14.692,14.692,0,0,1,23.414,29.487v-1.1ZM14.863,52.795a5.255,5.255,0,0,1,1.667-3.033,14.538,14.538,0,0,0,2.383.831,6.82,6.82,0,0,0-.62,2.2h-3.43ZM13.14,47.639a14.649,14.649,0,0,0,1.8,1.276,7,7,0,0,0-1.826,3.879H9.085A11.581,11.581,0,0,1,13.14,47.639Zm7.547,3.3a14.592,14.592,0,0,0,1.864.132h.863v1.727h-3.4A5.067,5.067,0,0,1,20.687,50.936Zm4.454.132h.674a22.379,22.379,0,0,0,4.505-.477v2.2H25.141Zm6.906-.9c.558-.162,1.11-.338,1.653-.542l.222.221a5.354,5.354,0,0,1,1.5,2.947H32.047ZM35.4,48.911c.5-.238.991-.505,1.475-.78l1.316.877a5.566,5.566,0,0,1,2.414,3.787H37.169A7.055,7.055,0,0,0,35.4,48.911Zm3.749-1.34-.671-.447c.413-.284.813-.589,1.209-.9a11.655,11.655,0,0,1,6.683,6.572H42.353A7.3,7.3,0,0,0,39.149,47.571ZM9.672,5.194a.489.489,0,0,1,.419-.741,4.4,4.4,0,0,1,1.959.463l1.51.755.632-1.9a1.532,1.532,0,0,1,2.907,0l.632,1.9,1.51-.755A4.406,4.406,0,0,1,21.2,4.453a.488.488,0,0,1,.419.74l-1.91,3.184a6.013,6.013,0,0,0-2.336-.47H13.919a6.021,6.021,0,0,0-2.337.47ZM9.6,27.3V13.949a4.321,4.321,0,0,1,4.316-4.316h3.453a4.321,4.321,0,0,1,4.316,4.316V29.487a16.317,16.317,0,0,0,.527,4.05,2.786,2.786,0,0,1-1.17.267,2.754,2.754,0,0,1-1.978-.852,9.01,9.01,0,0,0,.878-2.432l-1.693-.339a7.235,7.235,0,0,1-3.513,4.879,11.105,11.105,0,0,0-1.828-5.189l-1.436.957A9.449,9.449,0,0,1,12.44,32.7a2.758,2.758,0,0,1-2.194,1.1,2.794,2.794,0,0,1-1.961-.812l-.514-.514A8.171,8.171,0,0,0,9.6,27.3Zm0,8.169a4.546,4.546,0,0,0,.643.063,4.491,4.491,0,0,0,2.7-.906,9.471,9.471,0,0,1,.11,1.429v1.617l1.413-.566A8.969,8.969,0,0,0,18.1,34.428a4.421,4.421,0,0,0,4.629.758A16.408,16.408,0,0,0,37.275,45.848a20.653,20.653,0,0,1-11.46,3.494H22.551A12.963,12.963,0,0,1,9.6,36.393ZM11.43,45.941c.142.165.29.325.439.483a13.3,13.3,0,0,0-4.613,6.372H2.944A9.86,9.86,0,0,1,11.43,45.941ZM48.2,52.795a13.369,13.369,0,0,0-5.389-6.906H43.1a9.906,9.906,0,0,1,9.418,6.906Z" transform="translate(-0.78 -1)"/>
    </g>
  </g>
</svg>
