<svg xmlns="http://www.w3.org/2000/svg" width="76.345" height="76.345" viewBox="0 0 76.345 76.345">
  <g id="Grupo_1200265" data-name="Grupo 1200265" transform="translate(0 0.137)">
    <g id="Grupo_1187152" data-name="Grupo 1187152" transform="translate(0 -0.137)">
      <g id="Grupo_1185946" data-name="Grupo 1185946" transform="translate(0)">
        <g id="Grupo_1184280" data-name="Grupo 1184280" transform="translate(0)">
          <g id="Grupo_1182168" data-name="Grupo 1182168" transform="translate(0)">
            <g id="Grupo_1178877" data-name="Grupo 1178877" transform="translate(0)">
              <g id="Grupo_1111311" data-name="Grupo 1111311" transform="translate(0)">
                <g id="Grupo_1098742" data-name="Grupo 1098742" transform="translate(0 0)">
                  <g id="Rect치ngulo_400898" data-name="Rect치ngulo 400898" transform="translate(0)" fill="#fff" stroke="#fa840e" stroke-width="1" opacity="0.859">
                    <rect width="76.344" height="76.345" rx="38.172" stroke="none"/>
                    <rect x="0.5" y="0.5" width="75.344" height="75.345" rx="37.672" fill="none"/>
                  </g>
                  <g id="Rect치ngulo_400907" data-name="Rect치ngulo 400907" transform="translate(0)" fill="none" stroke="#fa840e" stroke-width="1">
                    <rect width="76.344" height="76.345" rx="38.172" stroke="none"/>
                    <rect x="0.5" y="0.5" width="75.344" height="75.345" rx="37.672" fill="none"/>
                  </g>
                </g>
              </g>
            </g>
          </g>
        </g>
      </g>
    </g>
    <g id="disinfection_15341451" transform="translate(-21.472 10.476)">
      <g id="Grupo_1201243" data-name="Grupo 1201243" transform="translate(40.827 1.083)">
        <g id="Grupo_1201231" data-name="Grupo 1201231" transform="translate(0 20.268)">
          <path id="Trazado_1292369" data-name="Trazado 1292369" d="M54.67,230.057H74.224a2.413,2.413,0,0,0,2.408-2.405V213a8.3,8.3,0,0,0-6.5-8.328,4.2,4.2,0,0,1-3.141-4.1v-3.2H59.978c-4.467,5.525-7.716,5.344-7.716,18.14v12.141a2.415,2.415,0,0,0,2.408,2.405Z" transform="translate(-52.262 -197.371)" fill="#8bf0ff" fill-rule="evenodd"/>
        </g>
        <g id="Grupo_1201232" data-name="Grupo 1201232" transform="translate(12.132 20.268)">
          <path id="Trazado_1292370" data-name="Trazado 1292370" d="M176.456,230.057h.19a2.413,2.413,0,0,0,2.408-2.405V213a8.3,8.3,0,0,0-6.5-8.328,4.2,4.2,0,0,1-3.141-4.1v-3.2h-2.6v3.741a4.652,4.652,0,0,0,3.138,4.594c3.753,1.136,6.5,4.377,6.5,9.332Z" transform="translate(-166.817 -197.371)" fill="#5ae5fa" fill-rule="evenodd"/>
        </g>
        <g id="Grupo_1201233" data-name="Grupo 1201233" transform="translate(6.631 32.358)">
          <path id="Trazado_1292371" data-name="Trazado 1292371" d="M118.6,311.527h3.665v3.72h3.719v3.665h-3.719v3.723H118.6v-3.723h-3.723v-3.665H118.6Z" transform="translate(-114.876 -311.527)" fill="#df646e" fill-rule="evenodd"/>
        </g>
        <g id="Grupo_1201234" data-name="Grupo 1201234" transform="translate(13.04 8.883)">
          <path id="Trazado_1292372" data-name="Trazado 1292372" d="M182.257,89.874a15.047,15.047,0,0,0,3.524,9.329l-1.637,2.134a35,35,0,0,1-8.759-8.19Z" transform="translate(-175.385 -89.874)" fill="#e2f0fa" fill-rule="evenodd"/>
        </g>
        <g id="Grupo_1201235" data-name="Grupo 1201235" transform="translate(13.04 8.883)">
          <path id="Trazado_1292373" data-name="Trazado 1292373" d="M182.257,89.874a15.047,15.047,0,0,0,3.524,9.329l-.983,1.284a24.445,24.445,0,0,1-3.834-7.418,2.926,2.926,0,0,0-2.167,2.812v1.139a41.451,41.451,0,0,1-3.412-3.873Z" transform="translate(-175.385 -89.874)" fill="#d0e4f2" fill-rule="evenodd"/>
        </g>
        <g id="Grupo_1201236" data-name="Grupo 1201236" transform="translate(2.125 4.886)">
          <path id="Trazado_1292374" data-name="Trazado 1292374" d="M75.89,52.135l-3.563,7.12h1.6a4,4,0,0,1,3.988,3.825v4.437h7.014V62.139a4.643,4.643,0,0,1,4.63-4.63h2.885V52.135Z" transform="translate(-72.327 -52.135)" fill="#8399fe" fill-rule="evenodd"/>
        </g>
        <g id="Grupo_1201237" data-name="Grupo 1201237" transform="translate(7.716 16.253)">
          <path id="Trazado_1292375" data-name="Trazado 1292375" d="M125.122,159.461h7.014v4.015h-7.014Z" transform="translate(-125.122 -159.461)" fill="#6a85f2" fill-rule="evenodd"/>
        </g>
        <g id="Grupo_1201238" data-name="Grupo 1201238" transform="translate(22.245 5.854)">
          <path id="Trazado_1292376" data-name="Trazado 1292376" d="M262.3,61.271h4.006V64.71H262.3Z" transform="translate(-262.303 -61.271)" fill="#8bf0ff" fill-rule="evenodd"/>
        </g>
        <g id="Grupo_1201239" data-name="Grupo 1201239" transform="translate(20.002 20.539)">
          <path id="Trazado_1292377" data-name="Trazado 1292377" d="M252.119,221.909a10.988,10.988,0,1,0-10.99-10.99A11.009,11.009,0,0,0,252.119,221.909Z" transform="translate(-241.129 -199.932)" fill="#e2f0fa" fill-rule="evenodd"/>
        </g>
        <g id="Grupo_1201240" data-name="Grupo 1201240" transform="translate(25.868 26.404)">
          <path id="Trazado_1292378" data-name="Trazado 1292378" d="M299.078,256a5.122,5.122,0,1,1-1.875,7A5.118,5.118,0,0,1,299.078,256Z" transform="translate(-296.517 -255.307)" fill="#6a85f2" fill-rule="evenodd"/>
        </g>
        <g id="Grupo_1201241" data-name="Grupo 1201241" transform="translate(34.281)">
          <path id="Trazado_1292379" data-name="Trazado 1292379" d="M378.988,6a3.05,3.05,0,0,1,3.041,3.041v.5a4.038,4.038,0,0,1,0,8.048v.5a3.041,3.041,0,0,1-6.083,0V9.041A3.05,3.05,0,0,1,378.988,6Z" transform="translate(-375.947 -6)" fill="#e2f0fa" fill-rule="evenodd"/>
        </g>
        <g id="Grupo_1201242" data-name="Grupo 1201242" transform="translate(2.125 4.886)">
          <path id="Trazado_1292380" data-name="Trazado 1292380" d="M75.89,52.135l-3.563,7.12h1.637l2.722-5.447H92.447V52.135Z" transform="translate(-72.327 -52.135)" fill="#6a85f2" fill-rule="evenodd"/>
        </g>
      </g>
      <path id="Trazado_1292381" data-name="Trazado 1292381" d="M65.021,43.7a.74.74,0,0,0-.74.74v7.044a1.656,1.656,0,0,1-1.654,1.654H43.19a1.656,1.656,0,0,1-1.654-1.654V39.416c0-9.684,1.8-11.525,4.784-14.575.755-.772,1.6-1.639,2.5-2.717H54.7v2.442a4.906,4.906,0,0,0,3.645,4.783.953.953,0,0,0,.143.037.749.749,0,0,0,.126.011.74.74,0,0,0,.183-1.457h0l-.042-.012a3.442,3.442,0,0,1-2.575-3.36V17.244a32.3,32.3,0,0,0,5.889,4.846.74.74,0,0,0,.985-.175l1.627-2.124a.74.74,0,0,0-.022-.928,13.916,13.916,0,0,1-3.1-6.683h1.349a.74.74,0,0,0,.74-.74v-.225h3.242a.74.74,0,0,0,.74-.74V7.059a.74.74,0,0,0-.74-.74H63.649V6.094a.74.74,0,0,0-.74-.74H46.45a.74.74,0,0,0-.662.409l-3.542,7.08a.74.74,0,0,0,.662,1.071H44.5a3.216,3.216,0,0,1,3.224,3.094V21.12c-.869,1.055-1.679,1.883-2.464,2.685-3.023,3.09-5.207,5.322-5.207,15.61V51.485a3.138,3.138,0,0,0,3.134,3.134H62.627a3.138,3.138,0,0,0,3.134-3.134V44.44a.74.74,0,0,0-.74-.74ZM63.649,7.8h2.5V9.735h-2.5ZM54.7,20.644H49.207V18.133H54.7Zm8.451-1.29L62.3,20.47a32.171,32.171,0,0,1-6.018-5.291,3.868,3.868,0,0,1,3.764-3h.017a15.418,15.418,0,0,0,3.091,7.175ZM44.5,12.434h-.4l2.8-5.6H62.169V10.7H60.041A5.348,5.348,0,0,0,54.7,16.042v.611H49.176A4.691,4.691,0,0,0,44.5,12.434Zm6.586,32.749h3.644a.74.74,0,0,0,.74-.74V41.486h2.957a.74.74,0,0,0,.74-.74V37.1a.74.74,0,0,0-.74-.74H55.472V33.4a.74.74,0,0,0-.74-.74H51.088a.74.74,0,0,0-.74.74v2.96h-2.96a.74.74,0,0,0-.74.74v3.643a.74.74,0,0,0,.74.74h2.96v2.957A.74.74,0,0,0,51.088,45.184Zm-2.96-5.178V37.843h2.96a.74.74,0,0,0,.74-.74v-2.96h2.163V37.1a.74.74,0,0,0,.74.74h2.957v2.163H54.732a.74.74,0,0,0-.74.74V43.7H51.829V40.746a.74.74,0,0,0-.74-.74ZM71.6,20.914A11.663,11.663,0,1,0,83.265,32.578,11.678,11.678,0,0,0,71.6,20.914ZM61.42,32.578a10.178,10.178,0,0,1,16.839-7.7L75.17,27.965a5.834,5.834,0,0,0-1.355-.78l.368-1.378.4.109a.74.74,0,1,0,.385-1.429l-1.1-.3-.022-.007-.02,0-1.1-.295a.74.74,0,0,0-.385,1.429l.4.109-.369,1.38a5.8,5.8,0,0,0-3.033.4l-.713-1.234.363-.21a.74.74,0,0,0-.741-1.281l-.967.56-.036.018-.035.022-.967.559A.74.74,0,1,0,67,26.915l.361-.209.712,1.232a5.765,5.765,0,0,0-1.862,2.427L64.834,30l.108-.4a.74.74,0,1,0-1.429-.385l-.6,2.238a.74.74,0,1,0,1.429.385l.109-.407,1.376.369a5.783,5.783,0,0,0,.728,3.7,5.92,5.92,0,0,0,.438.653L63.9,39.233a10.136,10.136,0,0,1-2.483-6.655ZM75.159,30.07c.075.107.146.217.212.331a4.352,4.352,0,0,1-4.887,6.381l-.007,0h-.006a4.351,4.351,0,0,1-1.377-.644Zm-7.11,5.016c-.076-.108-.148-.219-.214-.335a4.351,4.351,0,0,1,1.593-5.943h0a4.33,4.33,0,0,1,2.169-.585,4.385,4.385,0,0,1,2.518.8ZM71.6,42.759a10.143,10.143,0,0,1-6.655-2.48l3.086-3.086a5.781,5.781,0,0,0,1.356.779l-.369,1.376-.4-.108a.74.74,0,0,0-.383,1.43l1.111.3.006,0h0l1.116.3a.74.74,0,0,0,.383-1.43l-.405-.108.368-1.374a5.753,5.753,0,0,0,3.033-.4l.712,1.232L74.2,39.4a.74.74,0,1,0,.739,1.282l1-.578h0l1-.578a.74.74,0,1,0-.739-1.282l-.363.209-.713-1.235A5.769,5.769,0,0,0,77,34.79l1.377.368-.108.405a.74.74,0,1,0,1.43.383l.6-2.238a.74.74,0,1,0-1.43-.383l-.108.4-1.376-.368a5.782,5.782,0,0,0-.729-3.7,5.858,5.858,0,0,0-.436-.649l3.089-3.089a10.178,10.178,0,0,1-7.7,16.836Zm13.732-34a4.786,4.786,0,0,1-3.679,4.631,3.763,3.763,0,0,1-7.524-.134.74.74,0,0,1,1.48,0,2.283,2.283,0,0,0,4.566,0v-.5a.74.74,0,0,1,.679-.738,3.274,3.274,0,0,0,0-6.525.74.74,0,0,1-.679-.738v-.5a2.283,2.283,0,0,0-4.566,0,.74.74,0,0,1-1.48,0,3.763,3.763,0,0,1,7.524-.134A4.786,4.786,0,0,1,85.336,8.758ZM69.453,7.311a.74.74,0,0,1,.74-.74h5.873a.945.945,0,0,0,.944-.944.74.74,0,0,1,1.48,0,2.427,2.427,0,0,1-2.424,2.424H70.193a.74.74,0,0,1-.74-.74Zm0,2.894a.74.74,0,0,1,.74-.74h5.873a2.427,2.427,0,0,1,2.424,2.424.74.74,0,0,1-1.48,0,.945.945,0,0,0-.944-.944H70.193A.74.74,0,0,1,69.453,10.205ZM68.035,15.8v-.74a.74.74,0,1,1,1.48,0v.74a.74.74,0,0,1-1.48,0Zm1.549,2.655v.74a.74.74,0,0,1-1.48,0v-.74a.74.74,0,0,1,1.48,0Zm-.186-1.36a.74.74,0,0,1,.74-.74h.74a.74.74,0,0,1,0,1.48h-.74A.74.74,0,0,1,69.4,17.093Zm-1.915-.671a.74.74,0,1,1,0,1.48h-.74a.74.74,0,0,1,0-1.48Zm2.3,31.194v-.74a.74.74,0,1,1,1.48,0v.74a.74.74,0,1,1-1.48,0Zm1.552,2.655v.74a.74.74,0,0,1-1.48,0v-.74a.74.74,0,1,1,1.48,0Zm2.032-1.363a.74.74,0,0,1-.74.74h-.74a.74.74,0,1,1,0-1.48h.74A.74.74,0,0,1,73.363,48.908Zm-3.395.069a.74.74,0,0,1-.74.74h-.74a.74.74,0,0,1,0-1.48h.74A.74.74,0,0,1,69.968,48.977ZM41.506,18.654v-.74a.74.74,0,1,1,1.48,0v.74a.74.74,0,1,1-1.48,0Zm1.549,2.655v.74a.74.74,0,0,1-1.48,0v-.74a.74.74,0,1,1,1.48,0Zm-.189-1.363a.74.74,0,0,1,.74-.74h.74a.74.74,0,0,1,0,1.48h-.74A.74.74,0,0,1,42.867,19.946Zm-2.655.809a.74.74,0,0,1,0-1.48h.74a.74.74,0,1,1,0,1.48Z"/>
    </g>
  </g>
</svg>
