<svg id="Grupo_1201052" data-name="Grupo 1201052" xmlns="http://www.w3.org/2000/svg" width="76.345" height="76.345" viewBox="0 0 76.345 76.345">
  <g id="Grupo_1187152" data-name="Grupo 1187152" transform="translate(0)">
    <g id="Grupo_1185946" data-name="Grupo 1185946" transform="translate(0)">
      <g id="Grupo_1184280" data-name="Grupo 1184280" transform="translate(0)">
        <g id="Grupo_1182168" data-name="Grupo 1182168" transform="translate(0)">
          <g id="Grupo_1178877" data-name="Grupo 1178877" transform="translate(0)">
            <g id="Grupo_1111311" data-name="Grupo 1111311" transform="translate(0)">
              <g id="Grupo_1098742" data-name="Grupo 1098742" transform="translate(0 0)">
                <g id="Rect치ngulo_400898" data-name="Rect치ngulo 400898" transform="translate(0)" fill="#fff" stroke="#fa840e" stroke-width="1" opacity="0.859">
                  <rect width="76.344" height="76.345" rx="38.172" stroke="none"/>
                  <rect x="0.5" y="0.5" width="75.344" height="75.345" rx="37.672" fill="none"/>
                </g>
                <g id="Rect치ngulo_400907" data-name="Rect치ngulo 400907" transform="translate(0)" fill="none" stroke="#fa840e" stroke-width="1">
                  <rect width="76.344" height="76.345" rx="38.172" stroke="none"/>
                  <rect x="0.5" y="0.5" width="75.344" height="75.345" rx="37.672" fill="none"/>
                </g>
              </g>
            </g>
          </g>
        </g>
      </g>
    </g>
  </g>
  <g id="chat_2651121" transform="translate(-14.507 -16.112)">
    <circle id="Elipse_11522" data-name="Elipse 11522" cx="18.5" cy="18.5" r="18.5" transform="translate(31.5 39.568)" fill="#e5efef"/>
    <g id="Grupo_1201251" data-name="Grupo 1201251" transform="translate(29.5 50.314)">
      <path id="Trazado_1292409" data-name="Trazado 1292409" d="M47.709,135A14.209,14.209,0,0,0,33.5,149.209v11.72a1.653,1.653,0,0,0,1.653,1.653H60.265a1.653,1.653,0,0,0,1.653-1.653v-11.72A14.209,14.209,0,0,0,47.709,135Z" transform="translate(-32.664 -134.164)" fill="#ffce56"/>
      <path id="Trazado_1292410" data-name="Trazado 1292410" d="M57.1,160.254H31.989a2.492,2.492,0,0,1-2.489-2.489v-11.72a15.045,15.045,0,0,1,30.09,0v11.72A2.492,2.492,0,0,1,57.1,160.254ZM44.545,132.672a13.389,13.389,0,0,0-13.373,13.373v11.72a.818.818,0,0,0,.817.817H57.1a.818.818,0,0,0,.817-.817v-11.72A13.389,13.389,0,0,0,44.545,132.672Z" transform="translate(-29.5 -131)" fill="#4c241d"/>
    </g>
    <g id="Grupo_1201252" data-name="Grupo 1201252" transform="translate(38.73 45.079)">
      <path id="Trazado_1292411" data-name="Trazado 1292411" d="M80.139,117.686s-4.179-5.851-1.672-7.522,4.179,6.687,4.179,6.687,1.672-7.522,3.343-6.687-.836,7.522-.836,7.522" transform="translate(-76.831 -109.108)" fill="#e66353"/>
      <path id="Trazado_1292412" data-name="Trazado 1292412" d="M81.995,115.362a.836.836,0,0,1-.783-1.129c1.018-2.716,1.593-5.6,1.3-6.367-.611.606-1.6,3.257-2.207,6.005a.822.822,0,0,1-.824.655.836.836,0,0,1-.811-.672c-.54-2.693-1.691-5.835-2.609-6.215-.054-.022-.122-.05-.287.06a.912.912,0,0,0-.4.649c-.265,1.444,1.263,4.258,2.287,5.693a.836.836,0,1,1-1.361.971c-.313-.439-3.048-4.362-2.571-6.966a2.591,2.591,0,0,1,1.116-1.738A1.927,1.927,0,0,1,76.7,106.1c1.261.522,2.19,2.53,2.795,4.353.591-1.83,1.423-3.714,2.438-4.2a1.428,1.428,0,0,1,1.273,0c2.04,1.02.608,5.8-.427,8.564A.836.836,0,0,1,81.995,115.362Z" transform="translate(-73.672 -105.949)" fill="#4c241d"/>
    </g>
    <g id="Grupo_1201253" data-name="Grupo 1201253" transform="translate(40.366 64.523)">
      <path id="Trazado_1292413" data-name="Trazado 1292413" d="M88.843,203,85.5,204.672l3.343,2.507,3.343-2.507Z" transform="translate(-84.664 -202.164)" fill="#fc8c29"/>
      <path id="Trazado_1292414" data-name="Trazado 1292414" d="M85.679,204.85a.835.835,0,0,1-.5-.167l-3.343-2.507a.836.836,0,0,1,.128-1.416l3.343-1.672a.837.837,0,0,1,.748,0l3.343,1.672a.836.836,0,0,1,.128,1.416l-3.343,2.507A.835.835,0,0,1,85.679,204.85Zm-1.76-3.2,1.76,1.32,1.76-1.32-1.76-.88Z" transform="translate(-81.5 -199)" fill="#4c241d"/>
    </g>
    <g id="Grupo_1201254" data-name="Grupo 1201254" transform="translate(30.336 33.597)">
      <circle id="Elipse_11523" data-name="Elipse 11523" cx="0.5" cy="0.5" r="0.5" transform="translate(6.164 27.971)" fill="#4c241d"/>
      <circle id="Elipse_11524" data-name="Elipse 11524" cx="0.5" cy="0.5" r="0.5" transform="translate(21.164 27.971)" fill="#4c241d"/>
      <circle id="Elipse_11525" data-name="Elipse 11525" cx="0.894" cy="0.894" r="0.894" transform="translate(34.83 30.857)" fill="#4c241d"/>
      <path id="Trazado_1292415" data-name="Trazado 1292415" d="M216.325,218.163a2.578,2.578,0,1,1,.747-.111A2.583,2.583,0,0,1,216.325,218.163Zm0-3.485a.907.907,0,1,0,.868.644A.9.9,0,0,0,216.323,214.678Z" transform="translate(-176.081 -179.154)" fill="#4c241d"/>
      <path id="Trazado_1292416" data-name="Trazado 1292416" d="M54.336,55.179a.836.836,0,0,1-.836-.836V51.836a.836.836,0,0,1,1.672,0v2.507A.836.836,0,0,1,54.336,55.179Z" transform="translate(-49.321 -51)" fill="#4c241d"/>
      <path id="Trazado_1292417" data-name="Trazado 1292417" d="M54.336,83.179a.836.836,0,0,1-.836-.836V79.836a.836.836,0,0,1,1.672,0v2.507A.836.836,0,0,1,54.336,83.179Z" transform="translate(-49.321 -73.149)" fill="#4c241d"/>
      <path id="Trazado_1292418" data-name="Trazado 1292418" d="M36.843,72.672H34.336a.836.836,0,0,1,0-1.672h2.507a.836.836,0,0,1,0,1.672Z" transform="translate(-33.5 -66.821)" fill="#4c241d"/>
      <path id="Trazado_1292419" data-name="Trazado 1292419" d="M64.843,72.672H62.336a.836.836,0,0,1,0-1.672h2.507a.836.836,0,0,1,0,1.672Z" transform="translate(-55.649 -66.821)" fill="#4c241d"/>
    </g>
    <g id="Grupo_1201255" data-name="Grupo 1201255" transform="translate(49.351 29)">
      <path id="Trazado_1292420" data-name="Trazado 1292420" d="M142.918,33a14.416,14.416,0,0,0-10.232,24.572L131.216,61l3.7-1.588a14.417,14.417,0,1,0,8-26.413Z" transform="translate(-127.664 -32.164)" fill="#a9ba5a"/>
      <path id="Trazado_1292421" data-name="Trazado 1292421" d="M139.754,59.508a15.179,15.179,0,0,1-8.077-2.316l-3.3,1.412a.836.836,0,0,1-1.1-1.1l1.251-2.92a15.252,15.252,0,1,1,11.219,4.921Zm-8-4.1a.838.838,0,0,1,.465.141,13.594,13.594,0,1,0-2.107-1.735.836.836,0,0,1,.175.918l-.646,1.508,1.784-.764a.836.836,0,0,1,.33-.068Z" transform="translate(-124.5 -29)" fill="#4c241d"/>
    </g>
    <g id="Grupo_1201256" data-name="Grupo 1201256" transform="translate(57.082 33.597)">
      <path id="Trazado_1292422" data-name="Trazado 1292422" d="M178.873,60.015h-5.015V55h-3.343v5.015H165.5v3.343h5.015v11.7h3.343v-11.7h5.015Z" transform="translate(-164.664 -54.164)" fill="#bf7e68"/>
      <path id="Trazado_1292423" data-name="Trazado 1292423" d="M170.694,72.732h-3.343a.836.836,0,0,1-.836-.836V61.03h-4.179a.836.836,0,0,1-.836-.836V56.851a.836.836,0,0,1,.836-.836h4.179V51.836a.836.836,0,0,1,.836-.836h3.343a.836.836,0,0,1,.836.836v4.179h4.179a.836.836,0,0,1,.836.836v3.343a.836.836,0,0,1-.836.836H171.53V71.9A.836.836,0,0,1,170.694,72.732Zm-2.507-1.672h1.672V60.194a.836.836,0,0,1,.836-.836h4.179V57.687h-4.179a.836.836,0,0,1-.836-.836V52.672h-1.672v4.179a.836.836,0,0,1-.836.836h-4.179v1.672h4.179a.836.836,0,0,1,.836.836Z" transform="translate(-161.5 -51)" fill="#4c241d"/>
    </g>
  </g>
</svg>
