<svg xmlns="http://www.w3.org/2000/svg" width="83" height="89" viewBox="0 0 83 89">
  <g id="Grupo_1200989" data-name="Grupo 1200989" transform="translate(-205.459 -4485.662)">
    <rect id="Rectángulo_412136" data-name="Rectángulo 412136" width="83" height="89" transform="translate(205.459 4485.662)" fill="none"/>
    <g id="Grupo_1200403" data-name="Grupo 1200403" transform="translate(213.45 4495.482)">
      <g id="chicken_2524620" transform="translate(0 0)">
        <g id="Grupo_1200323" data-name="Grupo 1200323" transform="translate(0)">
          <g id="Grupo_1200318" data-name="Grupo 1200318">
            <g id="Grupo_1200302" data-name="Grupo 1200302" transform="translate(58.08 14.27)">
              <g id="Grupo_1200300" data-name="Grupo 1200300" transform="translate(0)">
                <path id="Trazado_1241298" data-name="Trazado 1241298" d="M13.668,104.774l-1.325.148a6.85,6.85,0,0,0-5.131,3.31L6,100.274Z" transform="translate(-6 -100.274)" fill="#f95a66"/>
              </g>
              <g id="Grupo_1200301" data-name="Grupo 1200301" transform="translate(0.855 3.317)">
                <path id="Trazado_1241299" data-name="Trazado 1241299" d="M10.349,123.633l.448-.05,2.015,1.183-1.325.148a6.85,6.85,0,0,0-5.131,3.31L6,125.88A6.851,6.851,0,0,1,10.349,123.633Z" transform="translate(-6 -123.583)" fill="#ed3252"/>
              </g>
            </g>
            <g id="Grupo_1200305" data-name="Grupo 1200305" transform="translate(42.527 0.854)">
              <g id="Grupo_1200303" data-name="Grupo 1200303" transform="translate(0)">
                <path id="Trazado_1241300" data-name="Trazado 1241300" d="M84.96,8.422c-.891-.52-2.223,0-3.442,1.2C81.155,7.518,80.14,6,78.945,6s-2.21,1.518-2.573,3.626c-1.219-1.2-2.551-1.724-3.442-1.2-1.3.759-1.171,3.445.287,6s3.694,4.01,4.993,3.251a1.711,1.711,0,0,0,.735-.978,1.712,1.712,0,0,0,.735.978c1.3.759,3.535-.7,4.993-3.251s1.587-5.24.287-6Z" transform="translate(-72.033 -6)" fill="#f95a66"/>
              </g>
              <g id="Grupo_1200304" data-name="Grupo 1200304" transform="translate(7.324 2.222)">
                <path id="Trazado_1241301" data-name="Trazado 1241301" d="M74.788,27.812c1.323-2.317,1.551-4.742.612-5.739a2.227,2.227,0,0,1,2.236-.26c1.3.759,1.171,3.445-.287,6s-3.694,4.01-4.993,3.251a1.44,1.44,0,0,1-.324-.26A8.164,8.164,0,0,0,74.788,27.812Z" transform="translate(-72.033 -21.613)" fill="#ed3252"/>
              </g>
            </g>
            <g id="Grupo_1200314" data-name="Grupo 1200314" transform="translate(0.854 9.444)">
              <g id="Grupo_1200306" data-name="Grupo 1200306" transform="translate(0)">
                <path id="Trazado_1241302" data-name="Trazado 1241302" d="M49.313,86.4c0-1.94,1.663-3.644,4.171-4.62-2.178-2.28-3.045-4.95-1.955-6.834C52.6,73.1,55.271,72.5,58.271,73.18c-.325-2.542.335-4.712,1.963-5.65,2.632-1.516,6.794.76,9.3,5.084a13.241,13.241,0,0,1,1.755,5.147c18.227,1.843,15.134-11.4,26.555-11.4a10.278,10.278,0,0,1,.051,20.555v.1A20.857,20.857,0,0,1,77.01,107.849c-9.136,0-14.556-4.471-17.756-9.408a24.092,24.092,0,0,1-3-6.7C52.271,91.157,49.313,88.989,49.313,86.4Z" transform="translate(-49.313 -66.358)" fill="#e9fffb"/>
              </g>
              <g id="Grupo_1200308" data-name="Grupo 1200308" transform="translate(11.401 2.244)">
                <g id="Grupo_1200307" data-name="Grupo 1200307">
                  <path id="Trazado_1241303" data-name="Trazado 1241303" d="M63.617,119.24A20.861,20.861,0,0,0,84.465,99.594a1.427,1.427,0,0,1,1.179-1.33c2.736-.474,9.394-2.432,9.005-10.236a11.164,11.164,0,0,0-1.85-5.9,10.291,10.291,0,0,1-6.309,18.31v.1a20.857,20.857,0,0,1-20.882,20.831c-7.873,0-12.985-3.321-16.3-7.4C52.584,117.017,57.176,119.24,63.617,119.24Z" transform="translate(-49.313 -82.128)" fill="#fff"/>
                </g>
              </g>
              <g id="Grupo_1200309" data-name="Grupo 1200309" transform="translate(17.095 17.935)">
                <ellipse id="Elipse_11500" data-name="Elipse 11500" cx="0.998" cy="1" rx="0.998" ry="1" transform="translate(0)" fill="#333"/>
              </g>
              <g id="Grupo_1200310" data-name="Grupo 1200310" transform="translate(44.088 30.135)">
                <ellipse id="Elipse_11501" data-name="Elipse 11501" cx="0.998" cy="1" rx="0.998" ry="1" transform="translate(0)" fill="#333"/>
              </g>
              <g id="Grupo_1200311" data-name="Grupo 1200311" transform="translate(3.672 19.192)">
                <path id="Trazado_1241304" data-name="Trazado 1241304" d="M390.183,204.437a.854.854,0,0,0,.122-1.7c-.368-.054-.741-.1-1.135-.142a8.721,8.721,0,0,1-4.252-1.2.854.854,0,1,0-1.044,1.352c1.45,1.119,3.389,1.344,5.1,1.543.382.044.742.086,1.085.136A.835.835,0,0,0,390.183,204.437Z" transform="translate(-383.542 -201.219)" fill="#333"/>
              </g>
              <g id="Grupo_1200312" data-name="Grupo 1200312" transform="translate(12.327 4.228)">
                <path id="Trazado_1241305" data-name="Trazado 1241305" d="M334.625,107.993a.9.9,0,0,0,.091,0,.854.854,0,0,0,.759-.939l-.016-.148c-.4-3.791-.951-8.983-5.428-10.776a.854.854,0,1,0-.635,1.585c3.522,1.411,3.989,5.824,4.365,9.371l.016.148A.854.854,0,0,0,334.625,107.993Z" transform="translate(-328.86 -96.064)" fill="#333"/>
              </g>
              <g id="Grupo_1200313" data-name="Grupo 1200313" transform="translate(51.417 6.04)">
                <ellipse id="Elipse_11502" data-name="Elipse 11502" cx="1.174" cy="1.431" rx="1.174" ry="1.431" transform="translate(0)" fill="#333"/>
              </g>
            </g>
            <g id="Grupo_1200317" data-name="Grupo 1200317">
              <g id="Grupo_1200315" data-name="Grupo 1200315" transform="translate(59.237 22.107)">
                <path id="Trazado_1241306" data-name="Trazado 1241306" d="M9.648,155.339l-.114,5.368a2.8,2.8,0,0,0,1.55,2.529,3.011,3.011,0,0,0,4.457-2.414,3.573,3.573,0,0,0-1.846-3.166Z" transform="translate(-9.534 -155.339)" fill="#f95a66"/>
              </g>
              <g id="Grupo_1200316" data-name="Grupo 1200316" transform="translate(60.41 22.713)">
                <path id="Trazado_1241307" data-name="Trazado 1241307" d="M12.517,164.193a3.573,3.573,0,0,0-1.846-3.166l-1.139-.652V159.6l2.989,1.711a3.573,3.573,0,0,1,1.846,3.166,3.006,3.006,0,0,1-4.383,2.449A2.889,2.889,0,0,0,12.517,164.193Z" transform="translate(-9.533 -159.601)" fill="#ed3252"/>
              </g>
              <path id="Trazado_1241308" data-name="Trazado 1241308" d="M3.7,24.612c-1.915-2.428-2.421-5.027-1.3-6.971,1.1-1.9,3.555-2.773,6.55-2.378-.047-2.464.839-4.427,2.469-5.367,3.087-1.782,7.683.594,10.463,5.408a14.461,14.461,0,0,1,1.769,4.8c9.418.781,12.569-2.708,15.618-6.087a20.006,20.006,0,0,1,4.107-3.766c-1.2-1.834-2.954-6.169-.313-7.712a3.148,3.148,0,0,1,3.373.428C47.062,1.127,48.2,0,49.515,0s2.452,1.127,3.073,2.967a3.148,3.148,0,0,1,3.373-.428c2.715,1.586.832,6.033-.443,7.9a11.2,11.2,0,0,1,3.191,3.225V13.6l7.548,4.429a.86.86,0,0,1-.337,1.585l-1.325.148a6.028,6.028,0,0,0-3.9,2.08L63.9,23.684c2.55,1.46,3.214,5.34.455,6.973-2.46,1.457-5.958-.21-5.895-3.2l.027-1.278a11.043,11.043,0,0,1-8.135,4.7,21.612,21.612,0,0,1-1.326,6.808.854.854,0,0,1-1.6-.591,19.947,19.947,0,0,0,1.232-6.929v-.105a.854.854,0,0,1,.85-.854,9.406,9.406,0,0,0,9.2-8.091V18.406a9.394,9.394,0,0,0-9.251-8.09c-4.544,0-6.569,2.245-8.915,4.844-2.88,3.192-6.1,6.762-14.335,6.761a33.737,33.737,0,0,1-3.39-.181.854.854,0,0,1-.763-.76,12.4,12.4,0,0,0-1.645-4.821c-2.225-3.852-5.948-6.042-8.131-4.783-1.258.726-1.835,2.526-1.543,4.815a.862.862,0,0,1-1.036.941C7,16.518,4.718,17.054,3.885,18.5c-.854,1.479-.134,3.768,1.834,5.833a.862.862,0,0,1-.308,1.385c-2.237.873-3.627,2.342-3.627,3.835,0,2.084,2.61,3.978,6.206,4.5a.854.854,0,0,1-.247,1.69C3.229,35.082.076,32.535.076,29.548c0-1.955,1.335-3.745,3.629-4.936ZM63.3,18.277l-3.32-1.949a11.19,11.19,0,0,1,.536,3.338A7.764,7.764,0,0,1,63.3,18.277Zm-2.04,10.969c2.783,1.446,4.372-2.6,1.793-4.081l-2.8-1.6-.083,3.931A1.946,1.946,0,0,0,61.257,29.247ZM44.528,8.852c.12.21.248.409.38.6a11.6,11.6,0,0,1,9.113.151c.169-.239.331-.49.482-.754,1.356-2.375,1.26-4.452.6-4.838-.489-.286-1.481.156-2.412,1.074a.861.861,0,0,1-1.441-.463c-.315-1.826-1.128-2.917-1.732-2.917S48.1,2.8,47.783,4.625a.861.861,0,0,1-1.441.463c-.931-.918-1.922-1.36-2.412-1.074-.662.386-.758,2.464.6,4.838Z" transform="translate(-0.076)" fill="#333"/>
            </g>
          </g>
          <g id="Grupo_1200322" data-name="Grupo 1200322" transform="translate(15.346 24.632)">
            <g id="Grupo_1200319" data-name="Grupo 1200319">
              <path id="Trazado_1241309" data-name="Trazado 1241309" d="M194.223,184.174a7.406,7.406,0,0,0-5.349-11.028c-6.39-.906-13.609,8.919-21.044,9.594a17.225,17.225,0,0,0,4.118,5.591c3.773,3.37,8.152,4.3,13.387,2.85A14.673,14.673,0,0,0,194.223,184.174Z" transform="translate(-167.83 -173.087)" fill="#e9fffb"/>
            </g>
            <g id="Grupo_1200320" data-name="Grupo 1200320" transform="translate(2.496 1.221)">
              <path id="Trazado_1241310" data-name="Trazado 1241310" d="M180.85,196.546a14.673,14.673,0,0,0,8.888-7.006,7.481,7.481,0,0,0-.3-7.874,7.456,7.456,0,0,1,2.288,9.866,14.673,14.673,0,0,1-8.888,7.006c-5.236,1.453-9.615.521-13.387-2.85a16.6,16.6,0,0,1-1.622-1.671C171.521,197.125,175.784,197.952,180.85,196.546Z" transform="translate(-167.833 -181.666)" fill="#d2f7f0"/>
            </g>
            <g id="Grupo_1200321" data-name="Grupo 1200321" transform="translate(5.884 11.459)">
              <path id="Trazado_1241311" data-name="Trazado 1241311" d="M259.732,257.868a12.03,12.03,0,0,0,1.535-.1.854.854,0,1,0-.217-1.694,8.237,8.237,0,0,1-7.041-2.246.854.854,0,0,0-1.138,1.274A9.913,9.913,0,0,0,259.732,257.868Z" transform="translate(-252.586 -253.609)" fill="#333"/>
            </g>
          </g>
        </g>
        <g id="Grupo_1200337" data-name="Grupo 1200337" transform="translate(36.375 39.064)">
          <g id="Grupo_1200333" data-name="Grupo 1200333" transform="translate(0)">
            <g id="Grupo_1200324" data-name="Grupo 1200324">
              <path id="Trazado_1241312" data-name="Trazado 1241312" d="M47.424,279.038a5,5,0,1,1,4.968,5.839v.053a10.365,10.365,0,0,1-10.2,10.524,9.692,9.692,0,0,1-8.671-4.753,12.783,12.783,0,0,1-1.641-9.3l.114-.566.189.142a7.966,7.966,0,0,0,9.166.321,6.248,6.248,0,0,1,5.989-.464Z" transform="translate(-31.623 -274.493)" fill="#ffcf57"/>
            </g>
            <g id="Grupo_1200325" data-name="Grupo 1200325" transform="translate(3.035 0.654)">
              <path id="Trazado_1241313" data-name="Trazado 1241313" d="M37.594,297.974a10.34,10.34,0,0,0,10.177-9.843.85.85,0,0,1,.686-.778c1.4-.28,4.5-1.332,4.293-5.148a5.81,5.81,0,0,0-1-3.115,5.228,5.228,0,0,1,2.562,4.538,5.092,5.092,0,0,1-4.957,5.192v.053A10.365,10.365,0,0,1,39.16,299.4a9.62,9.62,0,0,1-7.537-3.233A9.9,9.9,0,0,0,37.594,297.974Z" transform="translate(-31.623 -279.09)" fill="#ffb81a"/>
            </g>
            <g id="Grupo_1200326" data-name="Grupo 1200326" transform="translate(1.946 5.792)">
              <path id="Trazado_1241314" data-name="Trazado 1241314" d="M123.151,321.475a4.747,4.747,0,0,1-3.851,2.115h-.141a7.2,7.2,0,0,1-5.308-2.342,7.874,7.874,0,0,1-2.183-4.524,7.955,7.955,0,0,0,7.783-.517,6.273,6.273,0,0,1,3.356-1.017,4.772,4.772,0,0,1,.931,1.537A5.236,5.236,0,0,1,123.151,321.475Z" transform="translate(-111.668 -315.192)" fill="#ffeacc"/>
            </g>
            <g id="Grupo_1200327" data-name="Grupo 1200327" transform="translate(21.02 3.347)">
              <ellipse id="Elipse_11503" data-name="Elipse 11503" cx="0.712" cy="0.854" rx="0.712" ry="0.854" transform="translate(0)" fill="#333"/>
            </g>
            <g id="Grupo_1200332" data-name="Grupo 1200332" transform="translate(2.655 9.327)">
              <g id="Grupo_1200328" data-name="Grupo 1200328" transform="translate(13.081)">
                <ellipse id="Elipse_11504" data-name="Elipse 11504" cx="0.665" cy="0.665" rx="0.665" ry="0.665" transform="translate(0)" fill="#fff"/>
              </g>
              <g id="Grupo_1200329" data-name="Grupo 1200329" transform="translate(11.278 4.2)">
                <ellipse id="Elipse_11505" data-name="Elipse 11505" cx="0.665" cy="0.665" rx="0.665" ry="0.665" transform="translate(0)" fill="#fff"/>
              </g>
              <g id="Grupo_1200330" data-name="Grupo 1200330" transform="translate(6.786 6.364)">
                <ellipse id="Elipse_11506" data-name="Elipse 11506" cx="0.665" cy="0.665" rx="0.665" ry="0.665" transform="translate(0)" fill="#fff"/>
              </g>
              <g id="Grupo_1200331" data-name="Grupo 1200331" transform="translate(0 3.535)">
                <ellipse id="Elipse_11507" data-name="Elipse 11507" cx="0.665" cy="0.665" rx="0.665" ry="0.665" fill="#fff"/>
              </g>
            </g>
          </g>
          <g id="Grupo_1200336" data-name="Grupo 1200336" transform="translate(3.885 2.522)">
            <g id="Grupo_1200334" data-name="Grupo 1200334" transform="translate(0)">
              <path id="Trazado_1241315" data-name="Trazado 1241315" d="M131.311,301.887a3.053,3.053,0,0,0,2.606-4.185c-.9-2.458-5.461-2.989-7.071-5.491a7.493,7.493,0,0,0-1.058,2.621,5.778,5.778,0,0,0,1.571,5.348A5.242,5.242,0,0,0,131.311,301.887Z" transform="translate(-125.658 -292.211)" fill="#fd9"/>
            </g>
            <g id="Grupo_1200335" data-name="Grupo 1200335" transform="translate(0)">
              <path id="Trazado_1241316" data-name="Trazado 1241316" d="M131.732,294.832a7.491,7.491,0,0,1,1.058-2.621,4.439,4.439,0,0,0,.745.867,7.368,7.368,0,0,0-.238.9,5.778,5.778,0,0,0,1.571,5.347,5.242,5.242,0,0,0,3.952,1.708,2.7,2.7,0,0,0,.394-.037,2.736,2.736,0,0,1-1.96.891,5.242,5.242,0,0,1-3.952-1.708A5.778,5.778,0,0,1,131.732,294.832Z" transform="translate(-131.603 -292.211)" fill="#ffeacc"/>
            </g>
          </g>
        </g>
        <g id="Grupo_1200351" data-name="Grupo 1200351" transform="translate(4.643 39.064)">
          <g id="Grupo_1200347" data-name="Grupo 1200347">
            <g id="Grupo_1200338" data-name="Grupo 1200338">
              <path id="Trazado_1241317" data-name="Trazado 1241317" d="M264.528,279.038a5,5,0,1,0-4.968,5.839v.053a10.365,10.365,0,0,0,10.2,10.524,9.692,9.692,0,0,0,8.671-4.753,12.783,12.783,0,0,0,1.641-9.3l-.114-.566-.189.142a7.966,7.966,0,0,1-9.166.321,6.248,6.248,0,0,0-5.989-.464Z" transform="translate(-254.603 -274.493)" fill="#ffcf57"/>
            </g>
            <g id="Grupo_1200339" data-name="Grupo 1200339" transform="translate(0 0.654)">
              <path id="Trazado_1241318" data-name="Trazado 1241318" d="M292.648,297.974a10.34,10.34,0,0,1-10.177-9.843.851.851,0,0,0-.686-.778c-1.4-.28-4.5-1.332-4.293-5.148a5.81,5.81,0,0,1,1-3.115,5.228,5.228,0,0,0-2.562,4.538,5.092,5.092,0,0,0,4.957,5.192v.053a10.365,10.365,0,0,0,10.2,10.524,9.62,9.62,0,0,0,7.537-3.233A9.9,9.9,0,0,1,292.648,297.974Z" transform="translate(-275.927 -279.09)" fill="#ffb81a"/>
            </g>
            <g id="Grupo_1200340" data-name="Grupo 1200340" transform="translate(11.391 5.792)">
              <path id="Trazado_1241319" data-name="Trazado 1241319" d="M269.183,321.475a4.747,4.747,0,0,0,3.851,2.115h.141a7.2,7.2,0,0,0,5.308-2.342,7.874,7.874,0,0,0,2.183-4.524,7.955,7.955,0,0,1-7.783-.517,6.273,6.273,0,0,0-3.356-1.017,4.772,4.772,0,0,0-.931,1.537A5.236,5.236,0,0,0,269.183,321.475Z" transform="translate(-268.277 -315.192)" fill="#ffeacc"/>
            </g>
            <g id="Grupo_1200341" data-name="Grupo 1200341" transform="translate(3.283 3.347)">
              <ellipse id="Elipse_11508" data-name="Elipse 11508" cx="0.712" cy="0.854" rx="0.712" ry="0.854" fill="#333"/>
            </g>
            <g id="Grupo_1200346" data-name="Grupo 1200346" transform="translate(8.661 9.327)">
              <g id="Grupo_1200342" data-name="Grupo 1200342" transform="translate(0)">
                <ellipse id="Elipse_11509" data-name="Elipse 11509" cx="0.665" cy="0.665" rx="0.665" ry="0.665" fill="#fff"/>
              </g>
              <g id="Grupo_1200343" data-name="Grupo 1200343" transform="translate(1.803 4.2)">
                <ellipse id="Elipse_11510" data-name="Elipse 11510" cx="0.665" cy="0.665" rx="0.665" ry="0.665" fill="#fff"/>
              </g>
              <g id="Grupo_1200344" data-name="Grupo 1200344" transform="translate(6.295 6.364)">
                <ellipse id="Elipse_11511" data-name="Elipse 11511" cx="0.665" cy="0.665" rx="0.665" ry="0.665" transform="translate(0)" fill="#fff"/>
              </g>
              <g id="Grupo_1200345" data-name="Grupo 1200345" transform="translate(13.081 3.535)">
                <ellipse id="Elipse_11512" data-name="Elipse 11512" cx="0.665" cy="0.665" rx="0.665" ry="0.665" transform="translate(0)" fill="#fff"/>
              </g>
            </g>
          </g>
          <g id="Grupo_1200350" data-name="Grupo 1200350" transform="translate(13.382 2.522)">
            <g id="Grupo_1200348" data-name="Grupo 1200348" transform="translate(0)">
              <path id="Trazado_1241320" data-name="Trazado 1241320" d="M288.664,300.18a5.778,5.778,0,0,0,1.571-5.348,7.492,7.492,0,0,0-1.058-2.621c-1.611,2.5-6.173,3.033-7.071,5.491a3.053,3.053,0,0,0,2.606,4.185,5.242,5.242,0,0,0,3.952-1.708Z" transform="translate(-281.906 -292.211)" fill="#fd9"/>
            </g>
            <g id="Grupo_1200349" data-name="Grupo 1200349" transform="translate(0.846)">
              <path id="Trazado_1241321" data-name="Trazado 1241321" d="M289.389,294.832a7.49,7.49,0,0,0-1.058-2.621,4.437,4.437,0,0,1-.745.867,7.363,7.363,0,0,1,.238.9,5.778,5.778,0,0,1-1.571,5.347,5.242,5.242,0,0,1-3.952,1.708,2.7,2.7,0,0,1-.394-.037,2.736,2.736,0,0,0,1.96.891,5.242,5.242,0,0,0,3.952-1.708A5.778,5.778,0,0,0,289.389,294.832Z" transform="translate(-281.906 -292.211)" fill="#ffeacc"/>
            </g>
          </g>
        </g>
        <g id="Grupo_1200364" data-name="Grupo 1200364" transform="translate(0 23.777)">
          <g id="Grupo_1200356" data-name="Grupo 1200356" transform="translate(33.301 30.871)">
            <g id="Grupo_1200352" data-name="Grupo 1200352">
              <path id="Trazado_1241322" data-name="Trazado 1241322" d="M33.053,390.165A28.609,28.609,0,0,0,30.579,384c4.453.272,8.4,1.734,10.222,5.587,2.227-3.854,5.769-5.315,10.222-5.587a28.61,28.61,0,0,0-2.474,6.165,11.1,11.1,0,0,1,7.053-2.784,67.647,67.647,0,0,0-4.049,7.719h-21.5A67.628,67.628,0,0,0,26,387.381,11.1,11.1,0,0,1,33.053,390.165Z" transform="translate(-26 -384)" fill="#77bc4d"/>
            </g>
            <g id="Grupo_1200353" data-name="Grupo 1200353">
              <path id="Trazado_1241323" data-name="Trazado 1241323" d="M33.053,390.165A28.613,28.613,0,0,0,30.579,384c4.453.272,8.4,1.734,10.222,5.587,2.227-3.854,5.769-5.315,10.222-5.587a28.61,28.61,0,0,0-2.474,6.165,11.1,11.1,0,0,1,7.053-2.784,67.638,67.638,0,0,0-4.049,7.72H49.009c.449-1.033,1.384-2.945,1.852-3.874a8.586,8.586,0,0,0-.791.632,2.277,2.277,0,0,1-3.7-2.357c.284-.933.563-1.759.827-2.485a8.048,8.048,0,0,0-4.425,3.711,2.277,2.277,0,0,1-4.03-.167,6.886,6.886,0,0,0-4.356-3.6c.27.738.555,1.582.846,2.537a2.277,2.277,0,0,1-3.7,2.357,8.55,8.55,0,0,0-.791-.632c.468.929,1.771,2.842,2.22,3.874H30.049A67.629,67.629,0,0,0,26,387.381,11.1,11.1,0,0,1,33.053,390.165Z" transform="translate(-26 -384)" fill="#479838"/>
            </g>
            <g id="Grupo_1200354" data-name="Grupo 1200354" transform="translate(10.125 6.646)">
              <ellipse id="Elipse_11513" data-name="Elipse 11513" cx="0.665" cy="0.996" rx="0.665" ry="0.996" transform="translate(0)" fill="#a2d962"/>
            </g>
            <g id="Grupo_1200355" data-name="Grupo 1200355" transform="translate(18.145 7.195)">
              <ellipse id="Elipse_11514" data-name="Elipse 11514" cx="0.665" cy="0.996" rx="0.665" ry="0.996" transform="translate(0)" fill="#a2d962"/>
            </g>
          </g>
          <g id="Grupo_1200361" data-name="Grupo 1200361" transform="translate(3.7 30.871)">
            <g id="Grupo_1200357" data-name="Grupo 1200357" transform="translate(0)">
              <path id="Trazado_1241324" data-name="Trazado 1241324" d="M241.053,390.165A28.609,28.609,0,0,0,238.579,384c4.453.272,8.4,1.734,10.222,5.587,2.227-3.854,5.769-5.315,10.222-5.587a28.613,28.613,0,0,0-2.474,6.165,11.1,11.1,0,0,1,7.053-2.784,67.648,67.648,0,0,0-4.049,7.719h-21.5A67.649,67.649,0,0,0,234,387.381,11.1,11.1,0,0,1,241.053,390.165Z" transform="translate(-234 -384)" fill="#77bc4d"/>
            </g>
            <g id="Grupo_1200358" data-name="Grupo 1200358">
              <path id="Trazado_1241325" data-name="Trazado 1241325" d="M241.052,390.165A28.612,28.612,0,0,0,238.578,384c4.453.272,8.4,1.734,10.222,5.587,2.227-3.854,5.769-5.315,10.222-5.587a28.607,28.607,0,0,0-2.474,6.165,11.1,11.1,0,0,1,7.053-2.784,67.645,67.645,0,0,0-4.049,7.72h-2.543c.449-1.033,1.384-2.945,1.852-3.874a8.575,8.575,0,0,0-.791.632,2.277,2.277,0,0,1-3.7-2.357c.284-.933.563-1.759.827-2.485a8.048,8.048,0,0,0-4.425,3.711,2.277,2.277,0,0,1-4.03-.167,6.886,6.886,0,0,0-4.356-3.6c.27.738.555,1.582.846,2.537a2.277,2.277,0,0,1-3.7,2.357,8.55,8.55,0,0,0-.791-.632c.468.929,1.771,2.842,2.22,3.874h-2.911a67.641,67.641,0,0,0-4.049-7.72,11.1,11.1,0,0,1,7.053,2.784Z" transform="translate(-233.999 -384)" fill="#479838"/>
            </g>
            <g id="Grupo_1200359" data-name="Grupo 1200359" transform="translate(10.125 6.646)">
              <ellipse id="Elipse_11515" data-name="Elipse 11515" cx="0.665" cy="0.996" rx="0.665" ry="0.996" transform="translate(0)" fill="#a2d962"/>
            </g>
            <g id="Grupo_1200360" data-name="Grupo 1200360" transform="translate(18.146 7.195)">
              <ellipse id="Elipse_11516" data-name="Elipse 11516" cx="0.665" cy="0.996" rx="0.665" ry="0.996" transform="translate(0)" fill="#a2d962"/>
            </g>
          </g>
          <path id="Trazado_1241326" data-name="Trazado 1241326" d="M3.468,200.476a12.753,12.753,0,0,1,5.366,1.442A22.087,22.087,0,0,0,7.269,198.4a.862.862,0,0,1,.777-1.3q.66.04,1.285.114a11.543,11.543,0,0,1-.846-3.673A5.958,5.958,0,0,1,3.6,188.668L0,186.254l4.245-1.642a5.811,5.811,0,0,1,5.1-3.1,5.916,5.916,0,0,1,5.79,5.3c0,.021,0,.041,0,.062l.03.656a7.068,7.068,0,0,1,4.158.193c.849-.529,1.893-.958,2.848-1.49a17.232,17.232,0,0,1-7.886-8.282.862.862,0,0,1,.7-1.211c3.33-.3,6.739-2.65,10.036-4.919,3.877-2.669,7.539-5.19,11.2-4.67a8.343,8.343,0,0,1,5.975,12.29,15.439,15.439,0,0,1-9.4,7.412,17.9,17.9,0,0,1-4.79.7c-.36,0-.715-.015-1.067-.042a7.312,7.312,0,0,1,.095,1.718,7.669,7.669,0,0,0,2.165-1.2.861.861,0,0,1,1.35.513,14.043,14.043,0,0,1-1.64,10.486c-.1.158-.2.312-.306.463-.268.572-.616,1.376-1,2.43a11.325,11.325,0,0,1,10.836,0A22.083,22.083,0,0,0,36.87,198.4c-1.787-2.869-1.916-6.656-1.243-9.86a.861.861,0,0,1,1.35-.513l.189.142a7.268,7.268,0,0,0,1.976,1.055,7.292,7.292,0,0,1,.125-1.88,8.3,8.3,0,0,1,1.178-2.921.865.865,0,0,1,1.436,0,8.47,8.47,0,0,0,3.283,2.366c.572.3,1.151.6,1.686.929a7.065,7.065,0,0,1,4.158-.193,5.992,5.992,0,0,1,5.826-6.015,5.811,5.811,0,0,1,5.1,3.1l4.246,1.642-3.6,2.413a5.958,5.958,0,0,1-4.881,4.869,11.552,11.552,0,0,1-.838,3.657c.369-.041.746-.074,1.134-.1a.862.862,0,0,1,.778,1.3,22.033,22.033,0,0,0-1.565,3.52,12.754,12.754,0,0,1,5.366-1.442.861.861,0,0,1,.777,1.3,69.058,69.058,0,0,0-3.451,6.414h5.573a.854.854,0,0,1,0,1.708H48.284a.854.854,0,0,1,0-1.708h9.728c1.042-2.323,2.207-4.456,2.987-5.813a9.664,9.664,0,0,0-4.864,2.366.859.859,0,0,1-1.388-.884,39.311,39.311,0,0,1,1.821-4.916c-3.824.52-6.329,2.1-8.013,5.015a.861.861,0,0,1-1.511-.062c-1.3-2.752-3.981-4.415-7.98-4.953a39.364,39.364,0,0,1,1.822,4.917.859.859,0,0,1-1.388.884,9.664,9.664,0,0,0-4.864-2.366c.78,1.357,1.945,3.489,2.987,5.813h2.124a.854.854,0,0,1,0,1.708H4.839a.854.854,0,1,1,0-1.708h1.3a69.1,69.1,0,0,0-3.451-6.414A.861.861,0,0,1,3.468,200.476Zm43.965-9.807c-.355-.971-1.665-1.647-3.052-2.364a13.868,13.868,0,0,1-3.047-1.92,5.314,5.314,0,0,0,.968,5.886c1.119,1.2,3.7,2.269,4.87.559A2.384,2.384,0,0,0,47.433,190.669Zm.435,11.229a11.328,11.328,0,0,1,6.936-4.364,9.866,9.866,0,0,0,1.2-4.734v-.053a.854.854,0,0,1,.85-.854,4.343,4.343,0,1,0-4.112-4.913l-.082,1.767a.862.862,0,0,1-1.2.739,5.375,5.375,0,0,0-3-.418,4.038,4.038,0,0,1,.124,4.727c-1.825,2.667-5.644,1.663-7.529-.359a7.289,7.289,0,0,1-1.489-2.317,8.846,8.846,0,0,1-2.5-.973,12.076,12.076,0,0,0,1.1,6.988c4.571.377,7.826,1.977,9.7,4.765ZM21.794,188.306c-1.387.716-2.7,1.393-3.052,2.364a2.221,2.221,0,0,0,1.821,3.038,4.365,4.365,0,0,0,3.311-1.436,4.914,4.914,0,0,0,1.357-4.6,6.556,6.556,0,0,0-.39-1.284A13.866,13.866,0,0,1,21.794,188.306Zm10.543-3.1a13.743,13.743,0,0,0,8.371-6.6,6.619,6.619,0,0,0-4.724-9.766c-3.006-.426-6.4,1.911-10,4.386-3.1,2.136-6.3,4.337-9.633,5.031a14.846,14.846,0,0,0,7.429,6.8,4.018,4.018,0,0,0,.51-.631.864.864,0,0,1,1.436,0,8.519,8.519,0,0,1,.684,1.3,14.8,14.8,0,0,0,5.924-.518Zm-4.325,11.919a12.076,12.076,0,0,0,1.1-6.976,8.85,8.85,0,0,1-2.5.975,6.593,6.593,0,0,1-5.96,4.3,3.937,3.937,0,0,1-3.513-5.333,3.587,3.587,0,0,1,.58-1.014,5.374,5.374,0,0,0-3,.418.862.862,0,0,1-1.2-.739l-.082-1.767a4.207,4.207,0,0,0-4.091-3.763,4.344,4.344,0,0,0-.021,8.676.854.854,0,0,1,.85.854v.053a9.864,9.864,0,0,0,1.213,4.757,10.78,10.78,0,0,1,6.884,4.341c2.141-2.9,5.281-4.433,9.746-4.777Zm7.73,11.073c-.984-2.106-2.044-4.018-2.726-5.2-.682,1.178-1.742,3.09-2.726,5.2Zm-27.722,0H28.411c1.042-2.323,2.207-4.456,2.987-5.813a9.664,9.664,0,0,0-4.864,2.366.859.859,0,0,1-1.388-.884,39.309,39.309,0,0,1,1.821-4.916c-3.824.52-6.329,2.1-8.013,5.015a.861.861,0,0,1-1.511-.062c-1.3-2.752-3.981-4.415-7.98-4.953a39.363,39.363,0,0,1,1.822,4.917.859.859,0,0,1-1.388.884,9.664,9.664,0,0,0-4.864-2.366C5.813,203.738,6.978,205.871,8.02,208.194Z" transform="translate(0.285 -167.077)" fill="#333"/>
          <g id="Grupo_1200362" data-name="Grupo 1200362" transform="translate(42.946 40.825)">
            <ellipse id="Elipse_11517" data-name="Elipse 11517" cx="0.998" cy="1" rx="0.998" ry="1" transform="translate(0)" fill="#333"/>
          </g>
          <g id="Grupo_1200363" data-name="Grupo 1200363" transform="translate(0 40.825)">
            <ellipse id="Elipse_11518" data-name="Elipse 11518" cx="0.998" cy="1" rx="0.998" ry="1" fill="#333"/>
          </g>
        </g>
        <g id="Grupo_1200365" data-name="Grupo 1200365" transform="translate(23.339 3.985)">
          <ellipse id="Elipse_11519" data-name="Elipse 11519" cx="3.339" cy="3.339" rx="3.339" ry="3.339" transform="translate(0.68 0.756)" fill="#fff"/>
          <path id="Trazado_1241327" data-name="Trazado 1241327" d="M248.269,36.539A4.269,4.269,0,1,0,244,32.269,4.274,4.274,0,0,0,248.269,36.539Zm0-6.831a2.562,2.562,0,1,1-2.562,2.562A2.565,2.565,0,0,1,248.269,29.708Z" transform="translate(-244 -28)" fill="#333"/>
        </g>
      </g>
    </g>
  </g>
</svg>
