<svg id="chicken_3061655" xmlns="http://www.w3.org/2000/svg" width="51.584" height="54.431" viewBox="0 0 51.584 54.431">
  <g id="Grupo_1200221" data-name="Grupo 1200221" transform="translate(9.351 20.208)">
    <path id="Trazado_1241270" data-name="Trazado 1241270" d="M113.68,213.805a13.021,13.021,0,0,1,4.1-.764c3.071,0,3.071.957,6.142.957a10.137,10.137,0,0,0,1.651-.119,17.553,17.553,0,0,0,12.582-16.833v-5.908a1.044,1.044,0,0,0-1.539-.922,24.87,24.87,0,0,1-11.934,3.05H113.642l-1.187.814a1.528,1.528,0,0,1-1.729,0l-.322-.221a1.528,1.528,0,0,0-1.729,0l-.32.22a1.528,1.528,0,0,1-1.729,0l-.321-.22a1.528,1.528,0,0,0-1.729,0l-.32.22a1.528,1.528,0,0,1-1.729,0l-1.185-.813v3.78A17.552,17.552,0,0,0,113.68,213.805Z" transform="translate(-101.342 -190.088)" fill="#e7a561"/>
  </g>
  <g id="Grupo_1200222" data-name="Grupo 1200222" transform="translate(9.351 7.784)">
    <path id="Trazado_1241271" data-name="Trazado 1241271" d="M113.642,88.822l-1.186.814a1.528,1.528,0,0,1-1.729,0l-.322-.221a1.528,1.528,0,0,0-1.729,0l-.32.22a1.528,1.528,0,0,1-1.729,0l-.321-.22a1.528,1.528,0,0,0-1.729,0l-.32.22a1.528,1.528,0,0,1-1.729,0l-1.185-.813V78.383A5.163,5.163,0,0,1,106.5,73.22a7.137,7.137,0,0,1,7.138,7.137v8.465Z" transform="translate(-101.342 -73.22)" fill="#e7a561"/>
  </g>
  <g id="Grupo_1200223" data-name="Grupo 1200223" transform="translate(17.004 20.208)">
    <path id="Trazado_1241272" data-name="Trazado 1241272" d="M200.959,190.215a24.894,24.894,0,0,1-2.713,1.278v3.426a17.552,17.552,0,0,1-12.582,16.833,10.137,10.137,0,0,1-1.651.119c-3.071,0-3.071-.957-6.142-.957a13.022,13.022,0,0,0-4.1.764q-.218-.067-.433-.141a17.474,17.474,0,0,0,4.685,2.267,13.021,13.021,0,0,1,4.1-.764c3.071,0,3.071.957,6.142.957a10.131,10.131,0,0,0,1.651-.119A17.552,17.552,0,0,0,202.5,197.045v-5.908A1.044,1.044,0,0,0,200.959,190.215Z" transform="translate(-173.334 -190.087)" fill="#e49542"/>
  </g>
  <g id="Grupo_1200224" data-name="Grupo 1200224" transform="translate(9.351 7.838)">
    <path id="Trazado_1241273" data-name="Trazado 1241273" d="M107.387,73.728a7.114,7.114,0,0,1,2,4.957v7.026a2.731,2.731,0,0,1-1.186,2.252,1.528,1.528,0,0,1-1.729,0l-.322-.221a1.528,1.528,0,0,0-1.729,0l-.32.22a1.528,1.528,0,0,1-1.729,0l-.321-.22a1.525,1.525,0,0,0-.712-.26v1.793l1.185.813a1.528,1.528,0,0,0,1.729,0l.32-.22a1.528,1.528,0,0,1,1.729,0l.321.22a1.528,1.528,0,0,0,1.729,0l.32-.22a1.528,1.528,0,0,1,1.729,0l.322.221a1.528,1.528,0,0,0,1.729,0l1.187-.814V80.811a7.139,7.139,0,0,0-6.255-7.083Z" transform="translate(-101.341 -73.728)" fill="#e49542"/>
  </g>
  <g id="Grupo_1200225" data-name="Grupo 1200225" transform="translate(5.419 14.252)">
    <path id="Trazado_1241274" data-name="Trazado 1241274" d="M64.641,138h3.651v-3.931h-.645a3.286,3.286,0,0,0-3.286,3.286v.365A.28.28,0,0,0,64.641,138Z" transform="translate(-64.361 -134.067)" fill="#ffe07d"/>
  </g>
  <g id="Grupo_1200226" data-name="Grupo 1200226" transform="translate(19.216 26.902)">
    <path id="Trazado_1241275" data-name="Trazado 1241275" d="M202.3,266.577H200.9a6.761,6.761,0,0,1,0-13.522h11.8a1.563,1.563,0,0,1,1.563,1.563A11.959,11.959,0,0,1,202.3,266.577Z" transform="translate(-194.135 -253.055)" fill="#efc89d"/>
  </g>
  <g id="Grupo_1200227" data-name="Grupo 1200227" transform="translate(5.836 18.184)">
    <path id="Trazado_1241276" data-name="Trazado 1241276" d="M70.042,177.04a1.755,1.755,0,0,0,1.756-1.755v-4.238l-3,3A1.755,1.755,0,0,0,70.042,177.04Z" transform="translate(-68.283 -171.047)" fill="#e28086"/>
  </g>
  <g id="Grupo_1200228" data-name="Grupo 1200228" transform="translate(6.568 0.797)">
    <path id="Trazado_1241277" data-name="Trazado 1241277" d="M78.82,16.777a5.158,5.158,0,0,1,4.289-2.289,7.12,7.12,0,0,1,2.556.471l.817-.219a4.9,4.9,0,0,0,3.468-6.006l-.216-.806a.576.576,0,0,0-.705-.407L83.315,9.053a3.142,3.142,0,0,0-1.55.96,2.24,2.24,0,0,1-2.417.661,3.157,3.157,0,1,0-.528,6.1Z" transform="translate(-75.164 -7.502)" fill="#e28086"/>
  </g>
  <g id="Grupo_1200229" data-name="Grupo 1200229" transform="translate(1.473 43.161)">
    <path id="Trazado_1241278" data-name="Trazado 1241278" d="M75.851,407.068a.818.818,0,0,0-.872-1.017c-1.989.2-2.364.9-5,.9-3.071,0-3.071-.957-6.143-.957s-3.071.957-6.142.957S54.626,406,51.555,406s-3.071.957-6.142.957S42.342,406,39.271,406s-3.071.957-6.142.957c-2.632,0-3.008-.7-5-.9a.818.818,0,0,0-.872,1.017l1.03,4.03a7.139,7.139,0,0,0,6.917,5.372H67.9a7.139,7.139,0,0,0,6.917-5.372Z" transform="translate(-27.235 -405.998)" fill="#b78b7a"/>
  </g>
  <g id="Grupo_1200230" data-name="Grupo 1200230" transform="translate(4.309 43.21)">
    <path id="Trazado_1241279" data-name="Trazado 1241279" d="M98.823,406.459c-1.667.168-2.2.69-3.882.854l-.528,2.067a7.14,7.14,0,0,1-6.917,5.372H54.8a7.153,7.153,0,0,1-.884-.055,7.135,7.135,0,0,0,5.137,2.181h32.7a7.139,7.139,0,0,0,6.917-5.372l1.03-4.03A.818.818,0,0,0,98.823,406.459Z" transform="translate(-53.916 -406.455)" fill="#aa7a63"/>
  </g>
  <path id="Trazado_1241280" data-name="Trazado 1241280" d="M194.193,247.149h.528a.8.8,0,0,0,0-1.595h-.528a7.558,7.558,0,0,0,0,15.116H195.6a12.77,12.77,0,0,0,12.756-12.756,2.363,2.363,0,0,0-2.36-2.36h-7.555a.8.8,0,0,0,0,1.595h1.111a4.152,4.152,0,0,1-4.05,5.018.8.8,0,0,0,0,1.595,5.742,5.742,0,0,0,5.667-6.612H202.8a7.354,7.354,0,0,1-7.294,8.226h-1.31a.8.8,0,0,0,0,1.595h1.31a8.948,8.948,0,0,0,8.9-9.82H206a.766.766,0,0,1,.765.766A11.174,11.174,0,0,1,195.6,259.076h-1.407a5.963,5.963,0,0,1,0-11.927Z" transform="translate(-168.217 -219.449)"/>
  <path id="Trazado_1241281" data-name="Trazado 1241281" d="M64.171,48.678a5.809,5.809,0,0,1-.994-.076c.031-.113.22-.854,1.068-4.172a1.615,1.615,0,0,0-1.725-2.008c-2.131.215-2.411.9-4.917.9-2.684,0-2.843-.79-5.367-.936a18.272,18.272,0,0,0,8.113-15.219V21.259a1.841,1.841,0,0,0-2.719-1.621A24.142,24.142,0,0,1,46.078,22.59H35.832V21.213a.8.8,0,1,0-1.595,0v1.754l-.84.576a.736.736,0,0,1-.827,0l-.322-.221a2.34,2.34,0,0,0-2.631,0l-.32.22a.736.736,0,0,1-.827,0l-.321-.22a2.34,2.34,0,0,0-2.632,0l-.32.219a.735.735,0,0,1-.827,0l-.839-.576V12.948A4.371,4.371,0,0,1,27.9,8.582a6.347,6.347,0,0,1,6.34,6.34v2.782a.8.8,0,1,0,1.595,0V14.923A7.931,7.931,0,0,0,32.47,8.442a5.7,5.7,0,0,0,3.039-6.617l-.216-.806A1.374,1.374,0,0,0,33.611.048L27.9,1.58a3.938,3.938,0,0,0-1.942,1.2,1.448,1.448,0,0,1-1.559.434,3.928,3.928,0,0,0-2.465-.035,3.957,3.957,0,0,0,.393,7.654,5.932,5.932,0,0,0-.387,2.112v.511a4.088,4.088,0,0,0-3.931,4.081V17.9a1.079,1.079,0,0,0,1.078,1.078h1.726l-1.636,1.636a2.553,2.553,0,0,0,2.763,4.171v2.378a18.229,18.229,0,0,0,3.3,10.5.8.8,0,1,0,1.306-.914,16.643,16.643,0,0,1-3.016-9.591V24.9a2.34,2.34,0,0,0,2.569-.042l.32-.22a.736.736,0,0,1,.827,0l.321.22a2.339,2.339,0,0,0,2.631,0l.32-.22a.735.735,0,0,1,.827,0l.322.221a2.34,2.34,0,0,0,2.631,0l.983-.674h10.8a25.74,25.74,0,0,0,12.316-3.148.227.227,0,0,1,.235.006.245.245,0,0,1,.124.217v5.908A16.839,16.839,0,0,1,46.8,43.22a9.418,9.418,0,0,1-1.478.1c-2.868,0-2.955-.957-6.142-.957A12.029,12.029,0,0,0,35.1,43.1a16.839,16.839,0,0,1-6.176-3.618.8.8,0,1,0-1.081,1.172,18.433,18.433,0,0,0,3.488,2.527c-1.343-.255-2.021-.816-4.443-.816-3.2,0-3.258.957-6.142.957-2.52,0-2.768-.683-4.916-.9a1.615,1.615,0,0,0-1.725,2.008l.725,2.837c-.2-.016-.419-.024-.654-.024a.8.8,0,1,0,0,1.595,5.616,5.616,0,0,1,1.095.095,7.932,7.932,0,0,0,7.553,5.5h32.7a7.933,7.933,0,0,0,7.067-4.322,7.009,7.009,0,0,0,1.579.163.8.8,0,0,0,0-1.595ZM21.936,22.423a.959.959,0,0,1-.958.958.958.958,0,0,1-.678-1.635l1.636-1.636Zm0-5.035H19.6a2.492,2.492,0,0,1,2.332-2.332ZM20.794,7.419A2.377,2.377,0,0,1,22.4,4.7a2.346,2.346,0,0,1,1.471.02,3.038,3.038,0,0,0,3.275-.887,2.349,2.349,0,0,1,1.158-.717l5.5-1.474.159.592a4.1,4.1,0,0,1-2.9,5.03l-.577.155A7.9,7.9,0,0,0,27.9,6.988a5.954,5.954,0,0,0-4.723,2.329,2.354,2.354,0,0,1-2.38-1.9ZM62.7,44.035c-1.415,5.535-.927,3.626-1.032,4.039a6.271,6.271,0,0,0-2.818-.592c-2.821,0-2.937,1.2-5.321,1.2s-2.5-1.2-5.321-1.2a.8.8,0,1,0,0,1.595c2.4,0,2.483,1.2,5.321,1.2s2.921-1.2,5.321-1.2a4.738,4.738,0,0,1,2.23.481,6.339,6.339,0,0,1-5.555,3.279h-32.7a6.339,6.339,0,0,1-5.467-3.126,6.428,6.428,0,0,0,2.141.322c2.821,0,2.937-1.2,5.321-1.2s2.5,1.2,5.321,1.2a.8.8,0,0,0,0-1.595c-2.4,0-2.483-1.2-5.321-1.2s-2.921,1.2-5.321,1.2a6.138,6.138,0,0,1-2.922-.779l-.926-3.624a.018.018,0,0,1,0-.02c.006-.007.008-.007.014-.006,1.849.187,2.318.908,5.076.908,3.192,0,3.262-.957,6.142-.957s2.955.957,6.142.957,3.258-.957,6.142-.957c2.868,0,2.955.957,6.142.957s3.262-.957,6.142-.957,2.955.957,6.143.957c2.769,0,3.217-.72,5.077-.908.005,0,.008,0,.014.006a.018.018,0,0,1,.005.02Z" transform="translate(-13.383 -0.001)"/>
</svg>
