<svg xmlns="http://www.w3.org/2000/svg" width="315.069" height="236.533" viewBox="0 0 315.069 236.533">
  <g id="Grupo_1202391" data-name="Grupo 1202391" transform="translate(-389.931 -1982)">
    <path id="Rectángulo_412252" data-name="Rectángulo 412252" d="M15,0H315.069a0,0,0,0,1,0,0V236.533a0,0,0,0,1,0,0H15a15,15,0,0,1-15-15V15A15,15,0,0,1,15,0Z" transform="translate(389.931 1982)" fill="#e9ece8"/>
    <g id="_41281314_titans_6_livestock_chicken_7" data-name="41281314_titans_6_livestock_chicken_7" transform="translate(435.931 1997)">
      <g id="Grupo_1202390" data-name="Grupo 1202390" transform="translate(0 0)">
        <g id="Grupo_1202014" data-name="Grupo 1202014" transform="translate(0 44.621)">
          <path id="Trazado_1292787" data-name="Trazado 1292787" d="M315,772.884H526.778S535.5,693.992,502.586,640.8s-113.665-45.032-146.712,0S308.8,755.511,315,772.884Z" transform="translate(-313.566 -603.905)" fill="#acbaaa"/>
        </g>
        <g id="Grupo_1202047" data-name="Grupo 1202047" transform="translate(168.49 95.67)">
          <g id="Grupo_1202016" data-name="Grupo 1202016" transform="translate(28.853 4.733)">
            <g id="Grupo_1202015" data-name="Grupo 1202015">
              <path id="Trazado_1292788" data-name="Trazado 1292788" d="M1671.236,987.3a12.031,12.031,0,0,1,.068,1.207c-.017.383-.553.816-.816.935s-.606-.553-.516-.935S1671.236,987.3,1671.236,987.3Z" transform="translate(-1669.958 -987.304)" fill="#ff5f4a"/>
            </g>
          </g>
          <g id="Grupo_1202018" data-name="Grupo 1202018" transform="translate(0 1.253)">
            <g id="Grupo_1202017" data-name="Grupo 1202017">
              <path id="Trazado_1292789" data-name="Trazado 1292789" d="M1502.951,965.577s-.306-2.551-3.469-2.143-7.686,7.788-10.339,8.571a13.5,13.5,0,0,1-7.619.2c-2.721-.68-3.979-3.231-5.373-3.605,0,0,.1-2.313-1.258-2.585s-2.041,1.531-2.041,1.531-.85-.272-1.156.85.918,4.421.918,4.421-1.19.782-.2,2.959c0,0-1.36,3.027,1.19,4.319,0,0-1.21,5.071,1.633,7.04.946.655,4.218,1.406,4.286,1.678s1.48-.046,2.857-.046c6.245,0,7.788-2.992,12.005-4.148s3.945-10.985,4.456-12.958,3.146-4.9,3.52-5.153A1,1,0,0,0,1502.951,965.577Z" transform="translate(-1471.646 -963.39)" fill="#7f635d"/>
            </g>
          </g>
          <g id="Grupo_1202020" data-name="Grupo 1202020" transform="translate(27.937)">
            <g id="Grupo_1202019" data-name="Grupo 1202019">
              <path id="Trazado_1292790" data-name="Trazado 1292790" d="M1664.382,956.193a1.334,1.334,0,0,1-.714-1c-.017-.646,1.017-.431,1.087-.057s.353-.227.534-.272.522.272.567.488-.011.669.193.567-.068-.76.442-.646.2,1.054.465,1.1.34-.519.612-.339-.295.7-.114.849.4.068.408.4a.773.773,0,0,1-.68.839c-.51.045-.725-.635-1.247-1.145A2.157,2.157,0,0,0,1664.382,956.193Z" transform="translate(-1663.667 -954.776)" fill="#ff5f4a"/>
            </g>
          </g>
          <g id="Grupo_1202022" data-name="Grupo 1202022" transform="translate(27.826 4.169)">
            <g id="Grupo_1202021" data-name="Grupo 1202021">
              <path id="Trazado_1292791" data-name="Trazado 1292791" d="M1664.953,983.431a1.323,1.323,0,0,1-.1.358c-.074.15.005.72-.129.909s-.017.978-.595,1.235-.843-.1-1.029-.417-.293-.6-.094-.786.394-.277.43-.519S1664.953,983.431,1664.953,983.431Z" transform="translate(-1662.9 -983.431)" fill="#ff5f4a"/>
            </g>
          </g>
          <g id="Grupo_1202024" data-name="Grupo 1202024" transform="translate(27.013 2.03)">
            <g id="Grupo_1202023" data-name="Grupo 1202023">
              <path id="Trazado_1292792" data-name="Trazado 1292792" d="M1660.575,969.925s-.453-.907-1.054-1.122a2.756,2.756,0,0,0-1.87.283c-.272.181-.408,1.213-.295,1.836s.363.624,1.032.51,1.95-.249,2.086-.725A2.254,2.254,0,0,0,1660.575,969.925Z" transform="translate(-1657.315 -968.73)" fill="#ff5f4a"/>
            </g>
          </g>
          <g id="Grupo_1202026" data-name="Grupo 1202026" transform="translate(28.241 2.241)">
            <g id="Grupo_1202025" data-name="Grupo 1202025">
              <path id="Trazado_1292793" data-name="Trazado 1292793" d="M1665.809,970.377a.509.509,0,0,1,.884.476.642.642,0,0,1-.808,0A.374.374,0,0,1,1665.809,970.377Z" transform="translate(-1665.755 -970.182)" fill="#434a59"/>
            </g>
          </g>
          <g id="Grupo_1202028" data-name="Grupo 1202028" transform="translate(28.246 2.243)">
            <g id="Grupo_1202027" data-name="Grupo 1202027">
              <path id="Trazado_1292794" data-name="Trazado 1292794" d="M1665.851,970.366a.474.474,0,0,1,.232-.155.421.421,0,0,1,.53.331c.02.264-.088.453-.306.463a.523.523,0,0,1-.509-.326A.42.42,0,0,1,1665.851,970.366Z" transform="translate(-1665.788 -970.193)" fill="#ffae43"/>
            </g>
          </g>
          <g id="Grupo_1202031" data-name="Grupo 1202031" transform="translate(28.229 2.226)">
            <g id="Grupo_1202030" data-name="Grupo 1202030">
              <g id="Grupo_1202029" data-name="Grupo 1202029">
                <path id="Trazado_1292795" data-name="Trazado 1292795" d="M1665.681,970.584a.436.436,0,0,1,.055-.326.49.49,0,0,1,.24-.161.434.434,0,0,1,.366.056.375.375,0,0,1,.188.29.51.51,0,0,1-.1.379.31.31,0,0,1-.224.1h-.021A.539.539,0,0,1,1665.681,970.584Zm.307-.456a.469.469,0,0,0-.224.148h0a.4.4,0,0,0-.05.3.511.511,0,0,0,.491.313.275.275,0,0,0,.2-.091.477.477,0,0,0,.089-.354.341.341,0,0,0-.172-.263.455.455,0,0,0-.234-.071A.28.28,0,0,0,1665.988,970.129Z" transform="translate(-1665.67 -970.077)" fill="#434a59"/>
              </g>
            </g>
          </g>
          <g id="Grupo_1202033" data-name="Grupo 1202033" transform="translate(28.519 2.502)">
            <g id="Grupo_1202032" data-name="Grupo 1202032">
              <path id="Trazado_1292796" data-name="Trazado 1292796" d="M1667.662,972.147a.174.174,0,1,0,.174-.174A.175.175,0,0,0,1667.662,972.147Z" transform="translate(-1667.662 -971.973)" fill="#434a59"/>
            </g>
          </g>
          <g id="Grupo_1202035" data-name="Grupo 1202035" transform="translate(29.32 3.094)">
            <g id="Grupo_1202034" data-name="Grupo 1202034">
              <path id="Trazado_1292797" data-name="Trazado 1292797" d="M1674.715,976.049a.3.3,0,0,1,.292.083,4.56,4.56,0,0,0,.549.474c.391.28.845.53.782,1.071,0,0-2.006-.408-2.738-.51s-.4-.508.051-.561C1674.473,976.508,1674.457,976.124,1674.715,976.049Z" transform="translate(-1673.172 -976.039)" fill="#ffae43"/>
            </g>
          </g>
          <g id="Grupo_1202040" data-name="Grupo 1202040" transform="translate(0 3.854)">
            <g id="Grupo_1202037" data-name="Grupo 1202037">
              <g id="Grupo_1202036" data-name="Grupo 1202036">
                <path id="Trazado_1292798" data-name="Trazado 1292798" d="M1472.409,991.058c-.986-2.177.2-2.959.2-2.959s-1.224-3.3-.918-4.422,1.157-.85,1.157-.85.68-1.8,2.041-1.531,1.258,2.585,1.258,2.585a6.509,6.509,0,0,0-1.644,3.435c-.022,1.655-.975,4.127-.612,4.739s-.295,3.322-.295,3.322C1471.048,994.085,1472.409,991.058,1472.409,991.058Z" transform="translate(-1471.646 -981.269)" fill="#5b4743"/>
              </g>
            </g>
            <g id="Grupo_1202039" data-name="Grupo 1202039" transform="translate(1.698 14.108)">
              <g id="Grupo_1202038" data-name="Grupo 1202038">
                <path id="Trazado_1292799" data-name="Trazado 1292799" d="M1485.2,1085.278c-2.842-1.969-1.632-7.04-1.632-7.04s3.083,5.974,4.354,6.315,1.9.544,1.9.907a5.516,5.516,0,0,1-.376,1.45C1489.089,1086.606,1486.1,1085.9,1485.2,1085.278Z" transform="translate(-1483.316 -1078.238)" fill="#5b4743"/>
              </g>
            </g>
          </g>
          <g id="Grupo_1202042" data-name="Grupo 1202042" transform="translate(1.031 4.46)">
            <g id="Grupo_1202041" data-name="Grupo 1202041">
              <path id="Trazado_1292800" data-name="Trazado 1292800" d="M1481.576,988.489a.928.928,0,0,0,.19-.932c-.325-.939-.97-2.571-1.364-2.012a6.637,6.637,0,0,0-.907,2.331c-.114.526-.885-.218-.748.618s.952,2.419,1.066,3.385.907.972,1,.38C1480.89,991.727,1480.588,989.562,1481.576,988.489Z" transform="translate(-1478.73 -985.431)" fill="#7f635d"/>
            </g>
          </g>
          <g id="Grupo_1202044" data-name="Grupo 1202044" transform="translate(4.182 13.319)">
            <g id="Grupo_1202043" data-name="Grupo 1202043">
              <path id="Trazado_1292801" data-name="Trazado 1292801" d="M1500.715,1051.1l.034,0a7.5,7.5,0,0,0,4.933-2.351,6,6,0,0,0,1.241-2,.324.324,0,0,0-.617-.2,5.479,5.479,0,0,1-1.125,1.787,6.833,6.833,0,0,1-4.5,2.12.324.324,0,0,0,.032.646Z" transform="translate(-1500.392 -1046.324)" fill="#5b4743"/>
            </g>
          </g>
          <g id="Grupo_1202046" data-name="Grupo 1202046" transform="translate(6.184 17.004)">
            <g id="Grupo_1202045" data-name="Grupo 1202045">
              <path id="Trazado_1292802" data-name="Trazado 1292802" d="M1522.759,1075.06a13.368,13.368,0,0,0,5.114-1.09,14.615,14.615,0,0,0,3.1-1.744.324.324,0,0,0-.4-.51c-.054.043-4.651,3.576-9.855,2.488-5.133-1.072-5.949-2.372-5.956-2.385a.324.324,0,0,0-.572.3c.084.159.978,1.584,6.4,2.716A10.62,10.62,0,0,0,1522.759,1075.06Z" transform="translate(-1514.153 -1071.647)" fill="#5b4743"/>
            </g>
          </g>
        </g>
        <g id="Grupo_1202080" data-name="Grupo 1202080" transform="translate(120.641 95.67)">
          <g id="Grupo_1202049" data-name="Grupo 1202049" transform="translate(2.291 4.733)">
            <g id="Grupo_1202048" data-name="Grupo 1202048">
              <path id="Trazado_1292803" data-name="Trazado 1292803" d="M1158.583,987.3a12.057,12.057,0,0,0-.068,1.207c.017.383.553.816.817.935s.606-.553.516-.935S1158.583,987.3,1158.583,987.3Z" transform="translate(-1158.512 -987.304)" fill="#ff5f4a"/>
            </g>
          </g>
          <g id="Grupo_1202051" data-name="Grupo 1202051" transform="translate(1.188 1.253)">
            <g id="Grupo_1202050" data-name="Grupo 1202050">
              <path id="Trazado_1292804" data-name="Trazado 1292804" d="M1150.93,965.577s.306-2.551,3.469-2.143,7.687,7.788,10.339,8.571a13.5,13.5,0,0,0,7.618.2c2.721-.68,3.979-3.231,5.374-3.605,0,0-.1-2.313,1.258-2.585s2.041,1.531,2.041,1.531.85-.272,1.156.85-.918,4.421-.918,4.421,1.19.782.2,2.959c0,0,1.36,3.027-1.19,4.319,0,0,1.21,5.071-1.633,7.04-.946.655-4.217,1.406-4.286,1.678s-1.479-.046-2.857-.046c-6.246,0-7.788-2.992-12.005-4.148s-3.945-10.985-4.455-12.958-3.146-4.9-3.52-5.153A1,1,0,0,1,1150.93,965.577Z" transform="translate(-1150.93 -963.39)" fill="#7f635d"/>
            </g>
          </g>
          <g id="Grupo_1202053" data-name="Grupo 1202053" transform="translate(0.359)">
            <g id="Grupo_1202052" data-name="Grupo 1202052">
              <path id="Trazado_1292805" data-name="Trazado 1292805" d="M1148.718,956.193a1.333,1.333,0,0,0,.714-1c.017-.646-1.017-.431-1.087-.057s-.353-.227-.534-.272-.521.272-.567.488.011.669-.193.567.068-.76-.442-.646-.2,1.054-.465,1.1-.34-.519-.612-.339.295.7.114.849-.4.068-.408.4a.773.773,0,0,0,.68.839c.51.045.725-.635,1.247-1.145A2.157,2.157,0,0,1,1148.718,956.193Z" transform="translate(-1145.236 -954.776)" fill="#ff5f4a"/>
            </g>
          </g>
          <g id="Grupo_1202055" data-name="Grupo 1202055" transform="translate(2.613 4.169)">
            <g id="Grupo_1202054" data-name="Grupo 1202054">
              <path id="Trazado_1292806" data-name="Trazado 1292806" d="M1160.729,983.431a1.316,1.316,0,0,0,.1.358c.074.15-.005.72.129.909s.018.978.595,1.235.843-.1,1.029-.417.293-.6.094-.786-.394-.277-.43-.519S1160.729,983.431,1160.729,983.431Z" transform="translate(-1160.729 -983.431)" fill="#ff5f4a"/>
            </g>
          </g>
          <g id="Grupo_1202057" data-name="Grupo 1202057" transform="translate(2.216 2.03)">
            <g id="Grupo_1202056" data-name="Grupo 1202056">
              <path id="Trazado_1292807" data-name="Trazado 1292807" d="M1158,969.925s.453-.907,1.054-1.122a2.757,2.757,0,0,1,1.871.283c.272.181.408,1.213.295,1.836s-.363.624-1.032.51-1.95-.249-2.086-.725A2.243,2.243,0,0,1,1158,969.925Z" transform="translate(-1157.995 -968.73)" fill="#ff5f4a"/>
            </g>
          </g>
          <g id="Grupo_1202059" data-name="Grupo 1202059" transform="translate(3.275 2.241)">
            <g id="Grupo_1202058" data-name="Grupo 1202058">
              <path id="Trazado_1292808" data-name="Trazado 1292808" d="M1166.2,970.377a.509.509,0,0,0-.884.476.642.642,0,0,0,.808,0A.374.374,0,0,0,1166.2,970.377Z" transform="translate(-1165.278 -970.182)" fill="#434a59"/>
            </g>
          </g>
          <g id="Grupo_1202061" data-name="Grupo 1202061" transform="translate(3.419 2.243)">
            <g id="Grupo_1202060" data-name="Grupo 1202060">
              <path id="Trazado_1292809" data-name="Trazado 1292809" d="M1167.029,970.366a.474.474,0,0,0-.232-.155.421.421,0,0,0-.531.331c-.02.264.088.453.306.463a.524.524,0,0,0,.509-.326A.421.421,0,0,0,1167.029,970.366Z" transform="translate(-1166.264 -970.193)" fill="#ffae43"/>
            </g>
          </g>
          <g id="Grupo_1202064" data-name="Grupo 1202064" transform="translate(3.402 2.226)">
            <g id="Grupo_1202063" data-name="Grupo 1202063">
              <g id="Grupo_1202062" data-name="Grupo 1202062">
                <path id="Trazado_1292810" data-name="Trazado 1292810" d="M1166.494,970.924h-.021a.311.311,0,0,1-.225-.1.511.511,0,0,1-.1-.379.376.376,0,0,1,.188-.29.436.436,0,0,1,.366-.056.49.49,0,0,1,.24.161.436.436,0,0,1,.055.326A.539.539,0,0,1,1166.494,970.924Zm.1-.813a.456.456,0,0,0-.235.07.344.344,0,0,0-.172.263.478.478,0,0,0,.089.354.275.275,0,0,0,.2.091.512.512,0,0,0,.492-.313.407.407,0,0,0-.05-.3h0a.466.466,0,0,0-.223-.148A.285.285,0,0,0,1166.59,970.111Z" transform="translate(-1166.148 -970.077)" fill="#434a59"/>
              </g>
            </g>
          </g>
          <g id="Grupo_1202066" data-name="Grupo 1202066" transform="translate(3.625 2.502)">
            <g id="Grupo_1202065" data-name="Grupo 1202065">
              <path id="Trazado_1292811" data-name="Trazado 1292811" d="M1168.032,972.147a.174.174,0,1,1-.175-.174A.174.174,0,0,1,1168.032,972.147Z" transform="translate(-1167.683 -971.973)" fill="#434a59"/>
            </g>
          </g>
          <g id="Grupo_1202068" data-name="Grupo 1202068" transform="translate(0 3.094)">
            <g id="Grupo_1202067" data-name="Grupo 1202067">
              <path id="Trazado_1292812" data-name="Trazado 1292812" d="M1144.4,976.049a.3.3,0,0,0-.292.083,4.544,4.544,0,0,1-.55.474c-.391.28-.845.53-.782,1.071,0,0,2.006-.408,2.738-.51s.4-.508-.051-.561C1144.638,976.508,1144.654,976.124,1144.4,976.049Z" transform="translate(-1142.766 -976.039)" fill="#ffae43"/>
            </g>
          </g>
          <g id="Grupo_1202073" data-name="Grupo 1202073" transform="translate(24.281 3.854)">
            <g id="Grupo_1202070" data-name="Grupo 1202070" transform="translate(3.705)">
              <g id="Grupo_1202069" data-name="Grupo 1202069">
                <path id="Trazado_1292813" data-name="Trazado 1292813" d="M1338.866,991.058c.986-2.177-.2-2.959-.2-2.959s1.224-3.3.918-4.422-1.157-.85-1.157-.85-.68-1.8-2.04-1.531-1.258,2.585-1.258,2.585a6.508,6.508,0,0,1,1.644,3.435c.023,1.655.975,4.127.612,4.739s.295,3.322.295,3.322C1340.227,994.085,1338.866,991.058,1338.866,991.058Z" transform="translate(-1335.123 -981.269)" fill="#5b4743"/>
              </g>
            </g>
            <g id="Grupo_1202072" data-name="Grupo 1202072" transform="translate(0 14.108)">
              <g id="Grupo_1202071" data-name="Grupo 1202071">
                <path id="Trazado_1292814" data-name="Trazado 1292814" d="M1314.28,1085.278c2.843-1.969,1.633-7.04,1.633-7.04s-3.084,5.974-4.353,6.315-1.9.544-1.9.907a5.515,5.515,0,0,0,.376,1.45C1310.4,1086.606,1313.383,1085.9,1314.28,1085.278Z" transform="translate(-1309.655 -1078.238)" fill="#5b4743"/>
              </g>
            </g>
          </g>
          <g id="Grupo_1202075" data-name="Grupo 1202075" transform="translate(28.374 4.46)">
            <g id="Grupo_1202074" data-name="Grupo 1202074">
              <path id="Trazado_1292815" data-name="Trazado 1292815" d="M1338.031,988.489a.929.929,0,0,1-.19-.932c.325-.939.97-2.571,1.365-2.012a6.645,6.645,0,0,1,.907,2.331c.114.526.885-.218.749.618s-.952,2.419-1.066,3.385-.907.972-1,.38C1338.717,991.727,1339.019,989.562,1338.031,988.489Z" transform="translate(-1337.79 -985.431)" fill="#7f635d"/>
            </g>
          </g>
          <g id="Grupo_1202077" data-name="Grupo 1202077" transform="translate(21.764 13.319)">
            <g id="Grupo_1202076" data-name="Grupo 1202076">
              <path id="Trazado_1292816" data-name="Trazado 1292816" d="M1298.577,1051.1l-.033,0a7.493,7.493,0,0,1-4.933-2.351,6,6,0,0,1-1.242-2,.324.324,0,0,1,.617-.2,5.485,5.485,0,0,0,1.125,1.787,6.831,6.831,0,0,0,4.5,2.12.324.324,0,0,1-.033.646Z" transform="translate(-1292.354 -1046.324)" fill="#5b4743"/>
            </g>
          </g>
          <g id="Grupo_1202079" data-name="Grupo 1202079" transform="translate(9.363 17.004)">
            <g id="Grupo_1202078" data-name="Grupo 1202078">
              <path id="Trazado_1292817" data-name="Trazado 1292817" d="M1215.46,1075.06a13.367,13.367,0,0,1-5.114-1.09,14.616,14.616,0,0,1-3.1-1.744.324.324,0,0,1,.4-.51c.055.043,4.651,3.576,9.855,2.488,5.133-1.072,5.949-2.372,5.956-2.385a.324.324,0,0,1,.573.3c-.084.159-.978,1.584-6.4,2.716A10.62,10.62,0,0,1,1215.46,1075.06Z" transform="translate(-1207.122 -1071.647)" fill="#5b4743"/>
            </g>
          </g>
        </g>
        <g id="Grupo_1202081" data-name="Grupo 1202081" transform="translate(14.819 110.386)">
          <path id="Trazado_1292818" data-name="Trazado 1292818" d="M418.675,1065.89s-3.916-2.828-3.154-5.439,8.376-.959,8.376-.959-2.768-2.342.955-2,17.863,3.608,17.863,3.608a3.727,3.727,0,0,1,2.828-2.61c2.284-.435,0,3.182,0,3.182s5.221-5.03,8.049-4.215-1.305,3.535-1.305,3.535,19.1-3.154,24.124-2.5,21.778-.109,27,.653,7.612.109,10.278.762,3.536-.979,3.536-.979-6.418-2.284-2.284-2.937,12.944,3.807,12.944,3.807-2.937-2.5,0-2.284,9.79,2.937,9.79,2.937,5-3.7,6.635-2.611l1.632,1.088s8.376-2.828,12.944-1.2-1.2,3.807-1.2,3.807,14.576-4.094,15.446-1.666,0,2.863,0,2.863,12.835-4.2,15.446-2.863,2.5,1.775,2.5,1.775,20.667-3,21.537-.739-1.911,3.513-1.911,3.513-14.623,2.5-27.676,3.535-104.531,1.414-113.886,1.088S418.675,1065.89,418.675,1065.89Z" transform="translate(-415.423 -1055.927)" fill="#ffae43"/>
        </g>
        <g id="Grupo_1202140" data-name="Grupo 1202140" transform="translate(161.919 173.148)">
          <g id="Grupo_1202135" data-name="Grupo 1202135" transform="translate(0 0)">
            <g id="Grupo_1202134" data-name="Grupo 1202134">
              <g id="Grupo_1202083" data-name="Grupo 1202083" transform="translate(2.36 4.875)">
                <g id="Grupo_1202082" data-name="Grupo 1202082">
                  <path id="Trazado_1292819" data-name="Trazado 1292819" d="M1442.771,1520.809a12.3,12.3,0,0,0-.07,1.244c.017.394.569.841.841.964s.625-.569.531-.964S1442.771,1520.809,1442.771,1520.809Z" transform="translate(-1442.698 -1520.809)" fill="#ff5f4a"/>
                </g>
              </g>
              <g id="Grupo_1202095" data-name="Grupo 1202095" transform="translate(15.457 29.593)">
                <g id="Grupo_1202085" data-name="Grupo 1202085" transform="translate(0.448)">
                  <g id="Grupo_1202084" data-name="Grupo 1202084">
                    <path id="Trazado_1292820" data-name="Trazado 1292820" d="M1541.092,1690.781a.485.485,0,0,0-.349.465v.846a22.476,22.476,0,0,1-1.242,3.527,3.411,3.411,0,0,1-1.631.771c-.654.093-1.589-.023-1.892.234s-.21.631.187.654,1.214-.14,2.383-.234.771-.163,1.168-.093.864.14,1.027-.047.374-.421.374-.421.663.712,1.057.73.526-.456,0-.762a1.437,1.437,0,0,1-.692-.824,1.688,1.688,0,0,0-.219-.333,8.288,8.288,0,0,1,.517-2.322,5.57,5.57,0,0,0,.867-1.786C1542.665,1690.843,1541.858,1690.556,1541.092,1690.781Z" transform="translate(-1535.797 -1690.701)" fill="#d47328"/>
                  </g>
                </g>
                <g id="Grupo_1202087" data-name="Grupo 1202087" transform="translate(0.917 4.442)">
                  <g id="Grupo_1202086" data-name="Grupo 1202086">
                    <path id="Trazado_1292821" data-name="Trazado 1292821" d="M1542.383,1721.655a2.2,2.2,0,0,1-.759.041,7.656,7.656,0,0,0-1.238-.169c-.3.017-.52-.4-.911-.269s-.718.368-.134.613a5.312,5.312,0,0,0,1.261.292c.3.076.683.333.934.327S1542.406,1721.848,1542.383,1721.655Z" transform="translate(-1539.022 -1721.232)" fill="#d47328"/>
                  </g>
                </g>
                <g id="Grupo_1202089" data-name="Grupo 1202089" transform="translate(0.543 4.427)">
                  <g id="Grupo_1202088" data-name="Grupo 1202088">
                    <path id="Trazado_1292822" data-name="Trazado 1292822" d="M1537.425,1721.236a1.075,1.075,0,0,0-.566-.091c-.222.061-.432.254-.4.336s.531-.164.73-.111A.182.182,0,0,0,1537.425,1721.236Z" transform="translate(-1536.453 -1721.13)" fill="#d47328"/>
                  </g>
                </g>
                <g id="Grupo_1202091" data-name="Grupo 1202091" transform="translate(0 5.928)">
                  <g id="Grupo_1202090" data-name="Grupo 1202090">
                    <path id="Trazado_1292823" data-name="Trazado 1292823" d="M1533.508,1731.629a.131.131,0,0,0-.127-.184.825.825,0,0,0-.484.176.36.36,0,0,0-.105.531c.041-.006.158-.45.5-.438C1533.422,1731.718,1533.482,1731.678,1533.508,1731.629Z" transform="translate(-1532.719 -1731.444)" fill="#fab48e"/>
                  </g>
                </g>
                <g id="Grupo_1202094" data-name="Grupo 1202094" transform="translate(6.876 5.829)">
                  <g id="Grupo_1202093" data-name="Grupo 1202093">
                    <g id="Grupo_1202092" data-name="Grupo 1202092">
                      <path id="Trazado_1292824" data-name="Trazado 1292824" d="M1579.978,1730.765a1.619,1.619,0,0,1,.5.234c.134.129.2.374.169.391a.347.347,0,0,1-.175,0,2.134,2.134,0,0,0-.286-.21A2.09,2.09,0,0,1,1579.978,1730.765Z" transform="translate(-1579.978 -1730.765)" fill="#d47328"/>
                    </g>
                  </g>
                </g>
              </g>
              <g id="Grupo_1202107" data-name="Grupo 1202107" transform="translate(12.86 29.85)">
                <g id="Grupo_1202097" data-name="Grupo 1202097" transform="translate(0.448)">
                  <g id="Grupo_1202096" data-name="Grupo 1202096">
                    <path id="Trazado_1292825" data-name="Trazado 1292825" d="M1523.24,1692.547a.485.485,0,0,0-.349.465v.846a22.465,22.465,0,0,1-1.242,3.527,3.41,3.41,0,0,1-1.631.771c-.654.094-1.588-.023-1.892.234s-.21.631.187.654,1.215-.14,2.383-.233.771-.163,1.168-.093.864.14,1.028-.047.374-.42.374-.42.663.713,1.057.73.525-.456,0-.762a1.44,1.44,0,0,1-.692-.823,1.675,1.675,0,0,0-.219-.333,8.293,8.293,0,0,1,.517-2.321,5.581,5.581,0,0,0,.867-1.787C1524.814,1692.608,1524.007,1692.322,1523.24,1692.547Z" transform="translate(-1517.946 -1692.467)" fill="#ffae43"/>
                  </g>
                </g>
                <g id="Grupo_1202099" data-name="Grupo 1202099" transform="translate(0.917 4.442)">
                  <g id="Grupo_1202098" data-name="Grupo 1202098">
                    <path id="Trazado_1292826" data-name="Trazado 1292826" d="M1524.531,1723.421a2.194,2.194,0,0,1-.759.041,7.667,7.667,0,0,0-1.238-.169c-.3.018-.52-.4-.911-.269s-.718.368-.134.613a5.354,5.354,0,0,0,1.261.292c.3.076.684.333.935.327S1524.554,1723.614,1524.531,1723.421Z" transform="translate(-1521.17 -1722.998)" fill="#ffae43"/>
                  </g>
                </g>
                <g id="Grupo_1202101" data-name="Grupo 1202101" transform="translate(0.543 4.427)">
                  <g id="Grupo_1202100" data-name="Grupo 1202100">
                    <path id="Trazado_1292827" data-name="Trazado 1292827" d="M1519.573,1723a1.079,1.079,0,0,0-.567-.091c-.222.061-.432.254-.4.336s.531-.164.73-.111A.182.182,0,0,0,1519.573,1723Z" transform="translate(-1518.601 -1722.896)" fill="#ffae43"/>
                  </g>
                </g>
                <g id="Grupo_1202103" data-name="Grupo 1202103" transform="translate(0 5.928)">
                  <g id="Grupo_1202102" data-name="Grupo 1202102">
                    <path id="Trazado_1292828" data-name="Trazado 1292828" d="M1515.656,1733.394a.131.131,0,0,0-.127-.184.824.824,0,0,0-.484.176.36.36,0,0,0-.105.531c.04-.006.157-.449.5-.438C1515.57,1733.483,1515.631,1733.443,1515.656,1733.394Z" transform="translate(-1514.868 -1733.21)" fill="#ffae43"/>
                  </g>
                </g>
                <g id="Grupo_1202106" data-name="Grupo 1202106" transform="translate(6.876 5.829)">
                  <g id="Grupo_1202105" data-name="Grupo 1202105">
                    <g id="Grupo_1202104" data-name="Grupo 1202104">
                      <path id="Trazado_1292829" data-name="Trazado 1292829" d="M1562.126,1732.531a1.608,1.608,0,0,1,.5.234c.134.128.2.374.169.391a.348.348,0,0,1-.175,0,2.129,2.129,0,0,0-.286-.21A2.076,2.076,0,0,1,1562.126,1732.531Z" transform="translate(-1562.126 -1732.531)" fill="#ffae43"/>
                    </g>
                  </g>
                </g>
              </g>
              <g id="Grupo_1202109" data-name="Grupo 1202109" transform="translate(1.224 1.291)">
                <g id="Grupo_1202108" data-name="Grupo 1202108">
                  <path id="Trazado_1292830" data-name="Trazado 1292830" d="M1434.887,1498.427s.315-2.628,3.573-2.208,7.918,8.023,10.651,8.829a13.907,13.907,0,0,0,7.848.21c2.8-.7,4.1-3.328,5.536-3.714,0,0-.105-2.382,1.3-2.663s2.1,1.577,2.1,1.577.876-.281,1.192.876-.946,4.555-.946,4.555,1.226.806.21,3.048c0,0,1.4,3.118-1.226,4.449,0,0,1.246,5.224-1.682,7.252-.974.675-4.344,1.448-4.414,1.729a4.108,4.108,0,0,1-1.635,2.365c-1.191.771-2.6-.134-3.445.286s-2.172.526-2.733-.175-3.153-5.606-7.5-6.8-4.064-11.317-4.589-13.349-3.241-5.045-3.626-5.308A1.024,1.024,0,0,1,1434.887,1498.427Z" transform="translate(-1434.887 -1496.173)" fill="#af5546"/>
                </g>
              </g>
              <g id="Grupo_1202111" data-name="Grupo 1202111" transform="translate(0.37)">
                <g id="Grupo_1202110" data-name="Grupo 1202110">
                  <path id="Trazado_1292831" data-name="Trazado 1292831" d="M1432.609,1488.76a1.375,1.375,0,0,0,.736-1.034c.017-.666-1.048-.444-1.12-.058s-.364-.234-.551-.28-.537.28-.584.5.011.689-.2.584.07-.783-.455-.666-.21,1.086-.479,1.133-.35-.535-.631-.349.3.723.117.874-.409.07-.42.409a.8.8,0,0,0,.7.864c.525.047.747-.654,1.285-1.18A2.223,2.223,0,0,1,1432.609,1488.76Z" transform="translate(-1429.023 -1487.3)" fill="#ff5f4a"/>
                </g>
              </g>
              <g id="Grupo_1202113" data-name="Grupo 1202113" transform="translate(2.692 4.295)">
                <g id="Grupo_1202112" data-name="Grupo 1202112">
                  <path id="Trazado_1292832" data-name="Trazado 1292832" d="M1444.982,1516.82a1.364,1.364,0,0,0,.1.368c.076.155-.005.742.133.937s.018,1.007.613,1.272.868-.1,1.06-.429.3-.619.1-.81-.407-.285-.443-.534S1444.982,1516.82,1444.982,1516.82Z" transform="translate(-1444.982 -1516.82)" fill="#ff5f4a"/>
                </g>
              </g>
              <g id="Grupo_1202115" data-name="Grupo 1202115" transform="translate(2.282 2.091)">
                <g id="Grupo_1202114" data-name="Grupo 1202114">
                  <path id="Trazado_1292833" data-name="Trazado 1292833" d="M1442.169,1502.905s.467-.934,1.086-1.156a2.84,2.84,0,0,1,1.927.292c.28.187.421,1.25.3,1.892s-.374.642-1.063.526-2.009-.257-2.149-.747A2.3,2.3,0,0,1,1442.169,1502.905Z" transform="translate(-1442.165 -1501.674)" fill="#ff5f4a"/>
                </g>
              </g>
              <g id="Grupo_1202117" data-name="Grupo 1202117" transform="translate(3.374 2.309)">
                <g id="Grupo_1202116" data-name="Grupo 1202116">
                  <path id="Trazado_1292834" data-name="Trazado 1292834" d="M1450.618,1503.373a.524.524,0,0,0-.911.491.662.662,0,0,0,.832,0A.385.385,0,0,0,1450.618,1503.373Z" transform="translate(-1449.667 -1503.171)" fill="#434a59"/>
                </g>
              </g>
              <g id="Grupo_1202119" data-name="Grupo 1202119" transform="translate(3.522 2.311)">
                <g id="Grupo_1202118" data-name="Grupo 1202118">
                  <path id="Trazado_1292835" data-name="Trazado 1292835" d="M1451.472,1503.362a.482.482,0,0,0-.239-.159.434.434,0,0,0-.547.341c-.02.271.091.466.315.477a.541.541,0,0,0,.524-.336A.434.434,0,0,0,1451.472,1503.362Z" transform="translate(-1450.685 -1503.183)" fill="#ffae43"/>
                </g>
              </g>
              <g id="Grupo_1202122" data-name="Grupo 1202122" transform="translate(3.505 2.293)">
                <g id="Grupo_1202121" data-name="Grupo 1202121">
                  <g id="Grupo_1202120" data-name="Grupo 1202120">
                    <path id="Trazado_1292836" data-name="Trazado 1292836" d="M1450.921,1503.935h-.022a.32.32,0,0,1-.232-.106.526.526,0,0,1-.1-.39.386.386,0,0,1,.193-.3.447.447,0,0,1,.377-.058.512.512,0,0,1,.247.166.446.446,0,0,1,.057.336A.555.555,0,0,1,1450.921,1503.935Zm.1-.838a.47.47,0,0,0-.242.073.352.352,0,0,0-.177.271.493.493,0,0,0,.092.364.284.284,0,0,0,.207.094.527.527,0,0,0,.506-.323.418.418,0,0,0-.051-.308h0a.477.477,0,0,0-.23-.152A.284.284,0,0,0,1451.02,1503.1Z" transform="translate(-1450.565 -1503.062)" fill="#434a59"/>
                  </g>
                </g>
              </g>
              <g id="Grupo_1202124" data-name="Grupo 1202124" transform="translate(3.735 2.577)">
                <g id="Grupo_1202123" data-name="Grupo 1202123">
                  <path id="Trazado_1292837" data-name="Trazado 1292837" d="M1452.505,1505.2a.18.18,0,1,1-.18-.179A.18.18,0,0,1,1452.505,1505.2Z" transform="translate(-1452.146 -1505.016)" fill="#434a59"/>
                </g>
              </g>
              <g id="Grupo_1202126" data-name="Grupo 1202126" transform="translate(0 3.187)">
                <g id="Grupo_1202125" data-name="Grupo 1202125">
                  <path id="Trazado_1292838" data-name="Trazado 1292838" d="M1428.156,1509.215a.307.307,0,0,0-.3.086,4.716,4.716,0,0,1-.566.489c-.4.288-.871.546-.806,1.1,0,0,2.067-.42,2.82-.526s.41-.522-.052-.578C1428.406,1509.688,1428.422,1509.292,1428.156,1509.215Z" transform="translate(-1426.477 -1509.204)" fill="#ffc4a4"/>
                </g>
              </g>
              <g id="Grupo_1202131" data-name="Grupo 1202131" transform="translate(25.013 3.97)">
                <g id="Grupo_1202128" data-name="Grupo 1202128" transform="translate(3.817)">
                  <g id="Grupo_1202127" data-name="Grupo 1202127">
                    <path id="Trazado_1292839" data-name="Trazado 1292839" d="M1628.491,1524.674c1.016-2.242-.21-3.048-.21-3.048s1.261-3.4.946-4.555-1.191-.876-1.191-.876-.7-1.857-2.1-1.577-1.3,2.663-1.3,2.663a6.7,6.7,0,0,1,1.693,3.539c.024,1.7,1,4.251.631,4.882s.3,3.422.3,3.422C1629.892,1527.792,1628.491,1524.674,1628.491,1524.674Z" transform="translate(-1624.635 -1514.59)" fill="#8e4238"/>
                  </g>
                </g>
                <g id="Grupo_1202130" data-name="Grupo 1202130" transform="translate(0 14.534)">
                  <g id="Grupo_1202129" data-name="Grupo 1202129">
                    <path id="Trazado_1292840" data-name="Trazado 1292840" d="M1603.164,1621.738c2.928-2.028,1.682-7.252,1.682-7.252s-3.177,6.155-4.485,6.505-1.962.56-1.962.934a5.691,5.691,0,0,0,.387,1.494C1599.162,1623.107,1602.24,1622.379,1603.164,1621.738Z" transform="translate(-1598.399 -1614.486)" fill="#8e4238"/>
                  </g>
                </g>
              </g>
              <g id="Grupo_1202133" data-name="Grupo 1202133" transform="translate(29.23 4.594)">
                <g id="Grupo_1202132" data-name="Grupo 1202132">
                  <path id="Trazado_1292841" data-name="Trazado 1292841" d="M1627.632,1522.029a.956.956,0,0,1-.2-.96c.334-.967,1-2.649,1.406-2.073a6.844,6.844,0,0,1,.934,2.4c.117.541.911-.225.771.637s-.981,2.492-1.1,3.487-.934,1-1.028.391C1628.338,1525.365,1628.649,1523.135,1627.632,1522.029Z" transform="translate(-1627.383 -1518.879)" fill="#af5546"/>
                </g>
              </g>
            </g>
          </g>
          <g id="Grupo_1202137" data-name="Grupo 1202137" transform="translate(22.42 13.721)">
            <g id="Grupo_1202136" data-name="Grupo 1202136">
              <path id="Trazado_1292842" data-name="Trazado 1292842" d="M1586.986,1586.531l-.035,0a7.718,7.718,0,0,1-5.081-2.422,6.189,6.189,0,0,1-1.279-2.062.334.334,0,0,1,.636-.2,5.644,5.644,0,0,0,1.159,1.84,7.036,7.036,0,0,0,4.634,2.184.334.334,0,0,1-.034.665Z" transform="translate(-1580.576 -1581.609)" fill="#8e4238"/>
            </g>
          </g>
          <g id="Grupo_1202139" data-name="Grupo 1202139" transform="translate(9.646 17.516)">
            <g id="Grupo_1202138" data-name="Grupo 1202138">
              <path id="Trazado_1292843" data-name="Trazado 1292843" d="M1501.363,1611.21a13.77,13.77,0,0,1-5.268-1.123,15.032,15.032,0,0,1-3.194-1.8.334.334,0,1,1,.412-.525c.056.044,4.792,3.684,10.153,2.563,5.287-1.1,6.128-2.444,6.135-2.457a.334.334,0,1,1,.59.312c-.086.164-1.008,1.632-6.589,2.8A10.919,10.919,0,0,1,1501.363,1611.21Z" transform="translate(-1492.774 -1607.694)" fill="#8e4238"/>
            </g>
          </g>
        </g>
        <g id="Grupo_1202199" data-name="Grupo 1202199" transform="translate(19.975 175.51)">
          <g id="Grupo_1202194" data-name="Grupo 1202194">
            <g id="Grupo_1202193" data-name="Grupo 1202193">
              <g id="Grupo_1202142" data-name="Grupo 1202142" transform="translate(2.36 4.875)">
                <g id="Grupo_1202141" data-name="Grupo 1202141">
                  <path id="Trazado_1292844" data-name="Trazado 1292844" d="M467.156,1537.045a12.352,12.352,0,0,0-.07,1.244c.018.394.569.841.841.963s.625-.57.531-.963S467.156,1537.045,467.156,1537.045Z" transform="translate(-467.083 -1537.045)" fill="#ff5f4a"/>
                </g>
              </g>
              <g id="Grupo_1202154" data-name="Grupo 1202154" transform="translate(15.458 29.593)">
                <g id="Grupo_1202144" data-name="Grupo 1202144" transform="translate(0.448)">
                  <g id="Grupo_1202143" data-name="Grupo 1202143">
                    <path id="Trazado_1292845" data-name="Trazado 1292845" d="M565.479,1707.017a.486.486,0,0,0-.35.465v.846a22.439,22.439,0,0,1-1.242,3.527,3.409,3.409,0,0,1-1.631.771c-.654.093-1.588-.024-1.892.233s-.21.631.187.654,1.215-.14,2.382-.234.771-.164,1.168-.093.864.14,1.028-.047.374-.42.374-.42.663.712,1.057.73.526-.456,0-.762a1.441,1.441,0,0,1-.692-.823,1.671,1.671,0,0,0-.219-.333,8.277,8.277,0,0,1,.517-2.321,5.587,5.587,0,0,0,.867-1.787C567.052,1707.078,566.245,1706.792,565.479,1707.017Z" transform="translate(-560.184 -1706.937)" fill="#d47328"/>
                  </g>
                </g>
                <g id="Grupo_1202146" data-name="Grupo 1202146" transform="translate(0.917 4.442)">
                  <g id="Grupo_1202145" data-name="Grupo 1202145">
                    <path id="Trazado_1292846" data-name="Trazado 1292846" d="M566.769,1737.89a2.205,2.205,0,0,1-.759.041,7.63,7.63,0,0,0-1.238-.169c-.3.017-.52-.4-.911-.269s-.718.368-.134.613a5.33,5.33,0,0,0,1.261.292c.3.076.683.333.934.327S566.792,1738.083,566.769,1737.89Z" transform="translate(-563.409 -1737.467)" fill="#d47328"/>
                  </g>
                </g>
                <g id="Grupo_1202148" data-name="Grupo 1202148" transform="translate(0.543 4.427)">
                  <g id="Grupo_1202147" data-name="Grupo 1202147">
                    <path id="Trazado_1292847" data-name="Trazado 1292847" d="M561.811,1737.472a1.08,1.08,0,0,0-.566-.091c-.222.061-.432.254-.4.336s.531-.164.73-.111A.183.183,0,0,0,561.811,1737.472Z" transform="translate(-560.839 -1737.366)" fill="#d47328"/>
                  </g>
                </g>
                <g id="Grupo_1202150" data-name="Grupo 1202150" transform="translate(0 5.928)">
                  <g id="Grupo_1202149" data-name="Grupo 1202149">
                    <path id="Trazado_1292848" data-name="Trazado 1292848" d="M557.894,1747.864a.131.131,0,0,0-.127-.184.828.828,0,0,0-.484.176.36.36,0,0,0-.105.531c.041-.005.158-.449.5-.438C557.808,1747.953,557.869,1747.913,557.894,1747.864Z" transform="translate(-557.106 -1747.679)" fill="#fab48e"/>
                  </g>
                </g>
                <g id="Grupo_1202153" data-name="Grupo 1202153" transform="translate(6.876 5.829)">
                  <g id="Grupo_1202152" data-name="Grupo 1202152">
                    <g id="Grupo_1202151" data-name="Grupo 1202151">
                      <path id="Trazado_1292849" data-name="Trazado 1292849" d="M604.364,1747a1.61,1.61,0,0,1,.5.233c.134.129.2.374.169.391a.349.349,0,0,1-.175,0,2.167,2.167,0,0,0-.286-.21A2.089,2.089,0,0,1,604.364,1747Z" transform="translate(-604.364 -1747.001)" fill="#d47328"/>
                    </g>
                  </g>
                </g>
              </g>
              <g id="Grupo_1202166" data-name="Grupo 1202166" transform="translate(12.86 29.85)">
                <g id="Grupo_1202156" data-name="Grupo 1202156" transform="translate(0.448)">
                  <g id="Grupo_1202155" data-name="Grupo 1202155">
                    <path id="Trazado_1292850" data-name="Trazado 1292850" d="M547.626,1708.783a.485.485,0,0,0-.35.465v.846a22.455,22.455,0,0,1-1.242,3.527,3.41,3.41,0,0,1-1.631.771c-.654.093-1.588-.023-1.892.233s-.21.63.187.654,1.215-.14,2.382-.233.771-.164,1.168-.094.864.14,1.028-.046.374-.421.374-.421.663.712,1.057.73.525-.455,0-.762a1.437,1.437,0,0,1-.692-.824,1.678,1.678,0,0,0-.219-.333,8.286,8.286,0,0,1,.517-2.321,5.585,5.585,0,0,0,.867-1.787C549.2,1708.844,548.393,1708.558,547.626,1708.783Z" transform="translate(-542.332 -1708.703)" fill="#ffae43"/>
                  </g>
                </g>
                <g id="Grupo_1202158" data-name="Grupo 1202158" transform="translate(0.917 4.442)">
                  <g id="Grupo_1202157" data-name="Grupo 1202157">
                    <path id="Trazado_1292851" data-name="Trazado 1292851" d="M548.917,1739.656a2.2,2.2,0,0,1-.759.041,7.629,7.629,0,0,0-1.238-.169c-.3.018-.52-.4-.911-.268s-.718.368-.134.613a5.348,5.348,0,0,0,1.261.292c.3.076.683.333.934.327S548.94,1739.849,548.917,1739.656Z" transform="translate(-545.557 -1739.233)" fill="#ffae43"/>
                  </g>
                </g>
                <g id="Grupo_1202160" data-name="Grupo 1202160" transform="translate(0.543 4.427)">
                  <g id="Grupo_1202159" data-name="Grupo 1202159">
                    <path id="Trazado_1292852" data-name="Trazado 1292852" d="M543.958,1739.238a1.079,1.079,0,0,0-.566-.091c-.222.062-.432.254-.4.336s.531-.164.73-.111A.182.182,0,0,0,543.958,1739.238Z" transform="translate(-542.986 -1739.132)" fill="#ffae43"/>
                  </g>
                </g>
                <g id="Grupo_1202162" data-name="Grupo 1202162" transform="translate(0 5.928)">
                  <g id="Grupo_1202161" data-name="Grupo 1202161">
                    <path id="Trazado_1292853" data-name="Trazado 1292853" d="M540.042,1749.63a.131.131,0,0,0-.127-.184.825.825,0,0,0-.484.176.36.36,0,0,0-.1.531c.041-.006.158-.45.5-.438C539.956,1749.719,540.017,1749.68,540.042,1749.63Z" transform="translate(-539.254 -1749.445)" fill="#ffae43"/>
                  </g>
                </g>
                <g id="Grupo_1202165" data-name="Grupo 1202165" transform="translate(6.876 5.829)">
                  <g id="Grupo_1202164" data-name="Grupo 1202164">
                    <g id="Grupo_1202163" data-name="Grupo 1202163">
                      <path id="Trazado_1292854" data-name="Trazado 1292854" d="M586.512,1748.767a1.615,1.615,0,0,1,.5.234c.134.129.2.374.169.391a.355.355,0,0,1-.175,0,2.129,2.129,0,0,0-.286-.21A2.083,2.083,0,0,1,586.512,1748.767Z" transform="translate(-586.512 -1748.767)" fill="#ffae43"/>
                    </g>
                  </g>
                </g>
              </g>
              <g id="Grupo_1202168" data-name="Grupo 1202168" transform="translate(1.224 1.291)">
                <g id="Grupo_1202167" data-name="Grupo 1202167">
                  <path id="Trazado_1292855" data-name="Trazado 1292855" d="M459.273,1514.663s.315-2.628,3.574-2.207,7.918,8.023,10.651,8.829a13.909,13.909,0,0,0,7.848.21c2.8-.7,4.1-3.328,5.536-3.714,0,0-.105-2.383,1.3-2.663s2.1,1.576,2.1,1.576.876-.28,1.191.876-.946,4.555-.946,4.555,1.226.806.21,3.048c0,0,1.4,3.118-1.226,4.449,0,0,1.247,5.224-1.682,7.252-.974.675-4.345,1.448-4.414,1.728a4.105,4.105,0,0,1-1.635,2.365c-1.191.771-2.6-.134-3.445.286s-2.172.526-2.733-.175-3.153-5.606-7.5-6.8-4.064-11.317-4.59-13.349-3.241-5.045-3.626-5.308A1.025,1.025,0,0,1,459.273,1514.663Z" transform="translate(-459.273 -1512.41)" fill="#7f635d"/>
                </g>
              </g>
              <g id="Grupo_1202170" data-name="Grupo 1202170" transform="translate(0.371)">
                <g id="Grupo_1202169" data-name="Grupo 1202169">
                  <path id="Trazado_1292856" data-name="Trazado 1292856" d="M457,1505a1.375,1.375,0,0,0,.736-1.034c.017-.666-1.048-.444-1.12-.058s-.364-.233-.55-.28-.537.28-.584.5.012.689-.2.584.07-.783-.455-.666-.21,1.086-.479,1.133-.35-.535-.631-.349.3.723.117.875-.409.07-.42.409a.8.8,0,0,0,.7.864c.526.047.747-.654,1.285-1.179A2.222,2.222,0,0,1,457,1505Z" transform="translate(-453.41 -1503.536)" fill="#ff5f4a"/>
                </g>
              </g>
              <g id="Grupo_1202172" data-name="Grupo 1202172" transform="translate(2.692 4.295)">
                <g id="Grupo_1202171" data-name="Grupo 1202171">
                  <path id="Trazado_1292857" data-name="Trazado 1292857" d="M469.368,1533.055a1.358,1.358,0,0,0,.1.369c.076.155-.005.742.133.937s.018,1.007.613,1.272.869-.1,1.06-.429.3-.618.1-.81-.406-.286-.443-.534S469.368,1533.055,469.368,1533.055Z" transform="translate(-469.368 -1533.055)" fill="#ff5f4a"/>
                </g>
              </g>
              <g id="Grupo_1202174" data-name="Grupo 1202174" transform="translate(2.283 2.091)">
                <g id="Grupo_1202173" data-name="Grupo 1202173">
                  <path id="Trazado_1292858" data-name="Trazado 1292858" d="M466.555,1519.141s.467-.934,1.086-1.156a2.84,2.84,0,0,1,1.927.292c.28.187.421,1.25.3,1.892s-.374.642-1.063.526-2.009-.257-2.149-.747A2.307,2.307,0,0,1,466.555,1519.141Z" transform="translate(-466.551 -1517.91)" fill="#ff5f4a"/>
                </g>
              </g>
              <g id="Grupo_1202176" data-name="Grupo 1202176" transform="translate(3.374 2.309)">
                <g id="Grupo_1202175" data-name="Grupo 1202175">
                  <path id="Trazado_1292859" data-name="Trazado 1292859" d="M475,1519.608a.524.524,0,0,0-.911.491.662.662,0,0,0,.832,0A.385.385,0,0,0,475,1519.608Z" transform="translate(-474.054 -1519.406)" fill="#434a59"/>
                </g>
              </g>
              <g id="Grupo_1202178" data-name="Grupo 1202178" transform="translate(3.522 2.311)">
                <g id="Grupo_1202177" data-name="Grupo 1202177">
                  <path id="Trazado_1292860" data-name="Trazado 1292860" d="M475.857,1519.6a.482.482,0,0,0-.239-.159.434.434,0,0,0-.547.341c-.02.271.091.466.315.477a.54.54,0,0,0,.524-.337A.432.432,0,0,0,475.857,1519.6Z" transform="translate(-475.07 -1519.418)" fill="#ffae43"/>
                </g>
              </g>
              <g id="Grupo_1202181" data-name="Grupo 1202181" transform="translate(3.505 2.293)">
                <g id="Grupo_1202180" data-name="Grupo 1202180">
                  <g id="Grupo_1202179" data-name="Grupo 1202179">
                    <path id="Trazado_1292861" data-name="Trazado 1292861" d="M475.306,1520.17h-.022a.321.321,0,0,1-.231-.106.525.525,0,0,1-.1-.39.387.387,0,0,1,.193-.3.447.447,0,0,1,.377-.058.51.51,0,0,1,.247.166.448.448,0,0,1,.057.336A.555.555,0,0,1,475.306,1520.17Zm.1-.838a.469.469,0,0,0-.242.073.353.353,0,0,0-.177.271.492.492,0,0,0,.092.364.283.283,0,0,0,.207.094.527.527,0,0,0,.506-.323.419.419,0,0,0-.052-.309h0a.478.478,0,0,0-.23-.152A.286.286,0,0,0,475.405,1519.332Z" transform="translate(-474.949 -1519.297)" fill="#434a59"/>
                  </g>
                </g>
              </g>
              <g id="Grupo_1202183" data-name="Grupo 1202183" transform="translate(3.735 2.577)">
                <g id="Grupo_1202182" data-name="Grupo 1202182">
                  <path id="Trazado_1292862" data-name="Trazado 1292862" d="M476.891,1521.431a.18.18,0,1,1-.18-.179A.18.18,0,0,1,476.891,1521.431Z" transform="translate(-476.532 -1521.252)" fill="#434a59"/>
                </g>
              </g>
              <g id="Grupo_1202185" data-name="Grupo 1202185" transform="translate(0 3.187)">
                <g id="Grupo_1202184" data-name="Grupo 1202184">
                  <path id="Trazado_1292863" data-name="Trazado 1292863" d="M452.541,1525.45a.308.308,0,0,0-.3.085,4.659,4.659,0,0,1-.566.489c-.4.288-.871.546-.806,1.1,0,0,2.067-.42,2.82-.526s.41-.523-.052-.578C452.791,1525.923,452.807,1525.527,452.541,1525.45Z" transform="translate(-450.862 -1525.439)" fill="#ffc4a4"/>
                </g>
              </g>
              <g id="Grupo_1202190" data-name="Grupo 1202190" transform="translate(25.013 3.971)">
                <g id="Grupo_1202187" data-name="Grupo 1202187" transform="translate(3.817)">
                  <g id="Grupo_1202186" data-name="Grupo 1202186">
                    <path id="Trazado_1292864" data-name="Trazado 1292864" d="M652.877,1540.911c1.016-2.243-.21-3.048-.21-3.048s1.261-3.4.946-4.555-1.191-.875-1.191-.875-.7-1.857-2.1-1.577-1.3,2.663-1.3,2.663a6.7,6.7,0,0,1,1.693,3.539c.024,1.705,1,4.251.631,4.882s.3,3.422.3,3.422C654.278,1544.029,652.877,1540.911,652.877,1540.911Z" transform="translate(-649.021 -1530.827)" fill="#5b4743"/>
                  </g>
                </g>
                <g id="Grupo_1202189" data-name="Grupo 1202189" transform="translate(0 14.534)">
                  <g id="Grupo_1202188" data-name="Grupo 1202188">
                    <path id="Trazado_1292865" data-name="Trazado 1292865" d="M627.55,1637.973c2.928-2.028,1.682-7.252,1.682-7.252s-3.177,6.155-4.485,6.505-1.962.56-1.962.934a5.68,5.68,0,0,0,.387,1.494C623.548,1639.342,626.626,1638.614,627.55,1637.973Z" transform="translate(-622.785 -1630.721)" fill="#5b4743"/>
                  </g>
                </g>
              </g>
              <g id="Grupo_1202192" data-name="Grupo 1202192" transform="translate(29.23 4.594)">
                <g id="Grupo_1202191" data-name="Grupo 1202191">
                  <path id="Trazado_1292866" data-name="Trazado 1292866" d="M652.018,1538.264a.956.956,0,0,1-.2-.96c.335-.967,1-2.649,1.406-2.073a6.847,6.847,0,0,1,.934,2.4c.117.542.911-.225.771.637s-.981,2.492-1.1,3.487-.934,1-1.028.391C652.723,1541.6,653.035,1539.369,652.018,1538.264Z" transform="translate(-651.769 -1535.114)" fill="#7f635d"/>
                </g>
              </g>
            </g>
          </g>
          <g id="Grupo_1202196" data-name="Grupo 1202196" transform="translate(22.42 13.721)">
            <g id="Grupo_1202195" data-name="Grupo 1202195">
              <path id="Trazado_1292867" data-name="Trazado 1292867" d="M611.372,1602.767l-.034,0a7.719,7.719,0,0,1-5.081-2.422,6.188,6.188,0,0,1-1.279-2.062.334.334,0,0,1,.635-.2,5.653,5.653,0,0,0,1.159,1.84,7.038,7.038,0,0,0,4.634,2.184.334.334,0,0,1-.034.665Z" transform="translate(-604.962 -1597.846)" fill="#5b4743"/>
            </g>
          </g>
          <g id="Grupo_1202198" data-name="Grupo 1202198" transform="translate(9.646 17.516)">
            <g id="Grupo_1202197" data-name="Grupo 1202197">
              <path id="Trazado_1292868" data-name="Trazado 1292868" d="M525.749,1627.446a13.771,13.771,0,0,1-5.268-1.123,15.064,15.064,0,0,1-3.194-1.8.334.334,0,0,1,.412-.525c.056.044,4.792,3.683,10.152,2.563,5.287-1.1,6.128-2.444,6.135-2.457a.334.334,0,0,1,.59.312c-.087.164-1.008,1.632-6.588,2.8A10.913,10.913,0,0,1,525.749,1627.446Z" transform="translate(-517.16 -1623.93)" fill="#5b4743"/>
            </g>
          </g>
        </g>
        <g id="Grupo_1202209" data-name="Grupo 1202209" transform="translate(3.062 183.965)">
          <g id="Grupo_1202201" data-name="Grupo 1202201" transform="translate(0 0)">
            <g id="Grupo_1202200" data-name="Grupo 1202200">
              <path id="Trazado_1292869" data-name="Trazado 1292869" d="M533.707,1592.59a2.244,2.244,0,0,1-2.243-2.244v-24.21H339.1v24.21a2.243,2.243,0,1,1-4.487,0v-26.454a2.244,2.244,0,0,1,2.243-2.244H533.707a2.244,2.244,0,0,1,2.243,2.244v26.454A2.244,2.244,0,0,1,533.707,1592.59Z" transform="translate(-334.615 -1561.649)" fill="#fff"/>
            </g>
          </g>
          <g id="Grupo_1202208" data-name="Grupo 1202208" transform="translate(48.199 0)">
            <g id="Grupo_1202203" data-name="Grupo 1202203" transform="translate(100.451)">
              <g id="Grupo_1202202" data-name="Grupo 1202202">
                <path id="Trazado_1292870" data-name="Trazado 1292870" d="M1358.567,1592.59a2.244,2.244,0,0,1-2.244-2.244v-26.454a2.244,2.244,0,0,1,4.487,0v26.454A2.244,2.244,0,0,1,1358.567,1592.59Z" transform="translate(-1356.324 -1561.649)" fill="#fff"/>
              </g>
            </g>
            <g id="Grupo_1202205" data-name="Grupo 1202205" transform="translate(50.225)">
              <g id="Grupo_1202204" data-name="Grupo 1202204">
                <path id="Trazado_1292871" data-name="Trazado 1292871" d="M1013.355,1592.59a2.244,2.244,0,0,1-2.244-2.244v-26.454a2.243,2.243,0,1,1,4.487,0v26.454A2.244,2.244,0,0,1,1013.355,1592.59Z" transform="translate(-1011.112 -1561.649)" fill="#fff"/>
              </g>
            </g>
            <g id="Grupo_1202207" data-name="Grupo 1202207">
              <g id="Grupo_1202206" data-name="Grupo 1202206">
                <path id="Trazado_1292872" data-name="Trazado 1292872" d="M668.142,1592.59a2.244,2.244,0,0,1-2.244-2.244v-26.454a2.243,2.243,0,1,1,4.487,0v26.454A2.243,2.243,0,0,1,668.142,1592.59Z" transform="translate(-665.899 -1561.649)" fill="#fff"/>
              </g>
            </g>
          </g>
        </g>
        <g id="Grupo_1202266" data-name="Grupo 1202266" transform="translate(115.149 180.943)">
          <g id="Grupo_1202211" data-name="Grupo 1202211" transform="translate(30.225 23.254)">
            <g id="Grupo_1202210" data-name="Grupo 1202210">
              <path id="Trazado_1292873" data-name="Trazado 1292873" d="M1315.156,1701.167a12.618,12.618,0,0,1-1.028.743,1.573,1.573,0,0,1-1.288-.192c-.254-.165.145-.848.534-.985S1315.156,1701.167,1315.156,1701.167Z" transform="translate(-1312.761 -1700.713)" fill="#ff5f4a"/>
            </g>
          </g>
          <g id="Grupo_1202223" data-name="Grupo 1202223" transform="translate(10.654 26.085)">
            <g id="Grupo_1202213" data-name="Grupo 1202213" transform="translate(0.258)">
              <g id="Grupo_1202212" data-name="Grupo 1202212">
                <path id="Trazado_1292874" data-name="Trazado 1292874" d="M1181.6,1720.254a.494.494,0,0,1,.356.473v.861a22.822,22.822,0,0,0,1.265,3.591,3.473,3.473,0,0,0,1.66.785c.666.1,1.617-.023,1.926.238s.214.642-.19.666-1.237-.143-2.426-.238-.785-.167-1.189-.1-.88.143-1.047-.047-.38-.428-.38-.428-.675.725-1.076.743-.535-.464,0-.776a1.464,1.464,0,0,0,.7-.838,1.707,1.707,0,0,1,.223-.339,8.441,8.441,0,0,0-.526-2.363,5.7,5.7,0,0,1-.883-1.819C1180,1720.315,1180.819,1720.024,1181.6,1720.254Z" transform="translate(-1180.017 -1720.172)" fill="#d47328"/>
              </g>
            </g>
            <g id="Grupo_1202215" data-name="Grupo 1202215" transform="translate(3.332 4.522)">
              <g id="Grupo_1202214" data-name="Grupo 1202214">
                <path id="Trazado_1292875" data-name="Trazado 1292875" d="M1201.141,1751.684a2.246,2.246,0,0,0,.773.042,7.819,7.819,0,0,1,1.26-.172c.309.018.529-.41.927-.274s.731.375.137.624a5.431,5.431,0,0,1-1.284.3c-.309.077-.7.339-.951.333S1201.117,1751.88,1201.141,1751.684Z" transform="translate(-1201.14 -1751.253)" fill="#d47328"/>
              </g>
            </g>
            <g id="Grupo_1202217" data-name="Grupo 1202217" transform="translate(6.144 4.507)">
              <g id="Grupo_1202216" data-name="Grupo 1202216">
                <path id="Trazado_1292876" data-name="Trazado 1292876" d="M1220.472,1751.257a1.1,1.1,0,0,1,.577-.092c.226.063.44.259.41.342s-.541-.166-.743-.113A.186.186,0,0,1,1220.472,1751.257Z" transform="translate(-1220.472 -1751.15)" fill="#d47328"/>
              </g>
            </g>
            <g id="Grupo_1202219" data-name="Grupo 1202219" transform="translate(6.871 6.035)">
              <g id="Grupo_1202218" data-name="Grupo 1202218">
                <path id="Trazado_1292877" data-name="Trazado 1292877" d="M1225.482,1761.838a.133.133,0,0,1,.129-.188.84.84,0,0,1,.493.179.367.367,0,0,1,.107.541c-.042-.006-.161-.458-.506-.446C1225.569,1761.929,1225.507,1761.889,1225.482,1761.838Z" transform="translate(-1225.469 -1761.65)" fill="#fab48e"/>
              </g>
            </g>
            <g id="Grupo_1202222" data-name="Grupo 1202222" transform="translate(0 5.934)">
              <g id="Grupo_1202221" data-name="Grupo 1202221">
                <g id="Grupo_1202220" data-name="Grupo 1202220">
                  <path id="Trazado_1292878" data-name="Trazado 1292878" d="M1178.928,1760.959a1.64,1.64,0,0,0-.505.238c-.137.131-.208.38-.173.4a.362.362,0,0,0,.179,0,2.191,2.191,0,0,1,.291-.214A2.123,2.123,0,0,0,1178.928,1760.959Z" transform="translate(-1178.241 -1760.959)" fill="#d47328"/>
                </g>
              </g>
            </g>
          </g>
          <g id="Grupo_1202235" data-name="Grupo 1202235" transform="translate(13.298 26.347)">
            <g id="Grupo_1202225" data-name="Grupo 1202225" transform="translate(0.259)">
              <g id="Grupo_1202224" data-name="Grupo 1202224">
                <path id="Trazado_1292879" data-name="Trazado 1292879" d="M1199.776,1722.052a.494.494,0,0,1,.356.474v.861a22.864,22.864,0,0,0,1.264,3.591,3.474,3.474,0,0,0,1.661.785c.666.1,1.617-.024,1.926.238s.214.642-.19.666-1.236-.143-2.425-.238-.785-.166-1.189-.095-.88.143-1.046-.048-.381-.428-.381-.428-.675.725-1.076.743-.535-.464,0-.776a1.463,1.463,0,0,0,.7-.838,1.717,1.717,0,0,1,.223-.339,8.431,8.431,0,0,0-.526-2.363,5.684,5.684,0,0,1-.883-1.819C1198.174,1722.114,1199,1721.822,1199.776,1722.052Z" transform="translate(-1198.193 -1721.97)" fill="#ffae43"/>
              </g>
            </g>
            <g id="Grupo_1202227" data-name="Grupo 1202227" transform="translate(3.332 4.522)">
              <g id="Grupo_1202226" data-name="Grupo 1202226">
                <path id="Trazado_1292880" data-name="Trazado 1292880" d="M1219.315,1753.482a2.239,2.239,0,0,0,.773.041,7.807,7.807,0,0,1,1.26-.172c.309.018.529-.41.927-.273s.731.375.137.624a5.425,5.425,0,0,1-1.284.3c-.309.077-.7.339-.951.333S1219.291,1753.678,1219.315,1753.482Z" transform="translate(-1219.314 -1753.051)" fill="#ffae43"/>
              </g>
            </g>
            <g id="Grupo_1202229" data-name="Grupo 1202229" transform="translate(6.144 4.507)">
              <g id="Grupo_1202228" data-name="Grupo 1202228">
                <path id="Trazado_1292881" data-name="Trazado 1292881" d="M1238.646,1753.056a1.1,1.1,0,0,1,.577-.093c.226.063.44.259.41.342s-.541-.167-.743-.113A.186.186,0,0,1,1238.646,1753.056Z" transform="translate(-1238.646 -1752.948)" fill="#ffae43"/>
              </g>
            </g>
            <g id="Grupo_1202231" data-name="Grupo 1202231" transform="translate(6.871 6.035)">
              <g id="Grupo_1202230" data-name="Grupo 1202230">
                <path id="Trazado_1292882" data-name="Trazado 1292882" d="M1243.656,1763.636a.133.133,0,0,1,.129-.187.839.839,0,0,1,.492.178.367.367,0,0,1,.107.541c-.041-.006-.16-.458-.505-.446C1243.743,1763.727,1243.681,1763.687,1243.656,1763.636Z" transform="translate(-1243.643 -1763.448)" fill="#ffae43"/>
              </g>
            </g>
            <g id="Grupo_1202234" data-name="Grupo 1202234" transform="translate(0 5.934)">
              <g id="Grupo_1202233" data-name="Grupo 1202233">
                <g id="Grupo_1202232" data-name="Grupo 1202232">
                  <path id="Trazado_1292883" data-name="Trazado 1292883" d="M1197.1,1762.757a1.633,1.633,0,0,0-.505.238c-.137.131-.208.38-.173.4a.356.356,0,0,0,.178,0,2.206,2.206,0,0,1,.291-.214A2.114,2.114,0,0,0,1197.1,1762.757Z" transform="translate(-1196.415 -1762.757)" fill="#ffae43"/>
                </g>
              </g>
            </g>
          </g>
          <g id="Grupo_1202237" data-name="Grupo 1202237" transform="translate(0 0)">
            <g id="Grupo_1202236" data-name="Grupo 1202236">
              <path id="Trazado_1292884" data-name="Trazado 1292884" d="M1139.44,1564.893s2.079-1.714-.071-4.276-10.494-12.538-16.005-13.43c-2.863-.463-5.136.927-7.99.214s-4.173-3.388-5.636-3.781c0,0,.107-2.425-1.32-2.711s-2.14,1.605-2.14,1.605-.892-.286-1.213.892.963,4.637.963,4.637-1.248.82-.214,3.1c0,0-1.427,3.174,1.248,4.53,0,0-1.269,5.318,1.712,7.384.992.687,4.423,1.474,4.494,1.76a4.18,4.18,0,0,0,1.665,2.407c1.213.785,2.651-.136,3.508.292s2.211.535,2.782-.178,3.959-4.289,8.262-3.113c2.061.563,8.355.483,8.792.67A1.044,1.044,0,0,0,1139.44,1564.893Z" transform="translate(-1105.014 -1540.88)" fill="#7f635d"/>
            </g>
          </g>
          <g id="Grupo_1202239" data-name="Grupo 1202239" transform="translate(34.486 19.244)">
            <g id="Grupo_1202238" data-name="Grupo 1202238">
              <path id="Trazado_1292885" data-name="Trazado 1292885" d="M1342.274,1674.43a1.4,1.4,0,0,1,.482-1.2c.561-.381.956.655.665.928s.4.183.543.318.055.614-.11.776-.6.369-.391.491.632-.49.821.025-.815.777-.708,1.032.651.006.645.349-.786.137-.814.38.164.389-.119.585a.811.811,0,0,1-1.126-.126c-.329-.425.15-1,.305-1.749A2.259,2.259,0,0,0,1342.274,1674.43Z" transform="translate(-1342.048 -1673.149)" fill="#ff5f4a"/>
            </g>
          </g>
          <g id="Grupo_1202241" data-name="Grupo 1202241" transform="translate(29.92 22.171)">
            <g id="Grupo_1202240" data-name="Grupo 1202240">
              <path id="Trazado_1292886" data-name="Trazado 1292886" d="M1313.716,1694.263a1.384,1.384,0,0,1-.372.115c-.175.02-.633.413-.876.4s-.873.538-1.427.174-.39-.8-.215-1.145.364-.6.641-.528.468.191.7.086S1313.716,1694.263,1313.716,1694.263Z" transform="translate(-1310.66 -1693.268)" fill="#ff5f4a"/>
            </g>
          </g>
          <g id="Grupo_1202243" data-name="Grupo 1202243" transform="translate(31.027 19.898)">
            <g id="Grupo_1202242" data-name="Grupo 1202242">
              <path id="Trazado_1292887" data-name="Trazado 1292887" d="M1321.276,1680.728a2.7,2.7,0,0,0,.394-1.566,2.891,2.891,0,0,0-1.309-1.492c-.314-.138-1.3.326-1.789.779s-.345.673.134,1.2,1.323,1.581,1.821,1.432A2.343,2.343,0,0,0,1321.276,1680.728Z" transform="translate(-1318.271 -1677.645)" fill="#ff5f4a"/>
            </g>
          </g>
          <g id="Grupo_1202245" data-name="Grupo 1202245" transform="translate(33.221 20.787)">
            <g id="Grupo_1202244" data-name="Grupo 1202244">
              <path id="Trazado_1292888" data-name="Trazado 1292888" d="M1333.74,1683.758a.534.534,0,0,1,.08,1.05.674.674,0,0,1-.457-.713A.392.392,0,0,1,1333.74,1683.758Z" transform="translate(-1333.352 -1683.758)" fill="#434a59"/>
            </g>
          </g>
          <g id="Grupo_1202247" data-name="Grupo 1202247" transform="translate(33.228 20.788)">
            <g id="Grupo_1202246" data-name="Grupo 1202246">
              <path id="Trazado_1292889" data-name="Trazado 1292889" d="M1333.806,1683.765a.491.491,0,0,1,.267.117.441.441,0,0,1,.008.656c-.222.167-.449.179-.582-.008a.55.55,0,0,1,0-.634A.439.439,0,0,1,1333.806,1683.765Z" transform="translate(-1333.399 -1683.765)" fill="#ffae43"/>
            </g>
          </g>
          <g id="Grupo_1202250" data-name="Grupo 1202250" transform="translate(33.21 20.771)">
            <g id="Grupo_1202249" data-name="Grupo 1202249">
              <g id="Grupo_1202248" data-name="Grupo 1202248">
                <path id="Trazado_1292890" data-name="Trazado 1292890" d="M1333.384,1683.777a.455.455,0,0,1,.319-.136.512.512,0,0,1,.278.12.457.457,0,0,1,.158.355.393.393,0,0,1-.15.329.535.535,0,0,1-.389.128.325.325,0,0,1-.218-.14l-.013-.018A.565.565,0,0,1,1333.384,1683.777Zm.576.013a.491.491,0,0,0-.257-.114h0a.424.424,0,0,0-.293.125.536.536,0,0,0,0,.611.287.287,0,0,0,.194.126.5.5,0,0,0,.362-.121.361.361,0,0,0,.136-.3.476.476,0,0,0-.071-.247A.3.3,0,0,0,1333.96,1683.791Z" transform="translate(-1333.278 -1683.641)" fill="#434a59"/>
              </g>
            </g>
          </g>
          <g id="Grupo_1202252" data-name="Grupo 1202252" transform="translate(33.44 21.092)">
            <g id="Grupo_1202251" data-name="Grupo 1202251">
              <path id="Trazado_1292891" data-name="Trazado 1292891" d="M1334.939,1685.878a.183.183,0,1,0,.252.055A.183.183,0,0,0,1334.939,1685.878Z" transform="translate(-1334.854 -1685.85)" fill="#434a59"/>
            </g>
          </g>
          <g id="Grupo_1202254" data-name="Grupo 1202254" transform="translate(32.756 22.541)">
            <g id="Grupo_1202253" data-name="Grupo 1202253">
              <path id="Trazado_1292892" data-name="Trazado 1292892" d="M1331.869,1696.7a.313.313,0,0,1,.092.3,4.775,4.775,0,0,0-.108.754c-.026.5.011,1.046-.5,1.3,0,0-.775-2-1.1-2.706s.223-.639.524-.273C1331.327,1696.745,1331.657,1696.513,1331.869,1696.7Z" transform="translate(-1330.152 -1695.807)" fill="#ffae43"/>
            </g>
          </g>
          <g id="Grupo_1202259" data-name="Grupo 1202259" transform="translate(0 0)">
            <g id="Grupo_1202256" data-name="Grupo 1202256">
              <g id="Grupo_1202255" data-name="Grupo 1202255">
                <path id="Trazado_1292893" data-name="Trazado 1292893" d="M1105.815,1551.148c-1.034-2.283.214-3.1.214-3.1s-1.284-3.46-.963-4.637,1.213-.891,1.213-.891.713-1.89,2.14-1.605,1.32,2.711,1.32,2.711-1.7,1.867-1.724,3.6-1.023,4.328-.642,4.97-.309,3.484-.309,3.484C1104.388,1554.322,1105.815,1551.148,1105.815,1551.148Z" transform="translate(-1105.015 -1540.881)" fill="#5b4743"/>
              </g>
            </g>
            <g id="Grupo_1202258" data-name="Grupo 1202258" transform="translate(1.781 14.796)">
              <g id="Grupo_1202257" data-name="Grupo 1202257">
                <path id="Trazado_1292894" data-name="Trazado 1292894" d="M1119.234,1649.963c-2.981-2.065-1.712-7.384-1.712-7.384s3.234,6.266,4.565,6.623,2,.571,2,.951a5.793,5.793,0,0,1-.394,1.521C1123.308,1651.355,1120.175,1650.614,1119.234,1649.963Z" transform="translate(-1117.254 -1642.579)" fill="#5b4743"/>
              </g>
            </g>
          </g>
          <g id="Grupo_1202261" data-name="Grupo 1202261" transform="translate(1.081 0.635)">
            <g id="Grupo_1202260" data-name="Grupo 1202260">
              <path id="Trazado_1292895" data-name="Trazado 1292895" d="M1115.429,1548.453a.973.973,0,0,0,.2-.977c-.34-.985-1.017-2.7-1.431-2.11a6.964,6.964,0,0,0-.951,2.445c-.119.551-.928-.229-.785.649s1,2.537,1.118,3.55.952,1.019,1.047.4C1114.711,1551.849,1114.394,1549.578,1115.429,1548.453Z" transform="translate(-1112.444 -1545.246)" fill="#7f635d"/>
            </g>
          </g>
          <g id="Grupo_1202263" data-name="Grupo 1202263" transform="translate(5.546 14.278)">
            <g id="Grupo_1202262" data-name="Grupo 1202262">
              <path id="Trazado_1292896" data-name="Trazado 1292896" d="M1152.5,1643.228c-.174,0-.349,0-.527-.011a12.9,12.9,0,0,1-8.751-3.636.34.34,0,0,1,.5-.455,12.453,12.453,0,0,0,8.274,3.412,11.77,11.77,0,0,0,7.351-2.174.339.339,0,0,1,.429.526A12.18,12.18,0,0,1,1152.5,1643.228Z" transform="translate(-1143.133 -1639.014)" fill="#5b4743"/>
            </g>
          </g>
          <g id="Grupo_1202265" data-name="Grupo 1202265" transform="translate(2.956 10.711)">
            <g id="Grupo_1202264" data-name="Grupo 1202264">
              <path id="Trazado_1292897" data-name="Trazado 1292897" d="M1125.67,1619.895a.34.34,0,0,1-.042-.677c3.135-.4,5.281-4.49,5.3-4.532a.34.34,0,1,1,.6.311c-.093.182-2.33,4.453-5.821,4.895Z" transform="translate(-1125.331 -1614.502)" fill="#5b4743"/>
            </g>
          </g>
        </g>
        <g id="Grupo_1202267" data-name="Grupo 1202267" transform="translate(16.767 118.882)">
          <rect id="Rectángulo_412359" data-name="Rectángulo 412359" width="193.338" height="21.539" fill="#ce926a"/>
        </g>
        <g id="Grupo_1202272" data-name="Grupo 1202272" transform="translate(16.767 123.45)">
          <g id="Grupo_1202268" data-name="Grupo 1202268" transform="translate(41.443 0)">
            <path id="Trazado_1292898" data-name="Trazado 1292898" d="M713.654,1145.719v12.4h41.6v-12.4ZM753.131,1156H715.775v-8.159h37.357Z" transform="translate(-713.654 -1145.719)" fill="#a3704e"/>
          </g>
          <g id="Grupo_1202269" data-name="Grupo 1202269" transform="translate(0 0)">
            <path id="Trazado_1292899" data-name="Trazado 1292899" d="M458.984,1145.719H428.807v2.121h28.056V1156H428.807v2.121h30.177Z" transform="translate(-428.807 -1145.719)" fill="#a3704e"/>
          </g>
          <g id="Grupo_1202270" data-name="Grupo 1202270" transform="translate(94.307 0)">
            <path id="Trazado_1292900" data-name="Trazado 1292900" d="M1077,1145.719v12.4h41.6v-12.4ZM1116.481,1156h-37.357v-8.159h37.357Z" transform="translate(-1077.003 -1145.719)" fill="#a3704e"/>
          </g>
          <g id="Grupo_1202271" data-name="Grupo 1202271" transform="translate(147.171)">
            <path id="Trazado_1292901" data-name="Trazado 1292901" d="M1440.351,1158.12h41.6v-12.4h-41.6v12.4Zm2.121-10.281h37.356V1156h-37.356Z" transform="translate(-1440.351 -1145.718)" fill="#a3704e"/>
          </g>
        </g>
        <g id="Grupo_1202389" data-name="Grupo 1202389" transform="translate(43.291)">
          <g id="Grupo_1202273" data-name="Grupo 1202273" transform="translate(47.418 18.698)">
            <path id="Trazado_1292902" data-name="Trazado 1292902" d="M938.558,425.9l23.471,24.514s-8.323-18.76-6.126-21.878,10.4-3.689,11.929-1.485,20.838,36.528,11.328,46.037c-10.04,10.04-30.12-11.781-35.344-18.012S934.77,431.693,938.558,425.9Z" transform="translate(-937.03 -425.727)" fill="#8eb6bf"/>
          </g>
          <g id="Grupo_1202307" data-name="Grupo 1202307" transform="translate(47.339)">
            <g id="Grupo_1202306" data-name="Grupo 1202306">
              <g id="Grupo_1202275" data-name="Grupo 1202275" transform="translate(2.493 5.151)">
                <g id="Grupo_1202274" data-name="Grupo 1202274">
                  <path id="Trazado_1292903" data-name="Trazado 1292903" d="M953.7,332.613a13.011,13.011,0,0,0-.074,1.314c.018.416.6.888.888,1.018s.66-.6.562-1.018S953.7,332.613,953.7,332.613Z" transform="translate(-953.625 -332.613)" fill="#ff5f4a"/>
                </g>
              </g>
              <g id="Grupo_1202277" data-name="Grupo 1202277" transform="translate(1.293 1.364)">
                <g id="Grupo_1202276" data-name="Grupo 1202276">
                  <path id="Trazado_1292904" data-name="Trazado 1292904" d="M945.374,308.967s.333-2.776,3.776-2.332,8.365,8.476,11.253,9.328a14.693,14.693,0,0,0,8.291.222c2.961-.74,4.331-3.516,5.849-3.924,0,0-.111-2.517,1.369-2.813s2.221,1.666,2.221,1.666.925-.3,1.258.925-1,4.812-1,4.812,1.3.851.222,3.22c0,0,1.481,3.294-1.3,4.7,0,0,1.317,5.519-1.777,7.662-1.029.713-4.59,1.53-4.664,1.826s-1.611-.05-3.11-.05c-6.8,0-8.476-3.257-13.066-4.515s-4.294-11.956-4.849-14.1-3.424-5.33-3.831-5.608A1.083,1.083,0,0,1,945.374,308.967Z" transform="translate(-945.374 -306.587)" fill="#af5546"/>
                </g>
              </g>
              <g id="Grupo_1202279" data-name="Grupo 1202279" transform="translate(0.392)">
                <g id="Grupo_1202278" data-name="Grupo 1202278">
                  <path id="Trazado_1292905" data-name="Trazado 1292905" d="M942.968,298.753a1.452,1.452,0,0,0,.777-1.092c.018-.7-1.107-.469-1.183-.062s-.384-.247-.581-.3-.568.3-.617.531.012.728-.21.617.074-.827-.481-.7-.222,1.147-.506,1.2-.37-.565-.667-.369.321.764.123.924-.432.074-.444.432a.841.841,0,0,0,.74.913c.555.049.79-.691,1.357-1.246A2.347,2.347,0,0,1,942.968,298.753Z" transform="translate(-939.179 -297.212)" fill="#ff5f4a"/>
                </g>
              </g>
              <g id="Grupo_1202281" data-name="Grupo 1202281" transform="translate(2.844 4.537)">
                <g id="Grupo_1202280" data-name="Grupo 1202280">
                  <path id="Trazado_1292906" data-name="Trazado 1292906" d="M956.038,328.4a1.439,1.439,0,0,0,.108.389c.081.164-.006.784.141.99s.019,1.064.648,1.344.918-.107,1.12-.453.319-.653.1-.855-.429-.3-.468-.564S956.038,328.4,956.038,328.4Z" transform="translate(-956.038 -328.398)" fill="#ff5f4a"/>
                </g>
              </g>
              <g id="Grupo_1202283" data-name="Grupo 1202283" transform="translate(2.411 2.209)">
                <g id="Grupo_1202282" data-name="Grupo 1202282">
                  <path id="Trazado_1292907" data-name="Trazado 1292907" d="M953.067,313.7s.494-.987,1.147-1.222a3,3,0,0,1,2.036.308c.3.2.444,1.32.321,2s-.395.679-1.123.555-2.122-.271-2.27-.79A2.428,2.428,0,0,1,953.067,313.7Z" transform="translate(-953.063 -312.397)" fill="#ff5f4a"/>
                </g>
              </g>
              <g id="Grupo_1202285" data-name="Grupo 1202285" transform="translate(3.565 2.439)">
                <g id="Grupo_1202284" data-name="Grupo 1202284">
                  <path id="Trazado_1292908" data-name="Trazado 1292908" d="M961.992,314.19a.554.554,0,0,0-.962.518.7.7,0,0,0,.879,0A.406.406,0,0,0,961.992,314.19Z" transform="translate(-960.988 -313.978)" fill="#434a59"/>
                </g>
              </g>
              <g id="Grupo_1202287" data-name="Grupo 1202287" transform="translate(3.721 2.441)">
                <g id="Grupo_1202286" data-name="Grupo 1202286">
                  <path id="Trazado_1292909" data-name="Trazado 1292909" d="M962.895,314.179a.511.511,0,0,0-.252-.168.458.458,0,0,0-.577.36c-.022.287.1.493.333.5a.57.57,0,0,0,.554-.355A.457.457,0,0,0,962.895,314.179Z" transform="translate(-962.063 -313.991)" fill="#ffae43"/>
                </g>
              </g>
              <g id="Grupo_1202290" data-name="Grupo 1202290" transform="translate(3.703 2.423)">
                <g id="Grupo_1202289" data-name="Grupo 1202289">
                  <g id="Grupo_1202288" data-name="Grupo 1202288">
                    <path id="Trazado_1292910" data-name="Trazado 1292910" d="M962.313,314.786h-.023a.339.339,0,0,1-.245-.112.555.555,0,0,1-.106-.412.409.409,0,0,1,.2-.315.474.474,0,0,1,.4-.061.532.532,0,0,1,.261.175.472.472,0,0,1,.06.355A.586.586,0,0,1,962.313,314.786Zm.105-.885a.5.5,0,0,0-.255.077.373.373,0,0,0-.187.287.52.52,0,0,0,.1.385.3.3,0,0,0,.218.1.557.557,0,0,0,.535-.341.441.441,0,0,0-.054-.326h0a.511.511,0,0,0-.243-.161A.3.3,0,0,0,962.418,313.9Z" transform="translate(-961.936 -313.864)" fill="#434a59"/>
                  </g>
                </g>
              </g>
              <g id="Grupo_1202292" data-name="Grupo 1202292" transform="translate(3.946 2.723)">
                <g id="Grupo_1202291" data-name="Grupo 1202291">
                  <path id="Trazado_1292911" data-name="Trazado 1292911" d="M963.986,316.118a.19.19,0,1,1-.19-.19A.19.19,0,0,1,963.986,316.118Z" transform="translate(-963.607 -315.928)" fill="#434a59"/>
                </g>
              </g>
              <g id="Grupo_1202294" data-name="Grupo 1202294" transform="translate(0 3.367)">
                <g id="Grupo_1202293" data-name="Grupo 1202293">
                  <path id="Trazado_1292912" data-name="Trazado 1292912" d="M938.261,320.364a.325.325,0,0,0-.318.09,4.981,4.981,0,0,1-.6.516c-.425.3-.92.576-.852,1.166,0,0,2.184-.444,2.98-.555s.433-.552-.055-.611C938.525,320.863,938.543,320.445,938.261,320.364Z" transform="translate(-936.488 -320.352)" fill="#ffae43"/>
                </g>
              </g>
              <g id="Grupo_1202299" data-name="Grupo 1202299" transform="translate(26.426 4.195)">
                <g id="Grupo_1202296" data-name="Grupo 1202296" transform="translate(4.033)">
                  <g id="Grupo_1202295" data-name="Grupo 1202295">
                    <path id="Trazado_1292913" data-name="Trazado 1292913" d="M1149.915,336.7c1.073-2.369-.222-3.22-.222-3.22s1.333-3.59,1-4.812-1.258-.925-1.258-.925-.74-1.962-2.221-1.666-1.369,2.813-1.369,2.813,1.764,1.937,1.789,3.739,1.061,4.491.666,5.158.321,3.615.321,3.615C1151.4,339.992,1149.915,336.7,1149.915,336.7Z" transform="translate(-1145.842 -326.044)" fill="#8e4238"/>
                  </g>
                </g>
                <g id="Grupo_1202298" data-name="Grupo 1202298" transform="translate(0 15.355)">
                  <g id="Grupo_1202297" data-name="Grupo 1202297">
                    <path id="Trazado_1292914" data-name="Trazado 1292914" d="M1123.157,439.244c3.094-2.143,1.777-7.662,1.777-7.662s-3.356,6.5-4.738,6.873-2.073.592-2.073.987a6.009,6.009,0,0,0,.409,1.579C1118.928,440.69,1122.181,439.92,1123.157,439.244Z" transform="translate(-1118.123 -431.582)" fill="#8e4238"/>
                  </g>
                </g>
              </g>
              <g id="Grupo_1202301" data-name="Grupo 1202301" transform="translate(30.881 4.854)">
                <g id="Grupo_1202300" data-name="Grupo 1202300">
                  <path id="Trazado_1292915" data-name="Trazado 1292915" d="M1149.007,333.9a1.01,1.01,0,0,1-.206-1.014c.353-1.022,1.055-2.8,1.485-2.19a7.229,7.229,0,0,1,.987,2.537c.124.572.963-.238.815.673s-1.036,2.632-1.16,3.684-.987,1.058-1.086.413C1149.753,337.426,1150.082,335.069,1149.007,333.9Z" transform="translate(-1148.744 -330.573)" fill="#af5546"/>
                </g>
              </g>
              <g id="Grupo_1202303" data-name="Grupo 1202303" transform="translate(23.687 14.496)">
                <g id="Grupo_1202302" data-name="Grupo 1202302">
                  <path id="Trazado_1292916" data-name="Trazado 1292916" d="M1106.067,402.047l-.036,0a8.157,8.157,0,0,1-5.368-2.559,6.548,6.548,0,0,1-1.352-2.179.353.353,0,0,1,.672-.215,5.975,5.975,0,0,0,1.224,1.944,7.435,7.435,0,0,0,4.9,2.307.353.353,0,0,1-.036.7Z" transform="translate(-1099.294 -396.847)" fill="#8e4238"/>
                </g>
              </g>
              <g id="Grupo_1202305" data-name="Grupo 1202305" transform="translate(10.191 18.506)">
                <g id="Grupo_1202304" data-name="Grupo 1202304">
                  <path id="Trazado_1292917" data-name="Trazado 1292917" d="M1015.605,428.122a14.549,14.549,0,0,1-5.566-1.186,15.915,15.915,0,0,1-3.375-1.9.353.353,0,0,1,.435-.555c.059.046,5.063,3.892,10.726,2.708,5.586-1.167,6.474-2.582,6.482-2.6a.352.352,0,0,1,.623.33c-.091.173-1.065,1.724-6.961,2.956A11.548,11.548,0,0,1,1015.605,428.122Z" transform="translate(-1006.53 -424.408)" fill="#8e4238"/>
                </g>
              </g>
            </g>
          </g>
          <g id="Grupo_1202308" data-name="Grupo 1202308" transform="translate(26.819 1.616)">
            <path id="Trazado_1292918" data-name="Trazado 1292918" d="M803.844,312.1s1.454-2.074.318-3.294-3.466.152-4.907.772-3.018,1.128-3.142,1.691l-.124.562a1.439,1.439,0,0,0-.476,1.592c.289,1.075,1.985,7.157,3.783,6.537S803.844,312.1,803.844,312.1Z" transform="translate(-795.447 -308.315)" fill="#af5546"/>
          </g>
          <g id="Grupo_1202312" data-name="Grupo 1202312" transform="translate(41.704 206.24)">
            <g id="Grupo_1202311" data-name="Grupo 1202311">
              <g id="Grupo_1202310" data-name="Grupo 1202310">
                <g id="Grupo_1202309" data-name="Grupo 1202309">
                  <path id="Trazado_1292919" data-name="Trazado 1292919" d="M907.174,1721.816c-1.545-.677-1.741-2.052-2.4-3.356-.044-.088-.3-1.962-.3-2.111-.008-.646-1.876-2.363-2.746-1.017-1.715,2.654-3.6-1.493-3.5-.385.3,3.3-1.217,8.612.011,8.973,2.616.768,14.825,1.661,15.056.379C913.439,1723.528,909.846,1722.985,907.174,1721.816Z" transform="translate(-897.756 -1714.753)" fill="#404859"/>
                </g>
              </g>
            </g>
          </g>
          <g id="Grupo_1202316" data-name="Grupo 1202316" transform="translate(1.88 206.24)">
            <g id="Grupo_1202315" data-name="Grupo 1202315">
              <g id="Grupo_1202314" data-name="Grupo 1202314">
                <g id="Grupo_1202313" data-name="Grupo 1202313">
                  <path id="Trazado_1292920" data-name="Trazado 1292920" d="M633.457,1721.816c-1.545-.677-1.741-2.052-2.4-3.356-.044-.088-.3-1.962-.3-2.111-.008-.646-1.876-2.363-2.746-1.017-1.715,2.654-3.6-1.493-3.5-.385.3,3.3-1.217,8.612.011,8.973,2.616.768,14.825,1.661,15.056.379C639.721,1723.528,636.128,1722.985,633.457,1721.816Z" transform="translate(-624.039 -1714.753)" fill="#404859"/>
                </g>
              </g>
            </g>
          </g>
          <g id="Grupo_1202321" data-name="Grupo 1202321" transform="translate(0 58.088)">
            <g id="Grupo_1202320" data-name="Grupo 1202320">
              <g id="Grupo_1202319" data-name="Grupo 1202319">
                <g id="Grupo_1202318" data-name="Grupo 1202318">
                  <g id="Grupo_1202317" data-name="Grupo 1202317">
                    <path id="Trazado_1292921" data-name="Trazado 1292921" d="M638.821,713.575c3.085-6.813,26.54-15.653,32.728-17.109.453,6.861,3.617,11.135,7.362,18.535,3.025,5.978.329,43.358-4.93,73.529-3.842,22.043-10.4,58.076-10.4,58.076s-.23,1.424-6.2,1.424c-5.736,0-6.641-1.424-6.641-1.424s5.624-53.083,6.654-64.868c.963-11.016,1.473-44.208,1.473-44.208L623.9,846.585a20.38,20.38,0,0,1-6.5,1.445,15.306,15.306,0,0,1-6.285-1.306S635.283,721.39,638.821,713.575Z" transform="translate(-611.115 -696.466)" fill="#434a59"/>
                  </g>
                </g>
              </g>
            </g>
          </g>
          <g id="Grupo_1202324" data-name="Grupo 1202324" transform="translate(13.696 124.609)">
            <g id="Grupo_1202322" data-name="Grupo 1202322" transform="translate(32.587 1.099)">
              <path id="Trazado_1292922" data-name="Trazado 1292922" d="M949.274,1161.927l-19.193-.691c-.224,7.007-.508,13.7-.849,17.617a78.271,78.271,0,0,0,17.9-1.22C947.93,1172.444,948.649,1167.15,949.274,1161.927Z" transform="translate(-929.232 -1161.236)" fill="#2b3038"/>
            </g>
            <g id="Grupo_1202323" data-name="Grupo 1202323">
              <path id="Trazado_1292923" data-name="Trazado 1292923" d="M705.252,1167.96A199.7,199.7,0,0,0,725.5,1171.3l5.388-16.8-22.731-.818C707.2,1158.355,706.222,1163.148,705.252,1167.96Z" transform="translate(-705.252 -1153.681)" fill="#2b3038"/>
            </g>
          </g>
          <g id="Grupo_1202325" data-name="Grupo 1202325" transform="translate(26.261 16.881)">
            <path id="Trazado_1292924" data-name="Trazado 1292924" d="M802.125,414.867s-.714-1.754-4.57-1.617a7,7,0,0,0-5.93,3.978C791.2,418,803.815,415.825,802.125,414.867Z" transform="translate(-791.615 -413.242)" fill="#b1d5de"/>
          </g>
          <g id="Grupo_1202326" data-name="Grupo 1202326" transform="translate(11.063 17.489)">
            <path id="Trazado_1292925" data-name="Trazado 1292925" d="M693.514,457.3c-2.592-13.142-4.039-20.638-2.1-26.867,1.765-5.657,10.281-10.2,15.419-11.735,2.846-.852,14.315-2.057,17.077-.608,3.861,2.026,8.709,9.151,12.716,20.515,8.332,23.634,7.876,35.468,8.52,42.643,2.056,16.1,1.091,55.274,1.091,55.274A49.919,49.919,0,0,1,734.334,538a48.741,48.741,0,0,1-12.568-1.32l-2.065-6.37-3.972,5.871a111.2,111.2,0,0,1-15.628-.662c-9.57-.9-12.95-2.192-12.95-2.192S695.952,469.662,693.514,457.3Z" transform="translate(-687.151 -417.416)" fill="#b1d5de"/>
          </g>
          <g id="Grupo_1202327" data-name="Grupo 1202327" transform="translate(36.566 18.468)">
            <path id="Trazado_1292926" data-name="Trazado 1292926" d="M870.522,453.618a.408.408,0,0,1-.4-.462c.007-.05.675-5.1,1.072-10.265.73-9.512-.1-10.9-.372-11.1-.12-.071-.526.047-1.787,1.015-.559.429-.791.607-1.084.433s-.288-.411-.214-2.241a18.8,18.8,0,0,0,.022-2.073c-.223-.489-2.828-2.469-5.134-4.037a.408.408,0,1,1,.458-.675c.013.009,1.319.9,2.622,1.869,2.756,2.054,2.821,2.473,2.857,2.7a16.374,16.374,0,0,1-.011,2.251c-.015.363-.032.8-.038,1.146l.024-.019c.858-.658,2.034-1.56,2.764-1.026.418.305,1.527,1.116.7,11.823-.4,5.192-1.069,10.256-1.076,10.307A.408.408,0,0,1,870.522,453.618Zm-2.763-24.682Z" transform="translate(-862.442 -424.144)" fill="#8eb6bf"/>
          </g>
          <g id="Grupo_1202328" data-name="Grupo 1202328" transform="translate(27.423 18.875)">
            <path id="Trazado_1292927" data-name="Trazado 1292927" d="M800.439,427.808l.5-.418s6.025-1,7.259,0,8.278,17.879,7.877,29.066c0,0-14.823-18.687-16.425-26.385A2.334,2.334,0,0,1,800.439,427.808Z" transform="translate(-799.6 -426.948)" fill="#fff"/>
          </g>
          <g id="Grupo_1202330" data-name="Grupo 1202330" transform="translate(27.322 17.198)">
            <g id="Grupo_1202329" data-name="Grupo 1202329">
              <path id="Trazado_1292928" data-name="Trazado 1292928" d="M809.788,443.633a.408.408,0,0,1-.4-.311c-.61-2.494-3.354-7.827-5.775-12.532-2.931-5.7-4.711-9.245-4.713-10.475,0-3.006,1.94-3.7,4-4.439a8.748,8.748,0,0,1,8.3,1.583,20.749,20.749,0,0,1,4.256,4.507.408.408,0,0,1-.68.451,20.3,20.3,0,0,0-4.07-4.309,7.948,7.948,0,0,0-7.533-1.464c-2.274.814-3.46,1.347-3.457,3.669,0,1.121,2.35,5.687,4.622,10.1,2.561,4.977,5.209,10.123,5.842,12.711a.408.408,0,0,1-.3.493A.387.387,0,0,1,809.788,443.633Z" transform="translate(-798.905 -415.421)" fill="#434a59"/>
            </g>
          </g>
          <g id="Grupo_1202331" data-name="Grupo 1202331" transform="translate(43.205 49.357)">
            <path id="Trazado_1292929" data-name="Trazado 1292929" d="M908.481,716.815h-.022a.408.408,0,0,1-.386-.429c.02-.379,2.032-37.979,2.064-46.863.042-11.806-1.147-26.75-1.66-32.626a.408.408,0,1,1,.813-.071c.514,5.888,1.706,20.861,1.663,32.7-.032,8.9-2.044,46.525-2.065,46.9A.408.408,0,0,1,908.481,716.815Z" transform="translate(-908.073 -636.452)" fill="#8eb6bf"/>
          </g>
          <g id="Grupo_1202334" data-name="Grupo 1202334" transform="translate(28.924 10.656)">
            <g id="Grupo_1202333" data-name="Grupo 1202333">
              <g id="Grupo_1202332" data-name="Grupo 1202332">
                <path id="Trazado_1292930" data-name="Trazado 1292930" d="M811.394,370.451l-1.477,9.152c-.009.559,4.262,3.839,6.5,1.777.627-.579-.065-1.818-.28-2.342l-1.729-6.577Z" transform="translate(-809.917 -370.451)" fill="#ff867a"/>
              </g>
            </g>
          </g>
          <g id="Grupo_1202336" data-name="Grupo 1202336" transform="translate(31.852 13.258)">
            <g id="Grupo_1202335" data-name="Grupo 1202335">
              <path id="Trazado_1292931" data-name="Trazado 1292931" d="M832.711,391.957l-.884-3.362-1.783-.26s.048,2.16,1.152,3.1A2.267,2.267,0,0,0,832.711,391.957Z" transform="translate(-830.044 -388.335)" fill="#c66c67"/>
            </g>
          </g>
          <g id="Grupo_1202337" data-name="Grupo 1202337" transform="translate(62.507 20.455)">
            <path id="Trazado_1292932" data-name="Trazado 1292932" d="M1040.774,445.99a4.714,4.714,0,0,1,1.642-3.735c1.818-1.5,4.433-4.972,5.3-4.388s-1.564,2.922-1.532,3.543,7.219-1.938,7.648-1.09-2.8,1.935-2.8,1.935,2.667-.621,3.214-.187-.769,1.245-.769,1.245.712.844.3,1.277a10.188,10.188,0,0,1-2.638,1.007s1.431.845.322,1.384-9.4,2.229-10.163,1.264A3.09,3.09,0,0,1,1040.774,445.99Z" transform="translate(-1040.739 -437.802)" fill="#ff867a"/>
          </g>
          <g id="Grupo_1202340" data-name="Grupo 1202340" transform="translate(30.178 4.567)">
            <g id="Grupo_1202339" data-name="Grupo 1202339">
              <g id="Grupo_1202338" data-name="Grupo 1202338">
                <path id="Trazado_1292933" data-name="Trazado 1292933" d="M819.562,330.863l-1,4.457a2.786,2.786,0,0,0,2.288,3.141,7.7,7.7,0,0,0,3.4-.192c1.221-.269,1.74-1.515,1.583-3.134a15.188,15.188,0,0,0-1.462-4.956C823.294,327.943,820.425,328.006,819.562,330.863Z" transform="translate(-818.537 -328.601)" fill="#ff867a"/>
              </g>
            </g>
          </g>
          <g id="Grupo_1202343" data-name="Grupo 1202343" transform="translate(33.731 8.894)">
            <g id="Grupo_1202342" data-name="Grupo 1202342">
              <g id="Grupo_1202341" data-name="Grupo 1202341">
                <path id="Trazado_1292934" data-name="Trazado 1292934" d="M846.191,358.343a10.035,10.035,0,0,1-3.231.292,2.834,2.834,0,0,0,1.143,1.354C844.863,360.366,845.785,359.82,846.191,358.343Z" transform="translate(-842.96 -358.343)" fill="#fff"/>
              </g>
            </g>
          </g>
          <g id="Grupo_1202346" data-name="Grupo 1202346" transform="translate(35.116 5.577)">
            <g id="Grupo_1202345" data-name="Grupo 1202345">
              <g id="Grupo_1202344" data-name="Grupo 1202344">
                <path id="Trazado_1292935" data-name="Trazado 1292935" d="M852.654,335.909a3.772,3.772,0,0,1,.744.126.182.182,0,0,0,.086-.353,4.264,4.264,0,0,0-.841-.136C852.41,335.532,852.422,335.895,852.654,335.909Z" transform="translate(-852.474 -335.545)" fill="#af5546"/>
              </g>
            </g>
          </g>
          <g id="Grupo_1202349" data-name="Grupo 1202349" transform="translate(32.969 5.692)">
            <g id="Grupo_1202348" data-name="Grupo 1202348">
              <g id="Grupo_1202347" data-name="Grupo 1202347">
                <path id="Trazado_1292936" data-name="Trazado 1292936" d="M838.8,336.343c-.213.062-.748.22-.959.292a.182.182,0,0,0,.112.346c.211-.071.745-.229.959-.292S839.022,336.277,838.8,336.343Z" transform="translate(-837.718 -336.335)" fill="#af5546"/>
              </g>
            </g>
          </g>
          <g id="Grupo_1202350" data-name="Grupo 1202350" transform="translate(24.115 20.046)">
            <path id="Trazado_1292937" data-name="Trazado 1292937" d="M795.028,463.741a.405.405,0,0,1-.271-.1c-1.481-1.319-14.5-12.93-15.371-14.428a1.067,1.067,0,0,1-.114-.933c.251-.687,1.21-1.028,2.056-1.328.19-.067.42-.149.6-.224a11.83,11.83,0,0,0-1.289-.405c-1.257-.347-2.821-.779-3.485-1.722-1.038-1.475,1.044-8.024,1.472-9.322a.408.408,0,1,1,.775.255c-1.01,3.066-2.169,7.76-1.579,8.6.5.7,1.9,1.092,3.035,1.4a4.2,4.2,0,0,1,1.952.822.571.571,0,0,1,.125.527c-.111.4-.6.575-1.33.835-.539.191-1.443.512-1.562.839-.009.025-.034.093.053.242.612,1.048,9.43,9.084,15.208,14.229a.408.408,0,0,1-.272.713Z" transform="translate(-776.865 -434.996)" fill="#8eb6bf"/>
          </g>
          <g id="Grupo_1202351" data-name="Grupo 1202351" transform="translate(36.03 6.954)">
            <path id="Trazado_1292938" data-name="Trazado 1292938" d="M858.761,345.288c0,.154.068.278.153.278s.153-.125.153-.278-.068-.279-.153-.279S858.761,345.135,858.761,345.288Z" transform="translate(-858.761 -345.01)" fill="#404859"/>
          </g>
          <g id="Grupo_1202352" data-name="Grupo 1202352" transform="translate(34.884 42.331)">
            <ellipse id="Elipse_11530" data-name="Elipse 11530" cx="2.394" cy="2.394" rx="2.394" ry="2.394" transform="matrix(0.833, -0.554, 0.554, 0.833, 0, 2.652)" fill="#434a59"/>
          </g>
          <g id="Grupo_1202353" data-name="Grupo 1202353" transform="translate(33.743 6.954)">
            <path id="Trazado_1292939" data-name="Trazado 1292939" d="M843.037,345.288c0,.154.068.278.153.278s.153-.125.153-.278-.068-.279-.153-.279S843.037,345.135,843.037,345.288Z" transform="translate(-843.037 -345.01)" fill="#404859"/>
          </g>
          <g id="Grupo_1202362" data-name="Grupo 1202362" transform="translate(41.572 23.263)">
            <g id="Grupo_1202354" data-name="Grupo 1202354" transform="translate(0 2.706)">
              <path id="Trazado_1292940" data-name="Trazado 1292940" d="M896.918,479.062c-.541-2.069,2.482-2.969,2.763-3.048a6.539,6.539,0,0,1,1.812-.307,5.033,5.033,0,0,1,4.028,1.634c1.72,1.916,2.471,9.689,2.223,13.169a2.478,2.478,0,0,1-1.6,2.223.406.406,0,0,1-.253-.771,1.679,1.679,0,0,0,1.043-1.509c.284-4-.68-11.079-2.018-12.57-1.929-2.149-4.946-1.112-4.975-1.1l-.016,0-.014.005c-.026.007-2.56.715-2.208,2.064.36,1.377,5.167,13.443,5.448,13.8a1.315,1.315,0,0,0,.571.166.383.383,0,0,1,.1.752.39.39,0,0,1-.1.013,1.572,1.572,0,0,1-1.007-.3C901.777,492.543,897.379,480.826,896.918,479.062Z" transform="translate(-896.853 -475.704)" fill="#434a59"/>
            </g>
            <g id="Grupo_1202361" data-name="Grupo 1202361" transform="translate(0.833)">
              <g id="Grupo_1202357" data-name="Grupo 1202357" transform="translate(0 2.527)">
                <g id="Grupo_1202356" data-name="Grupo 1202356">
                  <g id="Grupo_1202355" data-name="Grupo 1202355">
                    <path id="Trazado_1292941" data-name="Trazado 1292941" d="M906.136,474.474a4.27,4.27,0,0,1,1.075.087.541.541,0,0,1-.258,1.051,4.626,4.626,0,0,0-3.524.9.541.541,0,1,1-.625-.883A6.053,6.053,0,0,1,906.136,474.474Z" transform="translate(-902.575 -474.472)" fill="#fff"/>
                  </g>
                </g>
              </g>
              <g id="Grupo_1202360" data-name="Grupo 1202360" transform="translate(0.547)">
                <g id="Grupo_1202359" data-name="Grupo 1202359">
                  <g id="Grupo_1202358" data-name="Grupo 1202358">
                    <path id="Trazado_1292942" data-name="Trazado 1292942" d="M906.858,457.1a.541.541,0,0,1,.447.213,8.928,8.928,0,0,1,1.237,2.967.541.541,0,0,1-1.058.23,7.969,7.969,0,0,0-1.039-2.54.541.541,0,0,1,.413-.869Z" transform="translate(-906.333 -457.104)" fill="#fff"/>
                  </g>
                </g>
              </g>
            </g>
          </g>
          <g id="Grupo_1202363" data-name="Grupo 1202363" transform="translate(15.349 27.512)">
            <path id="Trazado_1292943" data-name="Trazado 1292943" d="M721.225,486.909c9.782,6.881,24.684,27.443,24.684,27.443s13.848-28.693,17.156-28.031,9.985,1.984,10.45,4.052-15.157,44.9-28.638,43.825-27.008-31.626-28.142-38.677C716.073,491.406,718.181,484.768,721.225,486.909Z" transform="translate(-716.613 -486.31)" fill="#b1d5de"/>
          </g>
          <g id="Grupo_1202364" data-name="Grupo 1202364" transform="translate(30.037 2.216)">
            <path id="Trazado_1292944" data-name="Trazado 1292944" d="M823.321,313.365a2.424,2.424,0,0,1-1.526,2.079c-1.447.511-3.473,1.735-4.107,1.329s1.392-3.341,2.646-4.044S823.18,312.761,823.321,313.365Z" transform="translate(-817.569 -312.442)" fill="#af5546"/>
          </g>
          <g id="Grupo_1202365" data-name="Grupo 1202365" transform="translate(17.016 42.646)">
            <path id="Trazado_1292945" data-name="Trazado 1292945" d="M754.645,623.348c-4.428,0-7.722-3.326-11.608-7.25-.586-.592-1.193-1.2-1.819-1.821-6.327-6.236-12.843-22.692-13.118-23.39a.408.408,0,1,1,.759-.3c.067.169,6.728,16.993,12.931,23.107.629.62,1.237,1.234,1.826,1.828,5.333,5.385,9.187,9.276,16.317,5.492,7.99-4.24,15.3-21.578,15.375-21.753a.408.408,0,1,1,.753.314c-.3.724-7.5,17.784-15.745,22.159A12.091,12.091,0,0,1,754.645,623.348Z" transform="translate(-728.072 -590.33)" fill="#8eb6bf"/>
          </g>
          <g id="Grupo_1202366" data-name="Grupo 1202366" transform="translate(32.108 31.552)">
            <path id="Trazado_1292946" data-name="Trazado 1292946" d="M844.42,538.831l-12.527-15.724a.408.408,0,1,1,.638-.508l11.732,14.726c1.687-3.346,10.005-19.751,12.61-23.093a.408.408,0,1,1,.643.5c-2.793,3.583-12.711,23.328-12.811,23.527Z" transform="translate(-831.805 -514.076)" fill="#8eb6bf"/>
          </g>
          <g id="Grupo_1202379" data-name="Grupo 1202379" transform="translate(29.637 5.843)">
            <g id="Grupo_1202369" data-name="Grupo 1202369" transform="translate(5.91)">
              <g id="Grupo_1202368" data-name="Grupo 1202368">
                <g id="Grupo_1202367" data-name="Grupo 1202367">
                  <path id="Trazado_1292947" data-name="Trazado 1292947" d="M855.521,338.789l-.059-.269a.978.978,0,0,1,.156-.785.7.7,0,0,1,.51-.292l.933-.07a.7.7,0,0,1,.558.223.957.957,0,0,1,.26.6l0,.05a1.537,1.537,0,0,1-.27,1.012,1.108,1.108,0,0,1-.819.482l-.187.014a.887.887,0,0,1-.373-.053A1.179,1.179,0,0,1,855.521,338.789Zm1.257.74a.9.9,0,0,0,.665-.4,1.326,1.326,0,0,0,.231-.874l0-.05a.746.746,0,0,0-.2-.467.5.5,0,0,0-.392-.161l-.934.07a.492.492,0,0,0-.357.208.766.766,0,0,0-.119.615l.06.272a.886.886,0,0,0,.865.8Z" transform="translate(-855.438 -337.372)" fill="#434a59"/>
                </g>
              </g>
            </g>
            <g id="Grupo_1202372" data-name="Grupo 1202372" transform="translate(2.179 0.256)">
              <g id="Grupo_1202371" data-name="Grupo 1202371">
                <g id="Grupo_1202370" data-name="Grupo 1202370">
                  <path id="Trazado_1292948" data-name="Trazado 1292948" d="M829.8,340.208l0-.05a.88.88,0,0,1,.812-.943l1.113-.083a.88.88,0,0,1,.942.959l-.025.271a1.2,1.2,0,0,1-1.1,1.128l-.224.017a1.409,1.409,0,0,1-1.51-1.3Zm1.717,1.074a.99.99,0,0,0,.912-.934l.026-.275a.67.67,0,0,0-.718-.731l-1.113.083a.67.67,0,0,0-.619.719l0,.049A1.2,1.2,0,0,0,831.3,341.3l.224-.017Z" transform="translate(-829.795 -339.13)" fill="#434a59"/>
                </g>
              </g>
            </g>
            <g id="Grupo_1202375" data-name="Grupo 1202375" transform="translate(0 0.55)">
              <g id="Grupo_1202374" data-name="Grupo 1202374">
                <g id="Grupo_1202373" data-name="Grupo 1202373">
                  <path id="Trazado_1292949" data-name="Trazado 1292949" d="M814.924,342.453a.1.1,0,0,0,.034-.006l2.405-1.089a.1.1,0,0,0-.071-.2l-2.405,1.089a.1.1,0,0,0,.037.2Z" transform="translate(-814.818 -341.155)" fill="#434a59"/>
                </g>
              </g>
            </g>
            <g id="Grupo_1202378" data-name="Grupo 1202378" transform="translate(4.824 1.055)">
              <g id="Grupo_1202377" data-name="Grupo 1202377">
                <g id="Grupo_1202376" data-name="Grupo 1202376">
                  <path id="Trazado_1292950" data-name="Trazado 1292950" d="M848.046,345.035a.1.1,0,0,0,.089-.008.945.945,0,0,1,1.025-.092.1.1,0,0,0,.126-.167,1.135,1.135,0,0,0-1.257.079.1.1,0,0,0-.038.143A.1.1,0,0,0,848.046,345.035Z" transform="translate(-847.978 -344.623)" fill="#434a59"/>
                </g>
              </g>
            </g>
          </g>
          <g id="Grupo_1202383" data-name="Grupo 1202383" transform="translate(35 7.734)">
            <g id="Grupo_1202382" data-name="Grupo 1202382">
              <g id="Grupo_1202381" data-name="Grupo 1202381">
                <g id="Grupo_1202380" data-name="Grupo 1202380">
                  <path id="Trazado_1292951" data-name="Trazado 1292951" d="M851.778,350.912a1.778,1.778,0,0,0,.713-.486c.152-.168.383.1.233.263a2.007,2.007,0,0,1-.788.537C851.725,351.305,851.566,350.992,851.778,350.912Z" transform="translate(-851.678 -350.373)" fill="#c66c67"/>
                </g>
              </g>
            </g>
          </g>
          <g id="Grupo_1202386" data-name="Grupo 1202386" transform="translate(28.924 7.217)">
            <g id="Grupo_1202385" data-name="Grupo 1202385">
              <g id="Grupo_1202384" data-name="Grupo 1202384">
                <path id="Trazado_1292952" data-name="Trazado 1292952" d="M811.277,347.513c-.195-.439-.586-1.047-1.095-.438-.741.886.19,3.027,1.354,2.724C812.4,349.574,811.38,347.744,811.277,347.513Z" transform="translate(-809.917 -346.818)" fill="#ff867a"/>
              </g>
            </g>
          </g>
          <g id="Grupo_1202387" data-name="Grupo 1202387" transform="translate(72.01 42.981)">
            <path id="Trazado_1292953" data-name="Trazado 1292953" d="M1116.33,610.815a.4.4,0,0,1-.265-.1c-5.68-4.86-9.815-17.032-9.988-17.548a.408.408,0,1,1,.773-.26c.042.124,4.236,12.474,9.745,17.188a.408.408,0,0,1-.265.718Z" transform="translate(-1106.056 -592.632)" fill="#6c9fa8"/>
          </g>
          <g id="Grupo_1202388" data-name="Grupo 1202388" transform="translate(41.086 55.146)">
            <path id="Trazado_1292954" data-name="Trazado 1292954" d="M893.92,686.806a.408.408,0,0,1-.4-.5c.068-.279,1.689-6.881,3.183-9.831a.408.408,0,1,1,.728.369c-1.452,2.866-3.1,9.588-3.119,9.656A.408.408,0,0,1,893.92,686.806Z" transform="translate(-893.511 -676.246)" fill="#8eb6bf"/>
          </g>
        </g>
      </g>
    </g>
  </g>
</svg>
